<svg xmlns="http://www.w3.org/2000/svg" xmlns:xlink="http://www.w3.org/1999/xlink" width="40" zoomAndPan="magnify" viewBox="0 0 30 30.000001" height="40" preserveAspectRatio="xMidYMid meet" version="1.0"><defs><clipPath id="96437b61b3"><path d="M 3.867188 6.398438 L 26.367188 6.398438 L 26.367188 22.367188 L 3.867188 22.367188 Z M 3.867188 6.398438 " clip-rule="nonzero"/></clipPath></defs><g clip-path="url(#96437b61b3)"><path fill="#ffffff" d="M 6.285156 6.398438 C 4.953125 6.398438 3.875 7.46875 3.875 8.792969 C 3.90625 12.425781 3.875 16.269531 3.875 19.972656 C 3.875 21.246094 4.871094 22.277344 6.132812 22.355469 L 24.046875 22.367188 C 25.332031 22.316406 26.355469 21.261719 26.355469 19.972656 L 26.355469 8.382812 C 26.160156 7.253906 25.175781 6.398438 23.984375 6.398438 C 18.089844 6.402344 12.183594 6.398438 6.285156 6.398438 Z M 6.246094 7.660156 L 24.0625 7.660156 L 15.441406 16.230469 C 15.285156 16.386719 15.035156 16.386719 14.878906 16.230469 Z M 25.152344 8.269531 L 25.152344 19.882812 C 25.152344 20.574219 24.902344 20.964844 24.398438 21.105469 L 18.328125 15.054688 Z M 5.21875 8.320312 L 11.929688 14.992188 L 5.792969 21.09375 C 5.375 20.953125 5.230469 20.617188 5.21875 20.15625 Z M 12.78125 15.828125 L 14.878906 17.925781 C 15.035156 18.082031 15.285156 18.082031 15.441406 17.925781 L 17.476562 15.902344 L 22.769531 21.167969 L 7.414062 21.167969 Z M 12.78125 15.828125 " fill-opacity="1" fill-rule="nonzero"/></g></svg>