<svg xmlns="http://www.w3.org/2000/svg" xmlns:xlink="http://www.w3.org/1999/xlink" width="40" zoomAndPan="magnify" viewBox="0 0 30 30.000001" height="40" preserveAspectRatio="xMidYMid meet" version="1.0"><defs><clipPath id="b96bc93d96"><path d="M 3.386719 4.136719 L 26.613281 4.136719 L 26.613281 25.183594 L 3.386719 25.183594 Z M 3.386719 4.136719 " clip-rule="nonzero"/></clipPath></defs><g clip-path="url(#b96bc93d96)"><path fill="#ffffff" d="M 20.71875 25.160156 C 20.402344 25.160156 20.128906 25.046875 19.902344 24.820312 L 15.066406 19.953125 L 12.398438 23.53125 C 12.121094 23.90625 11.75 24.058594 11.289062 23.984375 C 10.828125 23.90625 10.523438 23.648438 10.378906 23.203125 L 8.21875 16.679688 L 4.027344 14.566406 C 3.820312 14.464844 3.660156 14.3125 3.546875 14.117188 C 3.429688 13.917969 3.378906 13.703125 3.386719 13.472656 C 3.398438 13.242188 3.46875 13.035156 3.605469 12.847656 C 3.738281 12.660156 3.910156 12.527344 4.125 12.441406 L 24.921875 4.300781 C 25.359375 4.128906 25.753906 4.199219 26.105469 4.511719 C 26.457031 4.824219 26.578125 5.207031 26.460938 5.664062 L 21.839844 24.277344 C 21.777344 24.539062 21.640625 24.75 21.429688 24.914062 C 21.222656 25.078125 20.984375 25.160156 20.71875 25.160156 Z M 15.773438 17.371094 L 20.09375 21.722656 L 23.675781 7.28125 L 7.390625 13.660156 L 9.683594 14.8125 C 9.96875 14.957031 10.160156 15.179688 10.261719 15.484375 L 11.875 20.359375 L 13.417969 18.289062 L 12.972656 17.839844 C 12.863281 17.730469 12.78125 17.605469 12.722656 17.460938 C 12.664062 17.320312 12.632812 17.171875 12.632812 17.015625 C 12.632812 16.863281 12.664062 16.714844 12.722656 16.570312 C 12.78125 16.429688 12.863281 16.304688 12.972656 16.195312 L 17.59375 11.542969 C 17.703125 11.433594 17.828125 11.355469 17.96875 11.296875 C 18.109375 11.242188 18.253906 11.214844 18.40625 11.214844 C 18.558594 11.214844 18.703125 11.246094 18.84375 11.304688 C 18.984375 11.363281 19.105469 11.449219 19.214844 11.554688 C 19.320312 11.664062 19.402344 11.789062 19.460938 11.929688 C 19.519531 12.070312 19.550781 12.214844 19.550781 12.367188 C 19.554688 12.519531 19.527344 12.667969 19.46875 12.808594 C 19.414062 12.949219 19.332031 13.078125 19.226562 13.1875 L 15.421875 17.015625 L 15.746094 17.347656 Z M 15.773438 17.371094 " fill-opacity="1" fill-rule="nonzero"/></g></svg>