<svg xmlns="http://www.w3.org/2000/svg" xmlns:xlink="http://www.w3.org/1999/xlink" width="40" zoomAndPan="magnify" viewBox="0 0 30 30.000001" height="40" preserveAspectRatio="xMidYMid meet" version="1.0"><defs><clipPath id="391defce45"><path d="M 2.890625 5.007812 L 26.839844 5.007812 L 26.839844 23.878906 L 2.890625 23.878906 Z M 2.890625 5.007812 " clip-rule="nonzero"/></clipPath></defs><g clip-path="url(#391defce45)"><path fill="#ffffff" d="M 14.863281 5.007812 C 11.378906 5.007812 8.296875 5.371094 6.417969 5.652344 C 4.882812 5.878906 3.660156 7.085938 3.378906 8.632812 C 3.140625 9.988281 2.898438 11.964844 2.898438 14.445312 C 2.898438 16.925781 3.140625 18.902344 3.378906 20.253906 C 3.660156 21.804688 4.882812 23.003906 6.417969 23.238281 C 8.300781 23.519531 11.398438 23.878906 14.863281 23.878906 C 18.332031 23.878906 21.421875 23.519531 23.304688 23.238281 L 23.3125 23.238281 C 24.847656 23.007812 26.070312 21.804688 26.347656 20.253906 C 26.589844 18.894531 26.832031 16.917969 26.832031 14.445312 C 26.832031 11.964844 26.589844 9.988281 26.34375 8.632812 C 26.070312 7.085938 24.847656 5.878906 23.3125 5.652344 C 21.433594 5.371094 18.351562 5.007812 14.863281 5.007812 Z M 14.863281 6.726562 C 18.230469 6.726562 21.242188 7.074219 23.058594 7.347656 C 23.859375 7.46875 24.507812 8.097656 24.660156 8.9375 C 24.886719 10.203125 25.121094 12.078125 25.121094 14.445312 C 25.121094 16.808594 24.886719 18.6875 24.667969 19.945312 C 24.511719 20.789062 23.867188 21.421875 23.058594 21.542969 C 21.226562 21.808594 18.210938 22.164062 14.863281 22.164062 C 11.519531 22.164062 8.496094 21.808594 6.671875 21.542969 C 5.871094 21.421875 5.21875 20.789062 5.0625 19.945312 C 4.84375 18.679688 4.609375 16.808594 4.609375 14.445312 C 4.609375 12.074219 4.84375 10.203125 5.0625 8.9375 C 5.21875 8.097656 5.863281 7.46875 6.664062 7.355469 L 6.671875 7.355469 C 8.488281 7.078125 11.5 6.726562 14.863281 6.726562 Z M 11.445312 10.15625 L 11.445312 18.734375 L 19.992188 14.445312 Z M 11.445312 10.15625 " fill-opacity="1" fill-rule="nonzero"/></g></svg>