<svg xmlns="http://www.w3.org/2000/svg" xmlns:xlink="http://www.w3.org/1999/xlink" width="80" zoomAndPan="magnify" viewBox="0 0 60 60" height="80" preserveAspectRatio="xMidYMid meet" version="1.0"><defs><clipPath id="e33e279f8e"><path d="M 7.007812 48.621094 L 60 48.621094 L 60 52.734375 L 7.007812 52.734375 Z M 7.007812 48.621094 " clip-rule="nonzero"/></clipPath><clipPath id="3210ccfa16"><path d="M 18 8.484375 L 30 8.484375 L 30 20 L 18 20 Z M 18 8.484375 " clip-rule="nonzero"/></clipPath></defs><g clip-path="url(#e33e279f8e)"><path fill="#e8e8e8" d="M 60 50.679688 C 60 51.816406 48.140625 52.734375 33.507812 52.734375 C 18.878906 52.734375 7.019531 51.816406 7.019531 50.679688 C 7.019531 49.542969 18.878906 48.625 33.507812 48.625 C 48.140625 48.625 60 49.542969 60 50.679688 " fill-opacity="1" fill-rule="nonzero"/></g><path fill="#2640a1" d="M 13.445312 43.351562 L 8.707031 43.351562 L 9.636719 50.3125 C 9.652344 50.660156 10.121094 50.941406 11.078125 50.941406 C 12.03125 50.941406 12.5 50.660156 12.515625 50.3125 L 12.519531 50.3125 L 13.445312 43.351562 " fill-opacity="1" fill-rule="nonzero"/><path fill="#172874" d="M 13.445312 43.390625 C 13.445312 43.738281 12.386719 44.023438 11.078125 44.023438 C 9.769531 44.023438 8.707031 43.738281 8.707031 43.390625 C 8.707031 43.039062 9.769531 42.757812 11.078125 42.757812 C 12.386719 42.757812 13.445312 43.039062 13.445312 43.390625 " fill-opacity="1" fill-rule="nonzero"/><path fill="#172874" d="M 11.089844 43.105469 C 11.128906 43.101562 11.171875 43.097656 11.210938 43.097656 C 11.042969 42.472656 10.855469 41.851562 10.667969 41.238281 C 10.101562 39.378906 9.515625 37.460938 9.613281 35.53125 L 9.496094 35.527344 C 9.394531 37.472656 9.984375 39.402344 10.554688 41.269531 C 10.738281 41.875 10.925781 42.488281 11.089844 43.105469 " fill-opacity="1" fill-rule="nonzero"/><path fill="#172874" d="M 10.25 43.257812 C 9.644531 41.378906 8.75 39.742188 7.828125 38.230469 L 7.722656 38.285156 C 8.644531 39.792969 9.535156 41.421875 10.136719 43.292969 C 10.175781 43.28125 10.210938 43.269531 10.25 43.257812 " fill-opacity="1" fill-rule="nonzero"/><path fill="#172874" d="M 10.484375 43.195312 C 10.519531 43.1875 10.558594 43.179688 10.597656 43.171875 C 10.160156 41.605469 9.636719 40.039062 8.753906 38.007812 C 7.910156 36.078125 6.570312 33.765625 5.257812 31.96875 L 5.160156 32.035156 C 6.46875 33.824219 7.804688 36.128906 8.640625 38.054688 C 9.523438 40.074219 10.042969 41.632812 10.484375 43.195312 " fill-opacity="1" fill-rule="nonzero"/><path fill="#172874" d="M 10.972656 43.113281 C 10.832031 37.382812 11.417969 28.539062 11.929688 27.441406 L 11.820312 27.398438 C 11.308594 28.496094 10.714844 37.378906 10.855469 43.128906 C 10.894531 43.121094 10.933594 43.117188 10.972656 43.113281 " fill-opacity="1" fill-rule="nonzero"/><path fill="#172874" d="M 11.992188 43.15625 C 12.109375 40.023438 12.519531 38.183594 12.976562 36.136719 C 13.238281 34.96875 13.507812 33.757812 13.738281 32.214844 L 13.621094 32.199219 C 13.390625 33.738281 13.121094 34.945312 12.859375 36.113281 C 12.402344 38.164062 11.992188 40.007812 11.875 43.136719 C 11.914062 43.144531 11.953125 43.148438 11.992188 43.15625 " fill-opacity="1" fill-rule="nonzero"/><path fill="#172874" d="M 11.261719 43.09375 C 11.953125 40.109375 13.121094 37.21875 14.714844 34.578125 L 14.609375 34.523438 C 13.003906 37.183594 11.828125 40.097656 11.136719 43.101562 C 11.175781 43.101562 11.21875 43.09375 11.261719 43.09375 " fill-opacity="1" fill-rule="nonzero"/><path fill="#0c2660" d="M 4.796875 31.300781 C 5.003906 31.5625 5.210938 31.824219 5.414062 32.085938 C 4.789062 32.433594 3.226562 31.230469 2.949219 31.03125 C 1.667969 30.121094 0.886719 28.734375 0.191406 27.351562 C 0.441406 27.671875 0.75 27.949219 1.101562 28.167969 C 1.628906 28.496094 2.308594 28.773438 2.441406 29.363281 C 2.464844 29.476562 2.464844 29.59375 2.507812 29.707031 C 2.671875 30.140625 3.289062 30.167969 3.734375 30.347656 C 4.1875 30.53125 4.503906 30.925781 4.796875 31.300781 " fill-opacity="1" fill-rule="nonzero"/><path fill="#2640a1" d="M 5.308594 30.921875 C 5.625 31.121094 5.753906 31.546875 5.601562 31.878906 C 5.554688 31.976562 5.492188 32.042969 5.414062 32.085938 C 5.210938 31.824219 5.003906 31.5625 4.796875 31.300781 C 4.503906 30.925781 4.1875 30.53125 3.734375 30.347656 C 3.289062 30.167969 2.671875 30.140625 2.507812 29.707031 C 2.464844 29.59375 2.464844 29.476562 2.441406 29.363281 C 2.308594 28.773438 1.628906 28.496094 1.101562 28.167969 C 0.75 27.949219 0.441406 27.671875 0.191406 27.351562 C 0.125 27.226562 0.0625 27.097656 0 26.972656 C 0.375 27.3125 0.828125 27.574219 1.316406 27.738281 C 1.65625 27.855469 2.011719 27.921875 2.339844 28.070312 C 2.664062 28.21875 2.964844 28.472656 3.042969 28.808594 C 3.085938 29 3.058594 29.214844 3.179688 29.371094 C 3.355469 29.59375 3.699219 29.570312 3.988281 29.589844 C 4.417969 29.621094 4.890625 29.867188 4.921875 30.273438 C 4.929688 30.402344 4.898438 30.535156 4.953125 30.648438 C 5.019531 30.78125 5.179688 30.839844 5.308594 30.921875 " fill-opacity="1" fill-rule="nonzero"/><path fill="#0c2660" d="M 9.882812 34.585938 C 10.085938 35.097656 10.1875 35.652344 9.984375 36.03125 C 9.550781 36.847656 8.40625 35.996094 8.179688 35.421875 C 7.941406 34.820312 8.058594 34.144531 8.238281 33.527344 C 8.308594 33.296875 8.382812 33.066406 8.421875 32.835938 C 8.578125 33.144531 8.664062 33.484375 8.660156 33.824219 C 8.660156 34.054688 8.625 34.28125 8.640625 34.507812 C 8.660156 34.734375 8.746094 34.96875 8.941406 35.105469 C 9.207031 35.292969 9.640625 35.203125 9.800781 34.921875 C 9.859375 34.816406 9.878906 34.703125 9.882812 34.585938 " fill-opacity="1" fill-rule="nonzero"/><path fill="#2640a1" d="M 9.882812 34.585938 C 9.878906 34.703125 9.859375 34.816406 9.800781 34.921875 C 9.640625 35.203125 9.207031 35.292969 8.941406 35.105469 C 8.746094 34.96875 8.660156 34.734375 8.640625 34.507812 C 8.625 34.28125 8.660156 34.054688 8.660156 33.824219 C 8.664062 33.484375 8.578125 33.144531 8.421875 32.835938 C 8.457031 32.652344 8.46875 32.46875 8.4375 32.285156 C 8.324219 31.574219 7.613281 31.035156 7.5625 30.320312 C 8.164062 31.015625 8.789062 31.761719 8.894531 32.65625 C 8.914062 32.808594 8.917969 32.964844 8.976562 33.109375 C 9.039062 33.253906 9.148438 33.371094 9.25 33.488281 C 9.457031 33.738281 9.710938 34.144531 9.882812 34.585938 " fill-opacity="1" fill-rule="nonzero"/><path fill="#2640a1" d="M 3.714844 33.976562 C 4.058594 34.582031 4.648438 35.054688 5.332031 35.273438 C 5.570312 35.34375 5.820312 35.390625 6.042969 35.496094 C 6.265625 35.601562 6.46875 35.785156 6.511719 36.015625 C 6.527344 36.097656 6.523438 36.179688 6.558594 36.25 C 6.660156 36.449219 6.960938 36.421875 7.1875 36.464844 C 7.59375 36.542969 7.875 36.984375 7.761719 37.359375 C 7.742188 37.421875 7.714844 37.488281 7.730469 37.550781 C 7.742188 37.601562 7.785156 37.644531 7.824219 37.683594 C 7.976562 37.847656 8.050781 38.136719 7.898438 38.28125 C 7.402344 37.734375 6.863281 37.226562 6.210938 36.867188 C 5.886719 36.6875 5.542969 36.546875 5.253906 36.328125 C 4.78125 35.96875 4.132812 34.886719 3.753906 34.089844 C 3.742188 34.054688 3.730469 34.015625 3.714844 33.976562 " fill-opacity="1" fill-rule="nonzero"/><path fill="#0c2660" d="M 7.898438 38.28125 C 7.882812 38.296875 7.863281 38.3125 7.839844 38.324219 C 7.765625 38.363281 7.675781 38.363281 7.589844 38.363281 C 7.210938 38.347656 6.832031 38.246094 6.503906 38.070312 C 5.949219 37.695312 5.640625 37.382812 5.15625 36.832031 C 4.464844 36.050781 4.097656 35.0625 3.753906 34.089844 C 4.132812 34.886719 4.78125 35.96875 5.253906 36.328125 C 5.542969 36.546875 5.886719 36.6875 6.210938 36.867188 C 6.863281 37.226562 7.402344 37.734375 7.898438 38.28125 " fill-opacity="1" fill-rule="nonzero"/><path fill="#2640a1" d="M 12.769531 22.0625 C 12.890625 21.601562 13.097656 21.167969 13.320312 20.746094 C 13.394531 21.503906 13.363281 22.261719 13.058594 22.957031 C 12.933594 23.246094 12.761719 23.519531 12.71875 23.828125 C 12.640625 24.371094 12.972656 24.917969 12.875 25.457031 C 12.792969 25.941406 12.394531 26.308594 12.097656 26.707031 C 11.9375 26.925781 11.804688 27.195312 11.773438 27.457031 C 11.5625 27.289062 11.382812 27.039062 11.257812 26.75 C 11.085938 26.355469 11.125 25.847656 11.464844 25.570312 C 11.625 25.441406 11.839844 25.371094 11.972656 25.21875 C 12.199219 24.960938 12.125 24.574219 11.96875 24.273438 C 11.8125 23.976562 11.585938 23.703125 11.519531 23.375 C 11.488281 23.21875 11.503906 23.039062 11.613281 22.917969 C 11.828125 22.691406 12.25 22.792969 12.5 22.601562 C 12.667969 22.476562 12.714844 22.257812 12.769531 22.0625 " fill-opacity="1" fill-rule="nonzero"/><path fill="#0c2660" d="M 13.59375 22.082031 C 13.613281 22.375 13.632812 22.664062 13.65625 22.953125 C 13.734375 24.054688 13.8125 25.175781 13.554688 26.25 C 13.46875 26.605469 13.339844 26.960938 13.101562 27.246094 C 12.648438 27.792969 12.15625 27.765625 11.773438 27.457031 C 11.804688 27.195312 11.9375 26.925781 12.097656 26.707031 C 12.394531 26.308594 12.792969 25.941406 12.875 25.457031 C 12.972656 24.917969 12.640625 24.371094 12.71875 23.828125 C 12.761719 23.519531 12.933594 23.246094 13.058594 22.957031 C 13.363281 22.261719 13.394531 21.503906 13.320312 20.746094 C 13.371094 20.648438 13.421875 20.550781 13.472656 20.457031 C 13.511719 21 13.554688 21.542969 13.59375 22.082031 " fill-opacity="1" fill-rule="nonzero"/><path fill="#2640a1" d="M 13.035156 28.695312 C 13.421875 28 13.351562 27.117188 12.933594 26.4375 C 13.089844 26.664062 13.226562 26.894531 13.355469 27.128906 C 14.0625 28.78125 13.46875 29.449219 13.714844 30.003906 C 13.871094 30.355469 14.191406 30.679688 14.113281 31.046875 C 14.070312 31.246094 13.921875 31.40625 13.804688 31.578125 C 13.660156 31.792969 13.570312 32.039062 13.539062 32.292969 C 13.441406 32.25 13.359375 32.15625 13.316406 31.992188 C 13.265625 31.78125 13.398438 31.574219 13.394531 31.359375 C 13.378906 30.867188 12.6875 30.652344 12.5 30.195312 C 12.394531 29.9375 12.464844 29.648438 12.59375 29.402344 C 12.71875 29.15625 12.902344 28.9375 13.035156 28.695312 " fill-opacity="1" fill-rule="nonzero"/><path fill="#0c2660" d="M 13.714844 30.003906 C 13.46875 29.449219 14.0625 28.78125 13.355469 27.128906 C 13.921875 28.15625 14.257812 29.246094 14.539062 30.40625 C 14.648438 30.851562 14.820312 31.210938 14.640625 31.65625 C 14.515625 31.960938 13.898438 32.453125 13.539062 32.292969 C 13.570312 32.039062 13.660156 31.792969 13.804688 31.578125 C 13.921875 31.40625 14.070312 31.246094 14.113281 31.046875 C 14.191406 30.679688 13.871094 30.355469 13.714844 30.003906 " fill-opacity="1" fill-rule="nonzero"/><path fill="#2640a1" d="M 19.417969 31.007812 C 19.933594 30.816406 20.421875 30.5 20.660156 30.027344 C 20.65625 30.054688 20.65625 30.078125 20.652344 30.105469 C 20.621094 30.1875 20.582031 30.273438 20.535156 30.367188 C 19.910156 31.660156 19.097656 32.511719 18.347656 32.613281 C 17.992188 32.660156 17.636719 32.796875 17.363281 33.015625 C 17.222656 33.125 17.113281 33.269531 16.964844 33.371094 C 16.601562 33.605469 16.117188 33.511719 15.675781 33.488281 C 15.453125 33.476562 15.226562 33.492188 15.003906 33.523438 C 15.007812 33.492188 15.007812 33.460938 15.011719 33.433594 C 15.039062 33.125 15.273438 32.863281 15.554688 32.71875 C 15.839844 32.574219 16.171875 32.53125 16.492188 32.515625 C 16.726562 32.503906 17.019531 32.46875 17.09375 32.257812 C 17.117188 32.179688 17.105469 32.09375 17.117188 32.011719 C 17.15625 31.703125 17.511719 31.53125 17.828125 31.441406 C 18.355469 31.285156 18.90625 31.199219 19.417969 31.007812 " fill-opacity="1" fill-rule="nonzero"/><path fill="#0c2660" d="M 20.535156 30.367188 C 20.582031 30.273438 20.621094 30.1875 20.652344 30.105469 C 20.53125 31.351562 19.769531 32.5 18.738281 33.28125 C 17.957031 33.871094 17.039062 34.265625 16.085938 34.511719 C 15.734375 34.605469 15.175781 34.824219 14.816406 34.660156 C 14.398438 34.464844 14.363281 33.992188 14.78125 33.753906 C 14.851562 33.710938 14.9375 33.675781 14.976562 33.605469 C 14.992188 33.578125 15 33.550781 15.003906 33.523438 C 15.226562 33.492188 15.453125 33.476562 15.675781 33.488281 C 16.117188 33.511719 16.601562 33.605469 16.964844 33.371094 C 17.113281 33.269531 17.222656 33.125 17.363281 33.015625 C 17.636719 32.796875 17.992188 32.660156 18.347656 32.613281 C 19.097656 32.511719 19.910156 31.660156 20.535156 30.367188 " fill-opacity="1" fill-rule="nonzero"/><path fill="#172874" d="M 16.589844 50.871094 L 15.765625 50.871094 L 15.765625 38.542969 C 15.765625 36.007812 17.839844 33.945312 20.390625 33.945312 L 23.550781 33.945312 C 26.101562 33.945312 28.175781 36.007812 28.175781 38.542969 L 28.175781 49.601562 L 27.351562 49.601562 L 27.351562 38.542969 C 27.351562 36.460938 25.644531 34.765625 23.550781 34.765625 L 20.390625 34.765625 C 18.292969 34.765625 16.589844 36.460938 16.589844 38.542969 L 16.589844 50.871094 " fill-opacity="1" fill-rule="nonzero"/><path fill="#061f4c" d="M 37.785156 50.148438 L 38.34375 50.148438 L 38.898438 42.417969 L 37.203125 42.417969 L 37.785156 50.148438 " fill-opacity="1" fill-rule="nonzero"/><path fill="#061f4c" d="M 42.683594 50 L 42.019531 50 C 42.019531 49.335938 41.476562 48.796875 40.8125 48.796875 L 35.398438 48.796875 C 34.734375 48.796875 34.191406 49.335938 34.191406 50 L 33.527344 50 C 33.527344 48.972656 34.367188 48.136719 35.398438 48.136719 L 40.8125 48.136719 C 41.84375 48.136719 42.683594 48.972656 42.683594 50 " fill-opacity="1" fill-rule="nonzero"/><path fill="#061f4c" d="M 42.761719 50.867188 L 41.941406 50.867188 C 41.777344 50.867188 41.644531 50.734375 41.644531 50.574219 L 41.644531 49.753906 C 41.644531 49.59375 41.777344 49.460938 41.941406 49.460938 L 42.761719 49.460938 C 42.925781 49.460938 43.058594 49.59375 43.058594 49.753906 L 43.058594 50.574219 C 43.058594 50.734375 42.925781 50.867188 42.761719 50.867188 " fill-opacity="1" fill-rule="nonzero"/><path fill="#061f4c" d="M 38.433594 51.476562 L 37.609375 51.476562 C 37.449219 51.476562 37.316406 51.34375 37.316406 51.179688 L 37.316406 50.363281 C 37.316406 50.199219 37.449219 50.066406 37.609375 50.066406 L 38.433594 50.066406 C 38.597656 50.066406 38.730469 50.199219 38.730469 50.363281 L 38.730469 51.179688 C 38.730469 51.34375 38.597656 51.476562 38.433594 51.476562 " fill-opacity="1" fill-rule="nonzero"/><path fill="#0c2660" d="M 38.523438 39.359375 L 41.332031 39.359375 C 43.652344 39.359375 45.539062 37.175781 45.539062 34.484375 L 46.007812 26.292969 C 46.078125 25.074219 45.246094 24.042969 44.191406 24.042969 L 36.097656 24.042969 C 35.433594 24.042969 34.882812 24.636719 34.839844 25.40625 L 34.316406 34.484375 C 34.316406 37.175781 36.203125 39.359375 38.523438 39.359375 " fill-opacity="1" fill-rule="nonzero"/><path fill="#2640a1" d="M 44.414062 24.042969 L 44.191406 24.042969 C 44.65625 24.457031 44.941406 25.117188 44.898438 25.851562 L 44.429688 34.042969 C 44.429688 36.734375 42.542969 38.917969 40.21875 38.917969 L 37.414062 38.917969 C 37.257812 38.917969 37.101562 38.90625 36.949219 38.886719 C 37.492188 39.1875 38.101562 39.359375 38.746094 39.359375 L 41.550781 39.359375 C 43.875 39.359375 45.761719 37.175781 45.761719 34.484375 L 46.230469 26.292969 C 46.300781 25.074219 45.46875 24.042969 44.414062 24.042969 " fill-opacity="1" fill-rule="nonzero"/><path fill="#0c2660" d="M 31.5 42.792969 L 43.105469 42.792969 C 43.652344 42.792969 44.09375 42.355469 44.09375 41.8125 L 44.09375 40.953125 C 44.09375 40.449219 43.679688 40.039062 43.171875 40.039062 L 30.515625 40.039062 L 30.515625 41.8125 C 30.515625 42.355469 30.957031 42.792969 31.5 42.792969 " fill-opacity="1" fill-rule="nonzero"/><path fill="#2640a1" d="M 43.058594 40.039062 L 41.726562 40.039062 C 42.296875 40.039062 42.761719 40.5 42.761719 41.066406 L 42.761719 41.691406 C 42.761719 42.300781 42.265625 42.792969 41.652344 42.792969 L 42.984375 42.792969 C 43.597656 42.792969 44.09375 42.300781 44.09375 41.691406 L 44.09375 41.066406 C 44.09375 40.5 43.628906 40.039062 43.058594 40.039062 " fill-opacity="1" fill-rule="nonzero"/><path fill="#e3a05f" d="M 37.714844 26.464844 L 35.429688 26.320312 C 35.347656 26.316406 35.347656 23.488281 35.351562 23.402344 L 35.152344 19.710938 C 35.15625 19.628906 35.226562 19.5625 35.308594 19.566406 L 37.953125 22.382812 C 37.941406 22.648438 37.976562 26.476562 37.714844 26.464844 " fill-opacity="1" fill-rule="nonzero"/><path fill="#0c2660" d="M 33.753906 19.828125 C 33.75 19.800781 33.746094 19.773438 33.761719 19.753906 C 33.785156 19.714844 33.839844 19.714844 33.886719 19.71875 C 34.101562 19.742188 34.347656 19.785156 34.472656 19.960938 C 34.554688 20.082031 34.5625 20.242188 34.570312 20.390625 C 34.578125 20.644531 34.585938 20.910156 34.492188 21.148438 C 34.417969 21.351562 34.359375 21.539062 34.113281 21.550781 C 34.027344 20.972656 33.820312 20.410156 33.753906 19.828125 " fill-opacity="1" fill-rule="nonzero"/><path fill="#ebb376" d="M 37.785156 21.722656 C 37.695312 23.289062 36.863281 24.519531 35.886719 24.476562 C 34.910156 24.433594 34.179688 23.128906 34.25 21.5625 C 34.320312 20 34.289062 19.5625 35.324219 19.425781 C 36.671875 19.246094 37.921875 19.402344 37.785156 21.722656 " fill-opacity="1" fill-rule="nonzero"/><path fill="#ebb376" d="M 38.359375 22.210938 C 38.34375 22.570312 38.035156 22.847656 37.675781 22.832031 C 37.3125 22.816406 37.035156 22.511719 37.050781 22.152344 C 37.066406 21.792969 37.375 21.515625 37.734375 21.53125 C 38.097656 21.546875 38.375 21.851562 38.359375 22.210938 " fill-opacity="1" fill-rule="nonzero"/><path fill="#172874" d="M 37.925781 18.773438 C 37.835938 18.601562 37.660156 18.328125 37.347656 18.191406 C 36.914062 18.003906 36.542969 18.082031 36.238281 18.203125 C 35.714844 18.414062 34.796875 18.796875 34.320312 18.785156 C 33.921875 18.773438 33.578125 18.605469 33.460938 18.519531 C 33.417969 18.601562 33.238281 18.992188 33.410156 19.445312 C 33.421875 19.476562 33.605469 19.929688 34.109375 20.140625 C 34.558594 20.332031 35.027344 20.234375 35.453125 20.140625 C 35.863281 20.054688 36.011719 19.976562 36.363281 19.96875 C 36.546875 19.964844 36.738281 19.953125 36.941406 20.046875 C 37.398438 19.746094 37.710938 19.277344 37.925781 18.773438 " fill-opacity="1" fill-rule="nonzero"/><path fill="#0c2660" d="M 38.515625 19.273438 C 38.367188 19.019531 38.101562 18.925781 37.957031 18.832031 C 37.949219 18.816406 37.933594 18.792969 37.925781 18.773438 C 37.710938 19.277344 37.398438 19.746094 36.941406 20.046875 C 36.992188 20.074219 37.042969 20.101562 37.097656 20.140625 C 37.410156 20.378906 37.496094 20.769531 37.5 20.855469 C 37.546875 21.238281 37.515625 21.589844 37.363281 22.183594 C 37.328125 22.320312 37.71875 22.234375 37.722656 22.242188 C 38.046875 21.867188 38.453125 21.414062 38.617188 20.617188 C 38.699219 20.207031 38.789062 19.734375 38.515625 19.273438 " fill-opacity="1" fill-rule="nonzero"/><path fill="#172874" d="M 33.996094 21.671875 C 33.871094 21.671875 33.773438 21.683594 33.722656 21.734375 C 33.6875 21.765625 33.667969 21.824219 33.667969 21.90625 C 33.667969 22.234375 33.9375 22.5 34.265625 22.5 C 34.597656 22.5 34.863281 22.234375 34.863281 21.90625 C 34.863281 21.824219 34.847656 21.765625 34.8125 21.734375 C 34.746094 21.667969 34.59375 21.671875 34.414062 21.675781 C 34.320312 21.679688 34.214844 21.679688 34.117188 21.675781 C 34.074219 21.675781 34.035156 21.671875 33.996094 21.671875 Z M 34.265625 22.648438 C 33.855469 22.648438 33.523438 22.316406 33.523438 21.90625 C 33.523438 21.78125 33.554688 21.691406 33.617188 21.628906 C 33.730469 21.519531 33.910156 21.523438 34.121094 21.527344 C 34.214844 21.53125 34.320312 21.53125 34.410156 21.527344 C 34.621094 21.523438 34.804688 21.519531 34.914062 21.628906 C 34.980469 21.691406 35.011719 21.78125 35.011719 21.90625 C 35.011719 22.316406 34.675781 22.648438 34.265625 22.648438 " fill-opacity="1" fill-rule="nonzero"/><path fill="#172874" d="M 35.820312 21.601562 C 35.679688 21.601562 35.5625 21.613281 35.5 21.671875 C 35.460938 21.710938 35.4375 21.78125 35.4375 21.878906 C 35.4375 22.253906 35.75 22.5625 36.128906 22.5625 C 36.507812 22.5625 36.816406 22.253906 36.816406 21.878906 C 36.816406 21.78125 36.796875 21.710938 36.753906 21.671875 C 36.675781 21.59375 36.5 21.597656 36.296875 21.601562 C 36.1875 21.605469 36.066406 21.605469 35.960938 21.601562 C 35.910156 21.601562 35.863281 21.601562 35.820312 21.601562 Z M 36.128906 22.710938 C 35.667969 22.710938 35.292969 22.335938 35.292969 21.878906 C 35.292969 21.738281 35.324219 21.636719 35.398438 21.566406 C 35.523438 21.445312 35.726562 21.449219 35.964844 21.457031 C 36.070312 21.457031 36.1875 21.457031 36.292969 21.457031 C 36.53125 21.449219 36.734375 21.445312 36.859375 21.566406 C 36.929688 21.636719 36.964844 21.738281 36.964844 21.878906 C 36.964844 22.335938 36.589844 22.710938 36.128906 22.710938 " fill-opacity="1" fill-rule="nonzero"/><path fill="#172874" d="M 37.890625 21.789062 L 36.746094 21.652344 L 36.761719 21.507812 L 37.90625 21.644531 L 37.890625 21.789062 " fill-opacity="1" fill-rule="nonzero"/><path fill="#172874" d="M 34.972656 21.988281 L 34.964844 21.839844 L 35.285156 21.824219 L 35.304688 21.894531 L 35.308594 21.96875 L 34.972656 21.988281 " fill-opacity="1" fill-rule="nonzero"/><path fill="#d1d3d5" d="M 25.3125 32.226562 C 25.738281 32.101562 26.164062 31.976562 26.566406 31.792969 C 26.960938 31.617188 27.328125 31.386719 27.710938 31.183594 C 29.019531 30.492188 30.554688 30.085938 31.519531 28.964844 C 32.164062 28.214844 32.496094 27.199219 33.289062 26.609375 C 33.441406 26.496094 33.640625 26.398438 33.8125 26.476562 C 34.035156 26.574219 34.050781 26.875 34.046875 27.117188 C 34.027344 27.898438 34.132812 28.683594 34.355469 29.433594 C 34.464844 29.796875 34.601562 30.160156 34.601562 30.539062 C 34.605469 30.613281 34.597656 30.691406 34.554688 30.753906 C 34.523438 30.796875 34.476562 30.824219 34.429688 30.851562 C 32.765625 31.863281 30.875 32.425781 29.003906 32.980469 C 28.277344 33.195312 27.550781 33.414062 26.804688 33.5625 C 25.824219 33.757812 24.824219 33.832031 23.828125 33.910156 C 23.53125 33.933594 23.191406 33.9375 22.996094 33.71875 C 22.871094 33.578125 22.78125 33.246094 22.859375 33.070312 C 22.957031 32.847656 23.222656 32.839844 23.453125 32.773438 C 24.074219 32.589844 24.691406 32.40625 25.3125 32.226562 " fill-opacity="1" fill-rule="nonzero"/><path fill="#ffffff" d="M 42.171875 27.054688 L 42.808594 33.644531 C 42.792969 34.445312 43.054688 35.746094 43.058594 36.542969 C 40.097656 36.558594 38.675781 36.980469 35.734375 37.371094 C 35.808594 35.789062 34.488281 31.785156 34.316406 31.328125 C 33.816406 30.003906 33.464844 28.84375 33.300781 28.089844 C 33.191406 27.566406 33.175781 27.148438 33.273438 26.628906 C 33.429688 26.417969 33.648438 26.261719 33.898438 26.179688 C 33.902344 26.179688 34.359375 26.027344 34.566406 25.945312 C 34.824219 25.730469 35.109375 25.46875 35.363281 25.253906 C 35.566406 25.550781 35.699219 25.738281 35.898438 26.035156 C 36 26.175781 36.144531 26.328125 36.296875 26.265625 C 36.351562 26.242188 36.628906 26.035156 36.667969 25.988281 C 37.386719 25.292969 37.503906 25.160156 37.929688 24.402344 C 38.066406 24.433594 39.53125 25.007812 39.820312 25.097656 C 40.148438 25.199219 41.335938 25.425781 41.671875 25.640625 C 41.671875 25.644531 41.503906 25.667969 41.503906 25.667969 C 41.980469 25.96875 42.144531 26.46875 42.171875 27.054688 " fill-opacity="1" fill-rule="nonzero"/><path fill="#d1d3d5" d="M 35.765625 27.15625 C 35.773438 27.179688 35.789062 27.199219 35.796875 27.21875 C 35.675781 27.324219 35.507812 27.550781 35.390625 27.652344 C 35.265625 27.261719 34.914062 26.527344 34.828125 26.34375 C 35.035156 26.636719 35.246094 26.933594 35.460938 27.222656 C 35.5625 27.199219 35.660156 27.179688 35.765625 27.15625 " fill-opacity="1" fill-rule="nonzero"/><path fill="#d1d3d5" d="M 39.191406 24.886719 C 39.316406 24.945312 37.378906 27.789062 37.355469 27.789062 C 37.199219 27.550781 36.941406 27.214844 36.785156 27.085938 C 36.792969 27.074219 36.796875 27.054688 36.800781 27.039062 C 36.914062 27.070312 37.125 27.1875 37.167969 27.15625 C 37.421875 26.964844 37.609375 26.71875 37.851562 26.484375 C 38.15625 26.183594 38.425781 25.84375 38.691406 25.511719 C 38.867188 25.292969 39.019531 25.105469 39.191406 24.886719 " fill-opacity="1" fill-rule="nonzero"/><path fill="#d1d3d5" d="M 43.058594 36.542969 C 43.054688 35.746094 42.792969 34.445312 42.808594 33.644531 L 42.171875 27.054688 C 42.160156 26.769531 42.113281 26.503906 42.011719 26.269531 C 40.523438 26.980469 39.65625 28.667969 39.972656 30.277344 C 40.511719 33.039062 40.472656 35.695312 37.71875 35.933594 C 35.882812 36.09375 34.980469 33.203125 34.539062 31.980469 C 34.960938 33.289062 35.792969 36.105469 35.734375 37.371094 C 38.675781 36.980469 40.097656 36.558594 43.058594 36.542969 " fill-opacity="1" fill-rule="nonzero"/><path fill="#66b4fb" d="M 35.472656 32.390625 L 36.996094 32.027344 C 36.976562 31.882812 36.960938 31.722656 36.941406 31.554688 L 35.484375 31.898438 C 35.480469 32.085938 35.476562 32.25 35.472656 32.390625 " fill-opacity="1" fill-rule="nonzero"/><path fill="#2640a1" d="M 35.484375 31.902344 L 36.941406 31.554688 C 36.921875 31.398438 36.90625 31.238281 36.886719 31.078125 L 35.503906 31.410156 C 35.496094 31.578125 35.488281 31.746094 35.484375 31.902344 " fill-opacity="1" fill-rule="nonzero"/><path fill="#2640a1" d="M 35.84375 28.402344 C 35.8125 28.570312 35.78125 28.742188 35.753906 28.914062 L 36.597656 28.710938 C 36.582031 28.550781 36.570312 28.394531 36.554688 28.234375 L 35.84375 28.402344 " fill-opacity="1" fill-rule="nonzero"/><path fill="#66b4fb" d="M 35.503906 31.410156 L 36.886719 31.078125 C 36.871094 30.914062 36.851562 30.753906 36.835938 30.605469 L 35.523438 30.917969 C 35.515625 31.082031 35.507812 31.246094 35.503906 31.410156 " fill-opacity="1" fill-rule="nonzero"/><path fill="#2640a1" d="M 35.46875 32.558594 C 35.527344 32.652344 35.585938 32.746094 35.644531 32.835938 L 37.066406 32.5 C 37.042969 32.378906 37.019531 32.214844 36.996094 32.027344 L 35.472656 32.390625 C 35.472656 32.449219 35.46875 32.511719 35.46875 32.558594 " fill-opacity="1" fill-rule="nonzero"/><path fill="#2640a1" d="M 35.523438 30.917969 L 36.835938 30.605469 C 36.8125 30.421875 36.792969 30.257812 36.773438 30.132812 L 35.554688 30.421875 C 35.542969 30.582031 35.53125 30.746094 35.523438 30.917969 " fill-opacity="1" fill-rule="nonzero"/><path fill="#66b4fb" d="M 36.523438 27.753906 L 35.953125 27.890625 C 35.914062 28.058594 35.878906 28.226562 35.847656 28.402344 L 36.554688 28.234375 C 36.542969 28.074219 36.535156 27.914062 36.523438 27.753906 " fill-opacity="1" fill-rule="nonzero"/><path fill="#66b4fb" d="M 35.671875 29.421875 L 36.648438 29.1875 C 36.628906 29.027344 36.609375 28.871094 36.597656 28.710938 L 35.753906 28.914062 C 35.722656 29.082031 35.695312 29.25 35.671875 29.421875 " fill-opacity="1" fill-rule="nonzero"/><path fill="#2640a1" d="M 36.503906 27.429688 L 36.558594 27.429688 C 36.757812 27.429688 36.917969 27.246094 36.917969 27.027344 C 36.917969 27.027344 36.8125 26.5 36.4375 26.484375 L 36.144531 26.484375 C 35.773438 26.46875 35.667969 27.027344 35.667969 27.027344 C 35.667969 27.246094 35.828125 27.429688 36.027344 27.429688 L 36.0625 27.429688 C 36.023438 27.574219 35.988281 27.730469 35.953125 27.890625 L 36.523438 27.753906 C 36.515625 27.644531 36.507812 27.535156 36.503906 27.429688 " fill-opacity="1" fill-rule="nonzero"/><path fill="#2640a1" d="M 35.613281 29.800781 C 35.609375 29.835938 35.605469 29.882812 35.597656 29.925781 L 36.707031 29.660156 C 36.683594 29.503906 36.664062 29.34375 36.648438 29.1875 L 35.667969 29.421875 C 35.652344 29.546875 35.628906 29.671875 35.613281 29.800781 " fill-opacity="1" fill-rule="nonzero"/><path fill="#66b4fb" d="M 35.554688 30.421875 L 36.773438 30.132812 C 36.773438 30.128906 36.773438 30.121094 36.773438 30.117188 C 36.746094 29.96875 36.726562 29.8125 36.707031 29.660156 L 35.597656 29.925781 C 35.582031 30.074219 35.566406 30.238281 35.554688 30.421875 " fill-opacity="1" fill-rule="nonzero"/><path fill="#ebb376" d="M 36.582031 33.441406 C 36.609375 32.617188 35.195312 32.636719 34.898438 32.671875 C 34.308594 32.734375 33.570312 33 33.417969 33.515625 C 33.394531 33.601562 36.558594 34.078125 36.582031 33.441406 " fill-opacity="1" fill-rule="nonzero"/><path fill="#ffffff" d="M 40.464844 25.980469 C 40.550781 25.894531 40.722656 25.722656 41.011719 25.617188 C 41.09375 25.585938 41.175781 25.566406 41.253906 25.550781 C 41.574219 25.496094 41.882812 25.699219 41.984375 26.003906 C 42.160156 26.535156 44.085938 30.5625 44.488281 31.460938 C 44.648438 31.820312 44.773438 32.117188 44.851562 32.308594 C 44.921875 32.449219 45.011719 32.679688 45.035156 32.972656 C 45.046875 33.128906 45.066406 33.378906 44.972656 33.574219 C 44.808594 33.925781 44.289062 34.105469 43.699219 34.058594 C 40.78125 34.058594 38.980469 34.011719 36.0625 34.011719 C 36.113281 33.917969 36.222656 33.671875 36.183594 33.347656 C 36.144531 32.988281 35.953125 32.757812 35.882812 32.683594 C 36.207031 32.605469 38.15625 31.992188 41.8125 31.726562 C 41.527344 31.453125 41.003906 30.964844 40.644531 30.386719 C 40.289062 29.816406 39.824219 29.070312 39.796875 28.03125 C 39.792969 27.972656 39.773438 26.667969 40.464844 25.980469 " fill-opacity="1" fill-rule="nonzero"/><path fill="#d1d3d5" d="M 32.675781 50.59375 L 30.3125 50.316406 L 31.214844 49.253906 L 32.316406 48.964844 L 32.675781 50.59375 " fill-opacity="1" fill-rule="nonzero"/><path fill="#000000" d="M 30.710938 49.8125 C 30.476562 49.957031 30.136719 50.136719 29.878906 50.277344 C 29.335938 50.570312 28.976562 50.699219 28.433594 50.859375 C 28.246094 50.914062 28.113281 51.117188 28.121094 51.34375 C 28.125 51.414062 28.125 51.476562 28.125 51.523438 C 29.742188 51.46875 32.492188 51.566406 32.558594 51.523438 C 32.738281 51.410156 32.683594 50.851562 32.558594 50.242188 C 32.359375 50.269531 32.109375 50.28125 31.820312 50.242188 C 31.324219 50.167969 30.945312 49.96875 30.710938 49.8125 " fill-opacity="1" fill-rule="nonzero"/><path fill="#172874" d="M 40.597656 37.210938 C 40.515625 36.847656 40.417969 36.488281 40.292969 36.265625 C 40.28125 36.25 39.515625 36.265625 38.472656 36.292969 C 35.65625 36.390625 26.339844 36.585938 25.53125 37.945312 C 25.347656 38.253906 25.351562 38.636719 25.398438 38.992188 C 25.476562 39.574219 25.625 40.15625 25.894531 40.679688 C 27.046875 42.898438 29.0625 46.277344 30.121094 49.070312 C 30.234375 49.371094 30.363281 49.691406 30.628906 49.871094 C 30.886719 50.050781 31.335938 50.011719 31.890625 49.949219 C 32.113281 49.925781 32.300781 49.839844 32.40625 49.648438 C 32.480469 49.519531 32.492188 49.296875 32.488281 49.152344 C 32.460938 47.34375 32.339844 45.5625 31.867188 43.933594 C 31.535156 42.796875 31.253906 42.214844 30.90625 41.429688 C 31.886719 41.695312 33.058594 41.820312 34.078125 41.832031 C 35.171875 41.84375 36.285156 41.816406 37.347656 41.542969 C 39.804688 40.910156 40.871094 38.4375 40.597656 37.210938 " fill-opacity="1" fill-rule="nonzero"/><path fill="#12266b" d="M 39.796875 39.566406 C 39.121094 40.09375 38.472656 40.253906 37.714844 40.433594 C 37.414062 40.507812 36.113281 40.804688 34.425781 40.601562 C 33.492188 40.488281 32.753906 40.253906 32.136719 40.0625 C 31.429688 39.839844 30.984375 39.644531 30.804688 39.566406 C 30.292969 39.335938 29.871094 39.097656 29.558594 38.902344 C 29.847656 39.382812 30.140625 39.863281 30.429688 40.351562 C 30.703125 40.8125 31.140625 41.503906 31.089844 41.390625 C 32.074219 41.65625 33.246094 41.78125 34.265625 41.792969 C 35.359375 41.804688 36.472656 41.777344 37.53125 41.503906 C 39.148438 41.085938 40.160156 39.875 40.585938 38.746094 C 40.386719 39.019531 40.132812 39.304688 39.796875 39.566406 " fill-opacity="1" fill-rule="nonzero"/><path fill="#d1d3d5" d="M 35.234375 50.414062 L 33.527344 50.703125 L 33.527344 49.625 L 34.941406 48.425781 L 35.234375 50.414062 " fill-opacity="1" fill-rule="nonzero"/><path fill="#000000" d="M 33.355469 49.8125 C 33.121094 49.957031 32.78125 50.136719 32.523438 50.277344 C 31.980469 50.570312 31.621094 50.699219 31.078125 50.859375 C 30.890625 50.914062 30.757812 51.117188 30.765625 51.34375 C 30.765625 51.414062 30.769531 51.476562 30.769531 51.523438 C 32.386719 51.46875 35.132812 51.566406 35.203125 51.523438 C 35.382812 51.410156 35.324219 50.851562 35.203125 50.242188 C 35.003906 50.269531 34.75 50.28125 34.464844 50.242188 C 33.96875 50.167969 33.589844 49.96875 33.355469 49.8125 " fill-opacity="1" fill-rule="nonzero"/><path fill="#2640a1" d="M 43.351562 37.171875 C 43.269531 36.808594 43.171875 36.445312 43.046875 36.226562 C 43.035156 36.210938 42.269531 36.226562 41.226562 36.253906 C 38.410156 36.351562 29.09375 36.542969 28.285156 37.90625 C 28.101562 38.214844 28.105469 38.597656 28.152344 38.953125 C 28.230469 39.535156 28.375 40.117188 28.648438 40.636719 C 29.800781 42.855469 31.816406 46.234375 32.875 49.03125 C 32.988281 49.332031 33.117188 49.648438 33.378906 49.832031 C 33.640625 50.011719 34.089844 49.972656 34.644531 49.910156 C 34.867188 49.886719 35.054688 49.800781 35.160156 49.609375 C 35.234375 49.480469 35.242188 49.257812 35.242188 49.109375 C 35.214844 47.304688 35.09375 45.519531 34.621094 43.894531 C 34.289062 42.757812 34.007812 42.175781 33.660156 41.390625 C 34.640625 41.65625 35.8125 41.78125 36.832031 41.792969 C 37.925781 41.804688 39.039062 41.777344 40.101562 41.503906 C 42.558594 40.871094 43.621094 38.398438 43.351562 37.171875 " fill-opacity="1" fill-rule="nonzero"/><path fill="#1f3c99" d="M 42.351562 39.566406 C 41.675781 40.09375 41.023438 40.253906 40.269531 40.433594 C 39.96875 40.507812 38.667969 40.804688 36.980469 40.601562 C 36.042969 40.488281 35.308594 40.253906 34.691406 40.0625 C 33.984375 39.839844 33.539062 39.644531 33.359375 39.566406 C 32.847656 39.335938 32.425781 39.097656 32.109375 38.902344 C 32.402344 39.382812 32.695312 39.863281 32.984375 40.351562 C 33.257812 40.8125 33.695312 41.503906 33.644531 41.390625 C 34.628906 41.65625 35.800781 41.78125 36.820312 41.792969 C 37.914062 41.804688 39.027344 41.777344 40.085938 41.503906 C 41.703125 41.085938 42.714844 39.875 43.140625 38.746094 C 42.941406 39.019531 42.6875 39.304688 42.351562 39.566406 " fill-opacity="1" fill-rule="nonzero"/><path fill="#66b4fb" d="M 42.035156 51.460938 L 41.234375 51.460938 L 41.234375 38.542969 C 41.234375 36.015625 43.304688 33.957031 45.847656 33.957031 L 49.007812 33.957031 C 51.550781 33.957031 53.621094 36.015625 53.621094 38.542969 L 53.621094 50.191406 L 52.820312 50.191406 L 52.820312 38.542969 C 52.820312 36.453125 51.109375 34.753906 49.007812 34.753906 L 45.847656 34.753906 C 43.746094 34.753906 42.035156 36.453125 42.035156 38.542969 L 42.035156 51.460938 " fill-opacity="1" fill-rule="nonzero"/><path fill="#2640a1" d="M 12.699219 33.867188 L 12.699219 34.734375 L 41.375 34.734375 C 41.375 34.445312 41.375 34.15625 41.375 33.867188 L 12.699219 33.867188 " fill-opacity="1" fill-rule="nonzero"/><path fill="#9adffd" d="M 49.324219 33.867188 C 49.324219 34.148438 49.324219 34.441406 49.324219 34.734375 L 53.777344 34.734375 C 53.777344 34.4375 53.777344 34.148438 53.777344 33.867188 L 49.324219 33.867188 " fill-opacity="1" fill-rule="nonzero"/><path fill="#66b4fb" d="M 38.628906 33.867188 C 38.628906 34.15625 38.628906 34.445312 38.628906 34.734375 L 49.324219 34.734375 C 49.324219 34.441406 49.324219 34.148438 49.324219 33.867188 L 38.628906 33.867188 " fill-opacity="1" fill-rule="nonzero"/><path fill="#66b4fb" d="M 55.949219 33.867188 L 53.777344 33.867188 C 53.777344 34.148438 53.777344 34.4375 53.777344 34.734375 L 55.949219 34.734375 L 55.949219 33.867188 " fill-opacity="1" fill-rule="nonzero"/><path fill="#edb954" d="M 51.652344 33.890625 L 51.449219 33.890625 C 50.683594 33.890625 50.066406 33.277344 50.066406 32.519531 L 50.066406 30.625 L 53.035156 30.625 L 53.035156 32.519531 C 53.035156 33.277344 52.417969 33.890625 51.652344 33.890625 " fill-opacity="1" fill-rule="nonzero"/><path fill="#efddad" d="M 52.929688 30.625 L 52.929688 32.417969 C 52.929688 33.175781 52.347656 33.796875 51.605469 33.875 C 51.65625 33.882812 51.707031 33.890625 51.761719 33.890625 C 52.582031 33.890625 53.246094 33.230469 53.246094 32.417969 L 53.246094 30.625 L 52.929688 30.625 " fill-opacity="1" fill-rule="nonzero"/><path fill="#edb954" d="M 52.980469 31.308594 C 52.632812 31.308594 52.347656 31.617188 52.347656 31.996094 C 52.347656 32.371094 52.632812 32.679688 52.980469 32.679688 C 53.332031 32.679688 53.617188 32.371094 53.617188 31.996094 C 53.617188 31.617188 53.332031 31.308594 52.980469 31.308594 Z M 52.980469 32.996094 C 52.457031 32.996094 52.027344 32.546875 52.027344 31.996094 C 52.027344 31.441406 52.457031 30.992188 52.980469 30.992188 C 53.507812 30.992188 53.9375 31.441406 53.9375 31.996094 C 53.9375 32.546875 53.507812 32.996094 52.980469 32.996094 " fill-opacity="1" fill-rule="nonzero"/><path fill="#172874" d="M 35.15625 34.058594 L 21.824219 34.058594 C 21.679688 34.058594 21.558594 33.941406 21.558594 33.796875 L 21.558594 33.730469 C 21.558594 33.582031 21.679688 33.464844 21.824219 33.464844 L 35.15625 33.464844 C 35.300781 33.464844 35.421875 33.582031 35.421875 33.730469 L 35.421875 33.796875 C 35.421875 33.941406 35.300781 34.058594 35.15625 34.058594 " fill-opacity="1" fill-rule="nonzero"/><path fill="#9adffd" d="M 31.308594 33.734375 L 21.863281 33.734375 C 21.417969 33.734375 21.050781 33.375 21.050781 32.941406 L 21.050781 27.585938 C 21.050781 27.152344 21.417969 26.792969 21.863281 26.792969 L 31.308594 26.792969 C 31.753906 26.792969 32.121094 27.152344 32.121094 27.585938 L 32.121094 32.941406 C 32.121094 33.375 31.753906 33.734375 31.308594 33.734375 " fill-opacity="1" fill-rule="nonzero"/><path fill="#66b4fb" d="M 31.003906 33.734375 L 21.558594 33.734375 C 21.113281 33.734375 20.746094 33.375 20.746094 32.941406 L 20.746094 27.585938 C 20.746094 27.152344 21.113281 26.792969 21.558594 26.792969 L 31.003906 26.792969 C 31.449219 26.792969 31.816406 27.152344 31.816406 27.585938 L 31.816406 32.941406 C 31.816406 33.375 31.449219 33.734375 31.003906 33.734375 " fill-opacity="1" fill-rule="nonzero"/><g clip-path="url(#3210ccfa16)"><path fill="#e8e8e8" d="M 23.800781 8.5625 C 20.8125 8.5625 18.394531 10.96875 18.394531 13.9375 L 23.640625 13.9375 L 23.640625 19.304688 C 23.695312 19.308594 23.746094 19.3125 23.800781 19.3125 C 26.785156 19.3125 29.207031 16.90625 29.207031 13.9375 C 29.207031 10.96875 26.785156 8.5625 23.800781 8.5625 " fill-opacity="1" fill-rule="nonzero"/><path fill="#000000" d="M 23.800781 8.632812 C 20.859375 8.632812 18.46875 11.011719 18.46875 13.9375 C 18.46875 16.863281 20.859375 19.238281 23.800781 19.238281 C 26.742188 19.238281 29.132812 16.863281 29.132812 13.9375 C 29.132812 11.011719 26.742188 8.632812 23.800781 8.632812 Z M 23.800781 19.386719 C 20.777344 19.386719 18.320312 16.941406 18.320312 13.9375 C 18.320312 10.933594 20.777344 8.488281 23.800781 8.488281 C 26.820312 8.488281 29.28125 10.933594 29.28125 13.9375 C 29.28125 16.941406 26.820312 19.386719 23.800781 19.386719 " fill-opacity="1" fill-rule="nonzero"/></g><path fill="#000000" d="M 23.972656 10.089844 L 23.628906 10.089844 L 23.628906 9.191406 L 23.972656 9.191406 L 23.972656 10.089844 " fill-opacity="1" fill-rule="nonzero"/><path fill="#000000" d="M 23.972656 18.65625 L 23.628906 18.65625 L 23.628906 17.757812 L 23.972656 17.757812 L 23.972656 18.65625 " fill-opacity="1" fill-rule="nonzero"/><path fill="#000000" d="M 27.65625 14.09375 L 27.65625 13.753906 L 28.558594 13.753906 L 28.558594 14.09375 L 27.65625 14.09375 " fill-opacity="1" fill-rule="nonzero"/><path fill="#000000" d="M 19.042969 14.09375 L 19.042969 13.753906 L 19.945312 13.753906 L 19.945312 14.09375 L 19.042969 14.09375 " fill-opacity="1" fill-rule="nonzero"/><path fill="#000000" d="M 24.332031 13.9375 C 24.332031 14.183594 24.128906 14.386719 23.878906 14.386719 C 23.628906 14.386719 23.429688 14.183594 23.429688 13.9375 C 23.429688 13.691406 23.628906 13.488281 23.878906 13.488281 C 24.128906 13.488281 24.332031 13.691406 24.332031 13.9375 " fill-opacity="1" fill-rule="nonzero"/><path fill="#000000" d="M 23.863281 14.105469 L 21.226562 12.292969 L 21.394531 12.050781 L 23.894531 13.769531 L 27.714844 12.039062 L 27.835938 12.304688 L 23.863281 14.105469 " fill-opacity="1" fill-rule="nonzero"/></svg>