<svg xmlns="http://www.w3.org/2000/svg" xmlns:xlink="http://www.w3.org/1999/xlink" width="80" zoomAndPan="magnify" viewBox="0 0 60 60" height="80" preserveAspectRatio="xMidYMid meet" version="1.0"><defs><clipPath id="66c7452e9b"><path d="M 31 5.621094 L 44 5.621094 L 44 12 L 31 12 Z M 31 5.621094 " clip-rule="nonzero"/></clipPath><clipPath id="5f76e72abf"><path d="M 0 45 L 60 45 L 60 47.621094 L 0 47.621094 Z M 0 45 " clip-rule="nonzero"/></clipPath><clipPath id="6c94f829fb"><path d="M 0 47 L 60 47 L 60 47.601562 L 0 47.601562 Z M 0 47 " clip-rule="nonzero"/></clipPath></defs><path fill="#d7d2dd" d="M 33.238281 25.769531 L 34.203125 25.597656 C 33.859375 25.5625 33.523438 25.621094 33.238281 25.769531 " fill-opacity="1" fill-rule="nonzero"/><path fill="#d7d2dd" d="M 32.902344 32.097656 L 32.730469 26.183594 L 29.203125 29.683594 L 30.519531 34.460938 L 32.902344 32.097656 " fill-opacity="1" fill-rule="nonzero"/><path fill="#f3ac71" d="M 38.824219 27.902344 L 38.84375 27.992188 L 39.117188 28.078125 L 39.011719 27.945312 L 39.695312 27.398438 L 39.125 27.398438 L 39.125 24.324219 C 39.089844 24.351562 39.058594 24.382812 39.027344 24.410156 L 39.027344 27.609375 L 38.824219 27.902344 " fill-opacity="1" fill-rule="nonzero"/><path fill="#f3ac71" d="M 41.300781 25.195312 C 40.609375 25.316406 39.886719 25.394531 39.199219 25.269531 L 39.195312 25.269531 C 39.152344 25.261719 39.125 25.222656 39.125 25.179688 L 39.125 27.398438 L 39.695312 27.398438 L 42.972656 24.78125 C 42.4375 24.96875 41.867188 25.101562 41.300781 25.195312 " fill-opacity="1" fill-rule="nonzero"/><path fill="#d6562b" d="M 39.195312 25.269531 L 39.199219 25.269531 C 39.886719 25.394531 40.609375 25.316406 41.300781 25.195312 C 41.867188 25.101562 42.4375 24.96875 42.972656 24.78125 L 43.535156 24.332031 L 43.535156 21.285156 C 42.738281 22.453125 41.457031 23.292969 39.933594 23.527344 C 39.648438 23.570312 39.378906 23.601562 39.125 23.625 L 39.125 25.179688 C 39.125 25.222656 39.152344 25.261719 39.195312 25.269531 " fill-opacity="1" fill-rule="nonzero"/><path fill="#eae5ee" d="M 43.246094 42.015625 C 42.347656 41.953125 41.425781 42.183594 40.675781 42.683594 C 40.4375 42.839844 40.175781 43.035156 39.894531 42.980469 C 39.65625 42.933594 39.546875 42.566406 39.691406 42.433594 C 39.570312 42.492188 39.445312 42.550781 39.324219 42.605469 C 39.582031 42.742188 39.757812 43.015625 39.757812 43.324219 L 39.757812 44.507812 C 39.757812 44.855469 39.539062 45.152344 39.230469 45.269531 L 47.722656 45.269531 L 48.058594 42.492188 C 45.820312 43.21875 43.902344 43.917969 43.902344 43.917969 L 43.246094 42.015625 " fill-opacity="1" fill-rule="nonzero"/><path fill="#eae5ee" d="M 38.261719 42.375 C 38.273438 42.148438 38.402344 41.945312 38.527344 41.753906 C 38.117188 42.007812 37.707031 42.257812 37.300781 42.511719 L 38.269531 42.511719 C 38.261719 42.464844 38.257812 42.421875 38.261719 42.375 " fill-opacity="1" fill-rule="nonzero"/><path fill="#eae5ee" d="M 32.902344 32.097656 L 33.203125 42.511719 L 36.253906 42.511719 C 36.277344 42.382812 36.351562 42.246094 36.429688 42.136719 C 36.75 41.683594 37.074219 41.234375 37.394531 40.785156 C 36.449219 40.96875 35.742188 42.027344 34.785156 41.90625 C 34.625 41.886719 34.429688 41.773438 34.464844 41.613281 C 34.480469 41.535156 34.554688 41.476562 34.621094 41.429688 C 35.566406 40.738281 36.511719 40.046875 37.457031 39.355469 C 37.589844 39.257812 37.722656 39.160156 37.878906 39.113281 C 38.316406 38.972656 38.808594 39.253906 39.253906 39.128906 C 40.5625 38.757812 41.796875 39.324219 43.121094 39.585938 L 48.636719 37.765625 L 49.058594 34.3125 L 46.527344 28.933594 C 46.171875 28.175781 46.824219 27.121094 47.988281 26.578125 C 48.355469 26.410156 48.726562 26.3125 49.078125 26.277344 L 44.5625 24.820312 L 45.007812 25.167969 L 41.546875 31.121094 L 39.117188 28.078125 L 38.84375 27.992188 L 38.824219 27.902344 L 37.082031 30.425781 L 36.390625 25.65625 L 37.382812 25.035156 L 34.203125 25.597656 L 33.238281 25.769531 L 32.71875 25.859375 L 32.730469 26.183594 L 32.902344 32.097656 " fill-opacity="1" fill-rule="nonzero"/><path fill="#d7d2dd" d="M 42.972656 24.78125 L 39.695312 27.398438 L 39.011719 27.945312 L 39.117188 28.078125 L 41.546875 31.121094 L 45.007812 25.167969 L 44.5625 24.820312 L 43.738281 24.171875 L 43.535156 24.332031 L 42.972656 24.78125 " fill-opacity="1" fill-rule="nonzero"/><path fill="#d7d2dd" d="M 37.082031 30.425781 L 38.824219 27.902344 L 39.027344 27.609375 L 39.027344 24.007812 L 37.382812 25.035156 L 36.390625 25.65625 L 37.082031 30.425781 " fill-opacity="1" fill-rule="nonzero"/><path fill="#c35a41" d="M 33.8125 16.285156 L 33.433594 13.355469 L 33.4375 13.355469 C 33.367188 12.613281 33.460938 11.890625 33.691406 11.222656 C 33.464844 11.496094 33.152344 11.503906 32.976562 11.21875 C 32.472656 12.621094 32.707031 14.21875 33.15625 15.601562 C 33.242188 15.859375 33.332031 16.117188 33.433594 16.371094 C 33.550781 16.292969 33.683594 16.269531 33.8125 16.285156 " fill-opacity="1" fill-rule="nonzero"/><path fill="#f3ac71" d="M 34.183594 19.121094 L 34.105469 18.53125 C 33.496094 18.0625 33.433594 17.257812 33.746094 17.015625 C 33.796875 16.976562 33.847656 16.953125 33.898438 16.941406 L 33.8125 16.285156 C 33.683594 16.269531 33.550781 16.292969 33.433594 16.371094 C 33.3125 16.453125 33.207031 16.585938 33.121094 16.796875 C 32.757812 17.679688 33.234375 18.632812 34.1875 19.152344 L 34.183594 19.121094 " fill-opacity="1" fill-rule="nonzero"/><path fill="#e37748" d="M 34.105469 18.53125 L 33.898438 16.941406 C 33.847656 16.953125 33.796875 16.976562 33.746094 17.015625 C 33.433594 17.257812 33.496094 18.0625 34.105469 18.53125 " fill-opacity="1" fill-rule="nonzero"/><path fill="#f3ac71" d="M 41.449219 10.492188 C 41.234375 10.179688 41.199219 9.929688 41.292969 9.734375 C 40.910156 9.492188 40.5 9.316406 40.054688 9.328125 C 39.144531 9.355469 38.5 10.113281 37.816406 10.605469 C 36.734375 11.390625 36.097656 10.96875 34.929688 10.523438 C 34.691406 10.429688 34.410156 10.339844 34.1875 10.464844 C 33.996094 10.574219 33.917969 10.804688 33.828125 11.003906 C 33.789062 11.089844 33.742188 11.164062 33.691406 11.222656 C 33.460938 11.890625 33.367188 12.613281 33.4375 13.355469 L 42.660156 12.175781 C 42.605469 11.898438 42.507812 11.636719 42.339844 11.410156 C 42.082031 11.070312 41.6875 10.847656 41.449219 10.492188 " fill-opacity="1" fill-rule="nonzero"/><path fill="#f3ac71" d="M 39.550781 21.945312 L 39.535156 21.964844 C 39.511719 21.980469 39.492188 22 39.46875 22.019531 L 39.433594 22.042969 C 39.414062 22.058594 39.394531 22.074219 39.371094 22.089844 C 39.359375 22.097656 39.347656 22.105469 39.335938 22.113281 C 39.3125 22.128906 39.289062 22.144531 39.265625 22.15625 L 39.230469 22.175781 C 39.191406 22.199219 39.15625 22.21875 39.113281 22.234375 L 39.101562 22.238281 C 39.066406 22.257812 39.027344 22.273438 38.988281 22.285156 C 38.976562 22.292969 38.960938 22.296875 38.945312 22.300781 C 38.917969 22.3125 38.886719 22.320312 38.851562 22.332031 C 38.835938 22.335938 38.820312 22.339844 38.800781 22.347656 C 38.769531 22.355469 38.734375 22.363281 38.699219 22.371094 C 38.683594 22.375 38.667969 22.378906 38.652344 22.382812 C 38.597656 22.394531 38.546875 22.402344 38.488281 22.410156 C 38.433594 22.417969 38.378906 22.425781 38.324219 22.429688 C 38.308594 22.429688 38.292969 22.433594 38.273438 22.433594 C 38.238281 22.4375 38.203125 22.4375 38.167969 22.4375 C 38.148438 22.4375 38.128906 22.4375 38.113281 22.4375 C 38.082031 22.4375 38.046875 22.4375 38.019531 22.4375 C 38 22.4375 37.980469 22.433594 37.964844 22.433594 C 37.933594 22.429688 37.902344 22.429688 37.871094 22.425781 C 37.855469 22.421875 37.839844 22.421875 37.824219 22.417969 C 37.78125 22.414062 37.738281 22.40625 37.695312 22.398438 L 37.679688 22.394531 C 37.644531 22.386719 37.609375 22.375 37.574219 22.367188 C 37.558594 22.363281 37.546875 22.359375 37.53125 22.351562 C 37.507812 22.347656 37.480469 22.339844 37.457031 22.328125 C 37.441406 22.324219 37.429688 22.316406 37.414062 22.3125 C 37.390625 22.304688 37.371094 22.292969 37.347656 22.285156 C 37.335938 22.277344 37.320312 22.269531 37.304688 22.265625 C 37.285156 22.253906 37.261719 22.242188 37.242188 22.230469 C 37.230469 22.226562 37.21875 22.21875 37.207031 22.210938 C 37.175781 22.195312 37.144531 22.175781 37.117188 22.15625 L 37.085938 22.132812 C 37.066406 22.121094 37.046875 22.109375 37.03125 22.09375 C 37.015625 22.085938 37.003906 22.074219 36.992188 22.0625 C 36.976562 22.050781 36.964844 22.039062 36.949219 22.027344 C 36.9375 22.015625 36.925781 22.003906 36.910156 21.992188 C 36.898438 21.980469 36.886719 21.96875 36.875 21.957031 C 36.863281 21.945312 36.851562 21.933594 36.839844 21.921875 L 36.832031 21.914062 C 36.363281 21.421875 36.265625 20.757812 36.265625 20.757812 L 40.027344 20.21875 C 40.027344 20.21875 40.171875 20.898438 39.875 21.507812 L 39.875 21.511719 C 39.859375 21.535156 39.847656 21.5625 39.832031 21.585938 L 39.816406 21.617188 C 39.804688 21.636719 39.792969 21.652344 39.78125 21.671875 L 39.757812 21.707031 C 39.746094 21.722656 39.734375 21.742188 39.722656 21.757812 L 39.695312 21.792969 C 39.679688 21.808594 39.667969 21.824219 39.652344 21.84375 L 39.625 21.871094 C 39.601562 21.898438 39.578125 21.921875 39.550781 21.945312 Z M 43.535156 21.285156 C 44.097656 20.46875 44.417969 19.488281 44.410156 18.441406 C 44.144531 18.867188 43.824219 19.25 43.429688 19.566406 C 43.53125 19.167969 43.554688 18.761719 43.523438 18.351562 L 43.316406 18.378906 C 43.164062 18.457031 43.007812 18.527344 42.839844 18.589844 L 42.835938 18.4375 L 37.210938 19.160156 C 37.21875 19.191406 37.21875 19.222656 37.230469 19.25 L 37.246094 19.292969 L 37.25 19.316406 L 37.261719 19.335938 C 37.351562 19.566406 37.546875 19.769531 37.785156 19.925781 C 37.714844 19.914062 37.644531 19.894531 37.574219 19.867188 C 37.539062 19.855469 37.507812 19.835938 37.472656 19.820312 C 37.441406 19.800781 37.410156 19.785156 37.378906 19.765625 C 37.253906 19.683594 37.140625 19.570312 37.0625 19.433594 C 37.023438 19.367188 36.988281 19.292969 36.96875 19.214844 L 36.960938 19.191406 L 34.238281 19.539062 C 34.59375 21.980469 35.3125 23.957031 39.125 23.625 C 39.378906 23.601562 39.648438 23.570312 39.933594 23.527344 C 41.457031 23.292969 42.738281 22.453125 43.535156 21.285156 " fill-opacity="1" fill-rule="nonzero"/><path fill="#f3ac71" d="M 43.316406 18.378906 L 43.523438 18.351562 C 43.523438 18.320312 43.519531 18.289062 43.515625 18.261719 C 43.453125 18.300781 43.382812 18.339844 43.316406 18.378906 " fill-opacity="1" fill-rule="nonzero"/><path fill="#f3ac71" d="M 34.933594 14.226562 C 35.132812 14.214844 35.332031 14.257812 35.507812 14.367188 C 35.597656 14.414062 35.675781 14.488281 35.757812 14.554688 C 35.832031 14.632812 35.902344 14.714844 35.964844 14.808594 C 35.871094 14.785156 35.785156 14.75 35.699219 14.722656 C 35.613281 14.703125 35.53125 14.667969 35.449219 14.652344 C 35.285156 14.609375 35.128906 14.59375 34.976562 14.605469 C 34.820312 14.613281 34.675781 14.667969 34.527344 14.738281 C 34.382812 14.816406 34.238281 14.917969 34.089844 15.046875 C 34.191406 14.59375 34.539062 14.257812 34.933594 14.226562 Z M 39.476562 15.679688 C 39.710938 15.652344 39.929688 15.851562 39.964844 16.125 C 40 16.398438 39.839844 16.644531 39.605469 16.675781 C 39.371094 16.707031 39.152344 16.507812 39.117188 16.234375 C 39.082031 15.957031 39.242188 15.710938 39.476562 15.679688 Z M 39.835938 13.835938 C 39.953125 13.878906 40.054688 13.953125 40.15625 14.015625 C 40.25 14.09375 40.339844 14.171875 40.417969 14.261719 C 40.296875 14.246094 40.1875 14.210938 40.078125 14.1875 C 39.964844 14.167969 39.859375 14.136719 39.75 14.125 C 39.539062 14.089844 39.332031 14.082031 39.132812 14.097656 C 38.933594 14.109375 38.738281 14.171875 38.542969 14.25 C 38.347656 14.332031 38.160156 14.441406 37.960938 14.578125 C 38.105469 14.113281 38.578125 13.765625 39.09375 13.714844 C 39.351562 13.699219 39.609375 13.734375 39.835938 13.835938 Z M 35.164062 17.238281 C 34.929688 17.269531 34.710938 17.074219 34.675781 16.800781 C 34.636719 16.527344 34.800781 16.28125 35.035156 16.25 C 35.269531 16.21875 35.488281 16.417969 35.523438 16.691406 C 35.558594 16.964844 35.394531 17.210938 35.164062 17.238281 Z M 36.960938 19.191406 C 36.953125 19.160156 36.949219 19.128906 36.945312 19.101562 L 36.933594 19.042969 L 36.929688 18.988281 C 36.921875 18.917969 36.917969 18.847656 36.914062 18.777344 L 36.902344 18.566406 C 36.894531 18.285156 36.894531 18.003906 36.910156 17.722656 C 36.925781 17.445312 36.949219 17.164062 37 16.882812 C 37.066406 17.160156 37.101562 17.4375 37.128906 17.71875 C 37.15625 17.996094 37.175781 18.277344 37.1875 18.554688 L 37.191406 18.765625 L 37.199219 18.972656 L 37.199219 19.023438 L 37.203125 19.070312 C 37.203125 19.101562 37.203125 19.132812 37.210938 19.160156 L 42.835938 18.4375 L 42.816406 16.078125 C 42.699219 15.828125 42.59375 15.574219 42.527344 15.316406 C 42.375 14.738281 42.550781 14.0625 42.636719 13.484375 C 42.699219 13.054688 42.734375 12.597656 42.660156 12.175781 L 33.4375 13.355469 L 33.433594 13.355469 L 33.8125 16.285156 L 33.898438 16.941406 L 34.105469 18.53125 L 34.183594 19.121094 L 34.1875 19.152344 L 34.238281 19.539062 L 36.960938 19.191406 " fill-opacity="1" fill-rule="nonzero"/><path fill="#35333f" d="M 39.605469 16.675781 C 39.839844 16.644531 40 16.398438 39.964844 16.125 C 39.929688 15.851562 39.710938 15.652344 39.476562 15.679688 C 39.242188 15.710938 39.082031 15.957031 39.117188 16.234375 C 39.152344 16.507812 39.371094 16.707031 39.605469 16.675781 " fill-opacity="1" fill-rule="nonzero"/><path fill="#35333f" d="M 35.523438 16.691406 C 35.488281 16.417969 35.269531 16.21875 35.035156 16.25 C 34.800781 16.28125 34.636719 16.527344 34.675781 16.800781 C 34.710938 17.074219 34.929688 17.269531 35.164062 17.238281 C 35.394531 17.210938 35.558594 16.964844 35.523438 16.691406 " fill-opacity="1" fill-rule="nonzero"/><path fill="#d6562b" d="M 37.199219 19.023438 L 37.199219 18.972656 L 37.191406 18.765625 L 37.1875 18.554688 C 37.175781 18.277344 37.15625 17.996094 37.128906 17.71875 C 37.101562 17.4375 37.066406 17.160156 37 16.882812 C 36.949219 17.164062 36.925781 17.445312 36.910156 17.722656 C 36.894531 18.003906 36.894531 18.285156 36.902344 18.566406 L 36.914062 18.777344 C 36.917969 18.847656 36.921875 18.917969 36.929688 18.988281 L 36.933594 19.042969 L 36.945312 19.101562 C 36.949219 19.128906 36.953125 19.160156 36.960938 19.191406 L 36.96875 19.214844 C 36.988281 19.292969 37.023438 19.367188 37.0625 19.433594 C 37.140625 19.570312 37.253906 19.683594 37.378906 19.765625 C 37.410156 19.785156 37.441406 19.800781 37.472656 19.820312 C 37.507812 19.835938 37.539062 19.855469 37.574219 19.867188 C 37.644531 19.894531 37.714844 19.914062 37.785156 19.925781 C 37.546875 19.769531 37.351562 19.566406 37.261719 19.335938 L 37.25 19.316406 L 37.246094 19.292969 L 37.230469 19.25 C 37.21875 19.222656 37.21875 19.191406 37.210938 19.160156 C 37.203125 19.132812 37.203125 19.101562 37.203125 19.070312 L 37.199219 19.023438 " fill-opacity="1" fill-rule="nonzero"/><path fill="#9d4133" d="M 34.976562 14.605469 C 35.128906 14.59375 35.285156 14.609375 35.449219 14.652344 C 35.53125 14.667969 35.613281 14.703125 35.699219 14.722656 C 35.785156 14.75 35.871094 14.785156 35.964844 14.808594 C 35.902344 14.714844 35.832031 14.632812 35.757812 14.554688 C 35.675781 14.488281 35.597656 14.414062 35.507812 14.367188 C 35.332031 14.257812 35.132812 14.214844 34.933594 14.226562 C 34.539062 14.257812 34.191406 14.59375 34.089844 15.046875 C 34.238281 14.917969 34.382812 14.816406 34.527344 14.738281 C 34.675781 14.667969 34.820312 14.613281 34.976562 14.605469 " fill-opacity="1" fill-rule="nonzero"/><path fill="#9d4133" d="M 37.960938 14.578125 C 38.160156 14.441406 38.347656 14.332031 38.542969 14.25 C 38.738281 14.171875 38.933594 14.109375 39.132812 14.097656 C 39.332031 14.082031 39.539062 14.089844 39.75 14.125 C 39.859375 14.136719 39.964844 14.167969 40.078125 14.1875 C 40.1875 14.210938 40.296875 14.246094 40.417969 14.261719 C 40.339844 14.171875 40.25 14.09375 40.15625 14.015625 C 40.054688 13.953125 39.953125 13.878906 39.835938 13.835938 C 39.609375 13.734375 39.351562 13.699219 39.09375 13.714844 C 38.578125 13.765625 38.105469 14.113281 37.960938 14.578125 " fill-opacity="1" fill-rule="nonzero"/><path fill="#572916" d="M 37.871094 22.425781 C 37.855469 22.421875 37.839844 22.421875 37.824219 22.417969 C 37.839844 22.421875 37.855469 22.421875 37.871094 22.425781 " fill-opacity="1" fill-rule="nonzero"/><path fill="#572916" d="M 37.695312 22.398438 L 37.679688 22.394531 L 37.695312 22.398438 " fill-opacity="1" fill-rule="nonzero"/><path fill="#572916" d="M 36.875 21.957031 C 36.863281 21.945312 36.851562 21.933594 36.839844 21.921875 C 36.851562 21.933594 36.863281 21.945312 36.875 21.957031 " fill-opacity="1" fill-rule="nonzero"/><path fill="#572916" d="M 37.03125 22.09375 C 37.015625 22.085938 37.003906 22.074219 36.992188 22.0625 C 37.003906 22.074219 37.015625 22.085938 37.03125 22.09375 " fill-opacity="1" fill-rule="nonzero"/><path fill="#572916" d="M 38.019531 22.4375 C 38 22.4375 37.980469 22.433594 37.964844 22.433594 C 37.980469 22.433594 38 22.4375 38.019531 22.4375 " fill-opacity="1" fill-rule="nonzero"/><path fill="#572916" d="M 36.949219 22.027344 C 36.9375 22.015625 36.925781 22.003906 36.910156 21.992188 C 36.925781 22.003906 36.9375 22.015625 36.949219 22.027344 " fill-opacity="1" fill-rule="nonzero"/><path fill="#572916" d="M 38.699219 22.371094 C 38.683594 22.375 38.667969 22.378906 38.652344 22.382812 C 38.667969 22.378906 38.683594 22.375 38.699219 22.371094 " fill-opacity="1" fill-rule="nonzero"/><path fill="#572916" d="M 37.117188 22.15625 L 37.085938 22.132812 L 37.117188 22.15625 " fill-opacity="1" fill-rule="nonzero"/><path fill="#572916" d="M 37.574219 22.367188 C 37.558594 22.363281 37.546875 22.359375 37.53125 22.351562 C 37.546875 22.359375 37.558594 22.363281 37.574219 22.367188 " fill-opacity="1" fill-rule="nonzero"/><path fill="#572916" d="M 38.988281 22.285156 C 38.976562 22.292969 38.960938 22.296875 38.945312 22.300781 C 38.960938 22.296875 38.976562 22.292969 38.988281 22.285156 " fill-opacity="1" fill-rule="nonzero"/><path fill="#572916" d="M 38.238281 20.972656 C 38.863281 20.886719 39.457031 21.101562 39.875 21.507812 C 40.171875 20.898438 40.027344 20.21875 40.027344 20.21875 L 36.265625 20.757812 C 36.265625 20.757812 36.363281 21.421875 36.832031 21.914062 C 37.121094 21.417969 37.625 21.058594 38.238281 20.972656 " fill-opacity="1" fill-rule="nonzero"/><path fill="#572916" d="M 37.347656 22.285156 C 37.335938 22.277344 37.320312 22.269531 37.304688 22.265625 C 37.320312 22.269531 37.335938 22.277344 37.347656 22.285156 " fill-opacity="1" fill-rule="nonzero"/><path fill="#572916" d="M 37.457031 22.328125 C 37.441406 22.324219 37.429688 22.316406 37.414062 22.3125 C 37.429688 22.316406 37.441406 22.324219 37.457031 22.328125 " fill-opacity="1" fill-rule="nonzero"/><path fill="#572916" d="M 38.324219 22.429688 C 38.308594 22.429688 38.292969 22.433594 38.273438 22.433594 C 38.292969 22.433594 38.308594 22.429688 38.324219 22.429688 " fill-opacity="1" fill-rule="nonzero"/><path fill="#572916" d="M 39.113281 22.234375 L 39.101562 22.238281 L 39.113281 22.234375 " fill-opacity="1" fill-rule="nonzero"/><path fill="#572916" d="M 38.851562 22.332031 C 38.835938 22.335938 38.820312 22.339844 38.800781 22.347656 C 38.820312 22.339844 38.835938 22.335938 38.851562 22.332031 " fill-opacity="1" fill-rule="nonzero"/><path fill="#572916" d="M 37.242188 22.230469 C 37.230469 22.226562 37.21875 22.21875 37.207031 22.210938 C 37.21875 22.21875 37.230469 22.226562 37.242188 22.230469 " fill-opacity="1" fill-rule="nonzero"/><path fill="#572916" d="M 39.265625 22.15625 L 39.230469 22.175781 L 39.265625 22.15625 " fill-opacity="1" fill-rule="nonzero"/><path fill="#572916" d="M 39.371094 22.089844 C 39.359375 22.097656 39.347656 22.105469 39.335938 22.113281 C 39.347656 22.105469 39.359375 22.097656 39.371094 22.089844 " fill-opacity="1" fill-rule="nonzero"/><path fill="#572916" d="M 39.832031 21.585938 L 39.816406 21.617188 L 39.832031 21.585938 " fill-opacity="1" fill-rule="nonzero"/><path fill="#572916" d="M 39.550781 21.945312 L 39.535156 21.964844 L 39.550781 21.945312 " fill-opacity="1" fill-rule="nonzero"/><path fill="#572916" d="M 39.625 21.871094 L 39.652344 21.84375 L 39.625 21.871094 " fill-opacity="1" fill-rule="nonzero"/><path fill="#572916" d="M 39.78125 21.671875 L 39.757812 21.707031 L 39.78125 21.671875 " fill-opacity="1" fill-rule="nonzero"/><path fill="#572916" d="M 39.722656 21.757812 L 39.695312 21.792969 L 39.722656 21.757812 " fill-opacity="1" fill-rule="nonzero"/><path fill="#572916" d="M 39.46875 22.019531 L 39.433594 22.042969 L 39.46875 22.019531 " fill-opacity="1" fill-rule="nonzero"/><path fill="#cb4259" d="M 39.695312 21.792969 L 39.722656 21.757812 C 39.734375 21.742188 39.746094 21.722656 39.757812 21.707031 L 39.78125 21.671875 C 39.792969 21.652344 39.804688 21.636719 39.816406 21.617188 L 39.832031 21.585938 C 39.847656 21.5625 39.859375 21.535156 39.875 21.511719 L 39.875 21.507812 C 39.457031 21.101562 38.863281 20.886719 38.238281 20.972656 C 37.625 21.058594 37.121094 21.417969 36.832031 21.914062 L 36.839844 21.921875 C 36.851562 21.933594 36.863281 21.945312 36.875 21.957031 C 36.886719 21.96875 36.898438 21.980469 36.910156 21.992188 C 36.925781 22.003906 36.9375 22.015625 36.949219 22.027344 C 36.964844 22.039062 36.976562 22.050781 36.992188 22.0625 C 37.003906 22.074219 37.015625 22.085938 37.03125 22.09375 C 37.046875 22.109375 37.066406 22.121094 37.085938 22.132812 L 37.117188 22.15625 C 37.144531 22.175781 37.175781 22.195312 37.207031 22.210938 C 37.21875 22.21875 37.230469 22.226562 37.242188 22.230469 C 37.261719 22.242188 37.285156 22.253906 37.304688 22.265625 C 37.320312 22.269531 37.335938 22.277344 37.347656 22.285156 C 37.371094 22.292969 37.390625 22.304688 37.414062 22.3125 C 37.429688 22.316406 37.441406 22.324219 37.457031 22.328125 C 37.480469 22.339844 37.507812 22.347656 37.53125 22.351562 C 37.546875 22.359375 37.558594 22.363281 37.574219 22.367188 C 37.609375 22.375 37.644531 22.386719 37.679688 22.394531 L 37.695312 22.398438 C 37.738281 22.40625 37.78125 22.414062 37.824219 22.417969 C 37.839844 22.421875 37.855469 22.421875 37.871094 22.425781 C 37.902344 22.429688 37.933594 22.429688 37.964844 22.433594 C 37.980469 22.433594 38 22.4375 38.019531 22.4375 C 38.046875 22.4375 38.082031 22.4375 38.113281 22.4375 C 38.128906 22.4375 38.148438 22.4375 38.167969 22.4375 C 38.203125 22.4375 38.238281 22.4375 38.273438 22.433594 C 38.292969 22.433594 38.308594 22.429688 38.324219 22.429688 C 38.378906 22.425781 38.433594 22.417969 38.488281 22.410156 C 38.546875 22.402344 38.597656 22.394531 38.652344 22.382812 C 38.667969 22.378906 38.683594 22.375 38.699219 22.371094 C 38.734375 22.363281 38.769531 22.355469 38.800781 22.347656 C 38.820312 22.339844 38.835938 22.335938 38.851562 22.332031 C 38.886719 22.320312 38.917969 22.3125 38.945312 22.300781 C 38.960938 22.296875 38.976562 22.292969 38.988281 22.285156 C 39.027344 22.273438 39.066406 22.257812 39.101562 22.238281 L 39.113281 22.234375 C 39.15625 22.21875 39.191406 22.199219 39.230469 22.175781 L 39.265625 22.15625 C 39.289062 22.144531 39.3125 22.128906 39.335938 22.113281 C 39.347656 22.105469 39.359375 22.097656 39.371094 22.089844 C 39.394531 22.074219 39.414062 22.058594 39.433594 22.042969 L 39.46875 22.019531 C 39.492188 22 39.511719 21.980469 39.535156 21.964844 L 39.550781 21.945312 C 39.578125 21.921875 39.601562 21.898438 39.625 21.871094 L 39.652344 21.84375 C 39.667969 21.824219 39.679688 21.808594 39.695312 21.792969 " fill-opacity="1" fill-rule="nonzero"/><g clip-path="url(#66c7452e9b)"><path fill="#c35a41" d="M 33.691406 11.222656 C 33.742188 11.164062 33.789062 11.089844 33.828125 11.003906 C 33.917969 10.804688 33.996094 10.574219 34.1875 10.464844 C 34.410156 10.339844 34.691406 10.429688 34.929688 10.523438 C 36.097656 10.96875 36.734375 11.390625 37.816406 10.605469 C 38.5 10.113281 39.144531 9.355469 40.054688 9.328125 C 40.5 9.316406 40.910156 9.492188 41.292969 9.734375 C 41.566406 9.132812 42.976562 9.027344 43.917969 9.152344 C 43.863281 8.734375 43.5625 8.324219 43.246094 8.011719 C 42.007812 6.792969 40.339844 6.007812 38.605469 5.828125 C 36.871094 5.644531 35.078125 6.070312 33.609375 7.007812 C 32.75 7.554688 31.984375 8.300781 31.613281 9.242188 C 32.261719 8.527344 33.113281 8.003906 34.042969 7.738281 C 33.363281 8.6875 32.644531 9.785156 32.871094 10.929688 C 32.890625 11.046875 32.929688 11.140625 32.976562 11.21875 C 33.152344 11.503906 33.464844 11.496094 33.691406 11.222656 " fill-opacity="1" fill-rule="nonzero"/></g><path fill="#c35a41" d="M 41.292969 9.734375 C 41.199219 9.929688 41.234375 10.179688 41.449219 10.492188 C 41.6875 10.847656 42.082031 11.070312 42.339844 11.410156 C 42.507812 11.636719 42.605469 11.898438 42.660156 12.175781 C 42.734375 12.597656 42.699219 13.054688 42.636719 13.484375 C 42.550781 14.0625 42.375 14.738281 42.527344 15.316406 C 42.59375 15.574219 42.699219 15.828125 42.816406 16.078125 L 42.816406 15.875 C 42.816406 15.875 43.628906 14.292969 44.421875 15.351562 C 45.101562 16.25 44.679688 17.53125 43.515625 18.261719 C 43.519531 18.289062 43.523438 18.320312 43.523438 18.351562 C 43.554688 18.761719 43.53125 19.167969 43.429688 19.566406 C 43.824219 19.25 44.144531 18.867188 44.410156 18.441406 C 44.816406 17.800781 45.101562 17.074219 45.355469 16.359375 C 45.871094 14.917969 46.585938 13.328125 46.300781 11.769531 C 46.121094 10.777344 45.53125 9.839844 44.648438 9.347656 C 44.496094 9.261719 44.234375 9.195312 43.917969 9.152344 C 42.976562 9.027344 41.566406 9.132812 41.292969 9.734375 " fill-opacity="1" fill-rule="nonzero"/><path fill="#f3ac71" d="M 43.871094 15.71875 C 44.378906 15.933594 44.460938 17.382812 43.058594 17.859375 L 42.980469 16.472656 C 42.980469 16.472656 43.363281 15.5 43.871094 15.71875 Z M 44.421875 15.351562 C 43.628906 14.292969 42.816406 15.875 42.816406 15.875 L 42.816406 16.078125 L 42.835938 18.4375 L 42.839844 18.589844 C 43.007812 18.527344 43.164062 18.457031 43.316406 18.378906 C 43.382812 18.339844 43.453125 18.300781 43.515625 18.261719 C 44.679688 17.53125 45.101562 16.25 44.421875 15.351562 " fill-opacity="1" fill-rule="nonzero"/><path fill="#e37748" d="M 43.058594 17.859375 C 44.460938 17.382812 44.378906 15.933594 43.871094 15.71875 C 43.363281 15.5 42.980469 16.472656 42.980469 16.472656 L 43.058594 17.859375 " fill-opacity="1" fill-rule="nonzero"/><path fill="#d7d2dd" d="M 24.375 24.984375 L 24.789062 24.984375 L 23.753906 21.445312 C 23.316406 21.765625 22.546875 22.277344 22.113281 22.273438 C 22.113281 22.273438 20.984375 22.585938 20.03125 22.113281 C 19.996094 22.097656 19.964844 22.082031 19.929688 22.066406 C 19.808594 22.003906 19.699219 21.933594 19.59375 21.847656 L 19.328125 21.929688 C 19.328125 21.929688 19.757812 23.25 20.273438 24.984375 L 24.375 24.984375 " fill-opacity="1" fill-rule="nonzero"/><path fill="#f3ac71" d="M 22.671875 16.640625 L 24 16.726562 C 24 16.726562 24.28125 17.257812 24.863281 17.515625 C 24.617188 17.792969 24.613281 19.035156 24.613281 19.035156 L 23.566406 19.816406 C 23.351562 19.8125 23.148438 19.84375 22.960938 19.898438 L 22.269531 18.464844 Z M 20.03125 22.113281 C 20.984375 22.585938 22.113281 22.273438 22.113281 22.273438 C 22.546875 22.277344 23.316406 21.765625 23.753906 21.445312 C 23.949219 21.300781 24.078125 21.199219 24.078125 21.199219 L 24.988281 20.316406 L 25.730469 19.167969 C 25.652344 18.328125 25.507812 17.867188 25.285156 17.636719 C 25.285156 17.636719 25.746094 17.820312 25.5625 17.070312 L 24.765625 15.773438 L 22.273438 15.640625 L 21.605469 17.019531 L 21.507812 13.113281 C 21.507812 13.113281 20.691406 12.0625 20.535156 13.746094 C 20.382812 15.433594 20.613281 16.859375 20.613281 16.859375 L 20.390625 16.753906 C 20.390625 16.753906 19.621094 13.347656 19.089844 13.382812 C 18.554688 13.421875 18.589844 14.523438 19.632812 16.835938 L 19.050781 17.105469 C 19.050781 17.105469 17.867188 14.449219 17.246094 14.515625 C 16.621094 14.585938 17.25 15.875 18.085938 17.265625 C 18.085938 17.265625 18.113281 20.664062 19.59375 21.847656 C 19.699219 21.933594 19.808594 22.003906 19.929688 22.066406 C 19.964844 22.082031 19.996094 22.097656 20.03125 22.113281 " fill-opacity="1" fill-rule="nonzero"/><g clip-path="url(#5f76e72abf)"><path fill="#c8d6dc" d="M 60 47.03125 L 60 45.269531 L 39.230469 45.269531 C 39.136719 45.304688 39.042969 45.320312 38.941406 45.320312 L 10.261719 45.320312 C 10.160156 45.320312 10.0625 45.304688 9.972656 45.269531 L 0 45.269531 L 0 47.03125 L 60 47.03125 " fill-opacity="1" fill-rule="nonzero"/></g><g clip-path="url(#6c94f829fb)"><path fill="#92a4ad" d="M 0 47.03125 L 0 47.601562 L 60 47.601562 L 60 47.03125 L 0 47.03125 " fill-opacity="1" fill-rule="nonzero"/></g><path fill="#313c46" d="M 39.757812 44.507812 L 39.757812 43.324219 C 39.757812 43.015625 39.582031 42.742188 39.324219 42.605469 C 39.199219 42.664062 39.070312 42.726562 38.945312 42.785156 C 38.84375 42.832031 38.738281 42.878906 38.628906 42.871094 C 38.445312 42.863281 38.308594 42.695312 38.269531 42.511719 L 37.300781 42.511719 C 37.1875 42.578125 37.074219 42.648438 36.964844 42.71875 C 36.765625 42.839844 36.488281 42.953125 36.324219 42.792969 C 36.246094 42.714844 36.234375 42.617188 36.253906 42.511719 L 32.742188 42.511719 L 33.214844 44.226562 C 33.214844 44.828125 32.765625 45.320312 32.214844 45.320312 L 38.941406 45.320312 C 39.042969 45.320312 39.136719 45.304688 39.230469 45.269531 C 39.539062 45.152344 39.757812 44.855469 39.757812 44.507812 " fill-opacity="1" fill-rule="nonzero"/><path fill="#313c46" d="M 10.445312 45.320312 C 9.894531 45.320312 9.441406 44.828125 9.441406 44.226562 L 9.441406 44.507812 C 9.441406 44.855469 9.664062 45.152344 9.972656 45.269531 C 10.0625 45.304688 10.160156 45.320312 10.261719 45.320312 L 10.445312 45.320312 " fill-opacity="1" fill-rule="nonzero"/><path fill="#343c3f" d="M 4.707031 25.332031 C 4.71875 25.316406 4.730469 25.300781 4.746094 25.289062 C 4.730469 25.300781 4.71875 25.316406 4.707031 25.332031 " fill-opacity="1" fill-rule="nonzero"/><path fill="#343c3f" d="M 4.855469 25.1875 C 4.871094 25.175781 4.886719 25.164062 4.902344 25.152344 C 4.886719 25.164062 4.871094 25.175781 4.855469 25.1875 " fill-opacity="1" fill-rule="nonzero"/><path fill="#343c3f" d="M 4.777344 25.257812 C 4.792969 25.242188 4.804688 25.230469 4.820312 25.21875 C 4.804688 25.230469 4.792969 25.242188 4.777344 25.257812 " fill-opacity="1" fill-rule="nonzero"/><path fill="#343c3f" d="M 5.332031 24.988281 C 5.363281 24.984375 5.398438 24.984375 5.433594 24.984375 C 5.398438 24.984375 5.363281 24.984375 5.332031 24.988281 " fill-opacity="1" fill-rule="nonzero"/><path fill="#343c3f" d="M 5.128906 25.039062 C 5.148438 25.03125 5.167969 25.023438 5.1875 25.019531 C 5.167969 25.023438 5.148438 25.03125 5.128906 25.039062 " fill-opacity="1" fill-rule="nonzero"/><path fill="#343c3f" d="M 4.675781 25.367188 C 4.527344 25.558594 4.433594 25.804688 4.433594 26.078125 L 4.5 26.316406 C 4.410156 25.988281 4.46875 25.632812 4.675781 25.367188 " fill-opacity="1" fill-rule="nonzero"/><path fill="#343c3f" d="M 5.03125 25.078125 C 5.050781 25.070312 5.066406 25.0625 5.085938 25.054688 C 5.066406 25.0625 5.050781 25.070312 5.03125 25.078125 " fill-opacity="1" fill-rule="nonzero"/><path fill="#343c3f" d="M 5.226562 25.007812 C 5.25 25.003906 5.273438 25 5.292969 24.996094 C 5.273438 25 5.25 25.003906 5.226562 25.007812 " fill-opacity="1" fill-rule="nonzero"/><path fill="#343c3f" d="M 4.941406 25.128906 C 4.957031 25.117188 4.976562 25.109375 4.992188 25.097656 C 4.976562 25.109375 4.957031 25.117188 4.941406 25.128906 " fill-opacity="1" fill-rule="nonzero"/><path fill="#343c3f" d="M 10.445312 45.320312 L 32.214844 45.320312 C 32.765625 45.320312 33.214844 44.828125 33.214844 44.226562 L 32.742188 42.511719 L 30.519531 34.460938 L 29.203125 29.683594 L 28.207031 26.078125 C 28.207031 25.476562 27.757812 24.984375 27.207031 24.984375 L 24.375 24.984375 C 24.925781 24.984375 25.378906 25.476562 25.378906 26.078125 L 30.386719 44.226562 C 30.386719 44.828125 29.933594 45.320312 29.382812 45.320312 L 10.445312 45.320312 C 9.894531 45.320312 9.441406 44.828125 9.441406 44.226562 L 8.472656 40.71875 L 9.441406 44.226562 C 9.441406 44.828125 9.894531 45.320312 10.445312 45.320312 " fill-opacity="1" fill-rule="nonzero"/><path fill="#3a4752" d="M 18.089844 37.894531 C 16.910156 38.265625 15.601562 37.457031 15.164062 36.089844 C 14.730469 34.71875 15.332031 33.308594 16.511719 32.9375 C 17.691406 32.566406 19.003906 33.378906 19.4375 34.746094 C 19.875 36.117188 19.269531 37.527344 18.089844 37.894531 M 10.445312 45.320312 L 29.382812 45.320312 C 29.933594 45.320312 30.386719 44.828125 30.386719 44.226562 L 25.378906 26.078125 C 25.378906 25.476562 24.925781 24.984375 24.375 24.984375 L 5.433594 24.984375 C 5.398438 24.984375 5.363281 24.984375 5.332031 24.988281 C 5.320312 24.992188 5.308594 24.992188 5.292969 24.996094 C 5.273438 25 5.25 25.003906 5.226562 25.007812 C 5.214844 25.011719 5.199219 25.015625 5.1875 25.019531 C 5.167969 25.023438 5.148438 25.03125 5.128906 25.039062 C 5.113281 25.042969 5.101562 25.046875 5.085938 25.054688 C 5.066406 25.0625 5.050781 25.070312 5.03125 25.078125 C 5.019531 25.082031 5.003906 25.089844 4.992188 25.097656 C 4.976562 25.109375 4.957031 25.117188 4.941406 25.128906 C 4.929688 25.136719 4.917969 25.144531 4.902344 25.152344 C 4.886719 25.164062 4.871094 25.175781 4.855469 25.1875 C 4.84375 25.195312 4.832031 25.207031 4.820312 25.21875 C 4.804688 25.230469 4.792969 25.242188 4.777344 25.257812 L 4.746094 25.289062 C 4.730469 25.300781 4.71875 25.316406 4.707031 25.332031 L 4.683594 25.355469 L 4.675781 25.367188 C 4.46875 25.632812 4.410156 25.988281 4.5 26.316406 L 8.472656 40.71875 L 9.441406 44.226562 C 9.441406 44.828125 9.894531 45.320312 10.445312 45.320312 " fill-opacity="1" fill-rule="nonzero"/><path fill="#ffffff" d="M 17.503906 37.984375 C 16.507812 37.984375 15.535156 37.238281 15.167969 36.101562 C 15.167969 36.09375 15.167969 36.09375 15.164062 36.089844 C 15.070312 35.785156 15.023438 35.480469 15.023438 35.1875 C 15.023438 34.148438 15.59375 33.226562 16.511719 32.9375 C 16.707031 32.878906 16.902344 32.847656 17.097656 32.847656 C 17.101562 32.847656 17.101562 32.847656 17.101562 32.847656 C 18.097656 32.847656 19.066406 33.597656 19.433594 34.734375 C 19.4375 34.738281 19.4375 34.742188 19.4375 34.746094 C 19.535156 35.046875 19.582031 35.351562 19.582031 35.648438 C 19.582031 36.6875 19.011719 37.609375 18.089844 37.894531 C 18.089844 37.898438 18.085938 37.898438 18.082031 37.898438 C 17.890625 37.957031 17.699219 37.984375 17.503906 37.984375 " fill-opacity="1" fill-rule="nonzero"/><path fill="#737f87" d="M 17.503906 37.984375 L 17.503906 37.984375 M 17.503906 37.984375 C 17.699219 37.984375 17.890625 37.957031 18.082031 37.898438 C 17.890625 37.957031 17.699219 37.984375 17.503906 37.984375 M 18.082031 37.898438 C 18.085938 37.898438 18.089844 37.898438 18.089844 37.894531 C 19.011719 37.609375 19.582031 36.6875 19.582031 35.648438 C 19.582031 36.6875 19.011719 37.609375 18.089844 37.894531 C 18.089844 37.898438 18.085938 37.898438 18.082031 37.898438 M 15.167969 36.101562 C 15.167969 36.09375 15.167969 36.09375 15.164062 36.089844 C 15.070312 35.785156 15.023438 35.480469 15.023438 35.1875 C 15.023438 35.480469 15.070312 35.785156 15.164062 36.089844 C 15.167969 36.09375 15.167969 36.09375 15.167969 36.101562 M 19.4375 34.746094 C 19.4375 34.742188 19.4375 34.738281 19.433594 34.734375 C 19.4375 34.738281 19.4375 34.742188 19.4375 34.746094 M 16.511719 32.9375 C 16.707031 32.878906 16.902344 32.847656 17.097656 32.847656 C 16.902344 32.847656 16.707031 32.878906 16.511719 32.9375 M 17.101562 32.847656 C 17.101562 32.847656 17.101562 32.847656 17.097656 32.847656 C 17.101562 32.847656 17.101562 32.847656 17.101562 32.847656 " fill-opacity="1" fill-rule="nonzero"/><path fill="#d7d2dd" d="M 53.003906 40.980469 C 53.488281 41.035156 54.058594 40.941406 54.613281 40.683594 C 55.742188 40.160156 56.390625 39.15625 56.105469 38.402344 L 53.960938 39.398438 C 53.921875 40.042969 53.5625 40.640625 53.003906 40.980469 " fill-opacity="1" fill-rule="nonzero"/><path fill="#d7d2dd" d="M 46.527344 28.933594 L 50.746094 26.980469 C 50.5 26.457031 49.84375 26.207031 49.078125 26.277344 C 48.726562 26.3125 48.355469 26.410156 47.988281 26.578125 C 46.824219 27.121094 46.171875 28.175781 46.527344 28.933594 " fill-opacity="1" fill-rule="nonzero"/><path fill="#d7d2dd" d="M 46.527344 28.933594 L 49.058594 34.3125 L 50.40625 37.179688 L 53.125 36.28125 L 53.875 38.683594 C 53.949219 38.921875 53.976562 39.164062 53.960938 39.398438 L 56.105469 38.402344 L 56.117188 38.398438 L 50.746094 26.980469 L 46.527344 28.933594 " fill-opacity="1" fill-rule="nonzero"/><path fill="#d7d2dd" d="M 53.960938 39.398438 C 53.976562 39.164062 53.949219 38.921875 53.875 38.683594 L 53.125 36.28125 L 50.40625 37.179688 L 48.636719 37.765625 L 43.121094 39.585938 C 43.308594 39.621094 43.5 39.652344 43.691406 39.671875 C 43.878906 39.691406 44.078125 39.71875 44.210938 39.851562 C 44.289062 39.929688 44.332031 40.035156 44.367188 40.140625 C 44.597656 40.847656 44.519531 41.539062 44.164062 42.191406 C 43.867188 42.097656 43.558594 42.039062 43.246094 42.015625 L 43.902344 43.917969 C 43.902344 43.917969 45.820312 43.21875 48.058594 42.492188 C 49.523438 42.019531 51.125 41.535156 52.417969 41.222656 C 52.632812 41.171875 52.828125 41.089844 53.003906 40.980469 C 53.5625 40.640625 53.921875 40.042969 53.960938 39.398438 " fill-opacity="1" fill-rule="nonzero"/><path fill="#f3ac71" d="M 36.324219 42.792969 C 36.488281 42.953125 36.765625 42.839844 36.964844 42.71875 C 37.074219 42.648438 37.1875 42.578125 37.300781 42.511719 C 37.707031 42.257812 38.117188 42.007812 38.527344 41.753906 C 38.402344 41.945312 38.273438 42.148438 38.261719 42.375 C 38.257812 42.421875 38.261719 42.464844 38.269531 42.511719 C 38.308594 42.695312 38.445312 42.863281 38.628906 42.871094 C 38.738281 42.878906 38.84375 42.832031 38.945312 42.785156 C 39.070312 42.726562 39.199219 42.664062 39.324219 42.605469 C 39.445312 42.550781 39.570312 42.492188 39.691406 42.433594 C 39.546875 42.566406 39.65625 42.933594 39.894531 42.980469 C 40.175781 43.035156 40.4375 42.839844 40.675781 42.683594 C 41.425781 42.183594 42.347656 41.953125 43.246094 42.015625 C 43.558594 42.039062 43.867188 42.097656 44.164062 42.191406 C 44.519531 41.539062 44.597656 40.847656 44.367188 40.140625 C 44.332031 40.035156 44.289062 39.929688 44.210938 39.851562 C 44.078125 39.71875 43.878906 39.691406 43.691406 39.671875 C 43.5 39.652344 43.308594 39.621094 43.121094 39.585938 C 41.796875 39.324219 40.5625 38.757812 39.253906 39.128906 C 38.808594 39.253906 38.316406 38.972656 37.878906 39.113281 C 37.722656 39.160156 37.589844 39.257812 37.457031 39.355469 C 36.511719 40.046875 35.566406 40.738281 34.621094 41.429688 C 34.554688 41.476562 34.480469 41.535156 34.464844 41.613281 C 34.429688 41.773438 34.625 41.886719 34.785156 41.90625 C 35.742188 42.027344 36.449219 40.96875 37.394531 40.785156 C 37.074219 41.234375 36.75 41.683594 36.429688 42.136719 C 36.351562 42.246094 36.277344 42.382812 36.253906 42.511719 C 36.234375 42.617188 36.246094 42.714844 36.324219 42.792969 " fill-opacity="1" fill-rule="nonzero"/></svg>