<svg xmlns="http://www.w3.org/2000/svg" xmlns:xlink="http://www.w3.org/1999/xlink" width="80" zoomAndPan="magnify" viewBox="0 0 60 60" height="80" preserveAspectRatio="xMidYMid meet" version="1.0"><defs><clipPath id="304d737eca"><path d="M 7.324219 1.703125 L 52.320312 1.703125 L 52.320312 47.273438 L 7.324219 47.273438 Z M 7.324219 1.703125 " clip-rule="nonzero"/></clipPath></defs><path fill="#ffde59" d="M 30.078125 44.21875 L 22.09375 60.128906 L 18.164062 52.34375 L 9.628906 53.734375 L 17.613281 37.824219 L 30.078125 44.21875 " fill-opacity="1" fill-rule="nonzero"/><path fill="#ffde59" d="M 42.457031 37.824219 L 50.011719 53.949219 L 41.515625 52.320312 L 37.382812 59.996094 L 29.824219 43.875 L 42.457031 37.824219 " fill-opacity="1" fill-rule="nonzero"/><g clip-path="url(#304d737eca)"><path fill="#3aaa35" d="M 30.746094 2.097656 L 31.789062 3.167969 C 32.203125 3.597656 32.855469 3.683594 33.371094 3.378906 L 34.648438 2.617188 C 35.273438 2.242188 36.082031 2.460938 36.4375 3.101562 L 37.167969 4.40625 C 37.460938 4.929688 38.070312 5.1875 38.644531 5.027344 L 40.074219 4.625 C 40.773438 4.425781 41.496094 4.847656 41.675781 5.558594 L 42.050781 7.011719 C 42.199219 7.59375 42.71875 8 43.316406 7.996094 L 44.800781 7.980469 C 45.527344 7.976562 46.117188 8.570312 46.109375 9.304688 L 46.097656 10.804688 C 46.089844 11.40625 46.492188 11.9375 47.066406 12.085938 L 48.507812 12.460938 C 49.210938 12.644531 49.625 13.375 49.433594 14.082031 L 49.035156 15.527344 C 48.875 16.109375 49.128906 16.722656 49.644531 17.019531 L 50.9375 17.757812 C 51.570312 18.121094 51.785156 18.933594 51.417969 19.566406 L 50.664062 20.859375 C 50.359375 21.378906 50.445312 22.039062 50.871094 22.460938 L 51.929688 23.511719 C 52.449219 24.027344 52.449219 24.867188 51.929688 25.382812 L 50.871094 26.433594 C 50.445312 26.855469 50.359375 27.515625 50.664062 28.035156 L 51.417969 29.328125 C 51.785156 29.960938 51.570312 30.773438 50.9375 31.136719 L 49.644531 31.875 C 49.128906 32.171875 48.875 32.785156 49.035156 33.367188 L 49.433594 34.8125 C 49.625 35.519531 49.210938 36.25 48.507812 36.433594 L 47.066406 36.808594 C 46.492188 36.957031 46.089844 37.488281 46.097656 38.089844 L 46.109375 39.589844 C 46.117188 40.324219 45.527344 40.917969 44.800781 40.914062 L 43.316406 40.898438 C 42.71875 40.894531 42.199219 41.296875 42.050781 41.882812 L 41.675781 43.335938 C 41.496094 44.046875 40.773438 44.464844 40.074219 44.269531 L 38.644531 43.867188 C 38.070312 43.707031 37.460938 43.960938 37.167969 44.488281 L 36.4375 45.792969 C 36.082031 46.433594 35.273438 46.648438 34.648438 46.277344 L 33.371094 45.515625 C 32.855469 45.210938 32.203125 45.296875 31.789062 45.726562 L 30.746094 46.796875 C 30.238281 47.320312 29.40625 47.320312 28.894531 46.796875 L 27.855469 45.726562 C 27.4375 45.296875 26.785156 45.210938 26.273438 45.515625 L 24.992188 46.277344 C 24.367188 46.648438 23.5625 46.433594 23.203125 45.792969 L 22.472656 44.488281 C 22.179688 43.960938 21.570312 43.707031 21 43.867188 L 19.566406 44.269531 C 18.867188 44.464844 18.144531 44.046875 17.964844 43.335938 L 17.59375 41.882812 C 17.445312 41.296875 16.921875 40.894531 16.328125 40.898438 L 14.839844 40.914062 C 14.117188 40.917969 13.527344 40.324219 13.53125 39.589844 L 13.546875 38.089844 C 13.550781 37.488281 13.148438 36.957031 12.574219 36.808594 L 11.136719 36.433594 C 10.433594 36.25 10.015625 35.519531 10.210938 34.8125 L 10.609375 33.367188 C 10.765625 32.785156 10.515625 32.171875 9.996094 31.875 L 8.703125 31.136719 C 8.074219 30.773438 7.855469 29.960938 8.226562 29.328125 L 8.980469 28.035156 C 9.28125 27.515625 9.195312 26.855469 8.769531 26.433594 L 7.710938 25.382812 C 7.195312 24.867188 7.195312 24.027344 7.710938 23.511719 L 8.769531 22.460938 C 9.195312 22.039062 9.28125 21.378906 8.980469 20.859375 L 8.226562 19.566406 C 7.855469 18.933594 8.074219 18.121094 8.703125 17.757812 L 9.996094 17.019531 C 10.515625 16.722656 10.765625 16.109375 10.609375 15.527344 L 10.210938 14.082031 C 10.015625 13.375 10.433594 12.644531 11.136719 12.460938 L 12.574219 12.085938 C 13.148438 11.9375 13.550781 11.40625 13.546875 10.804688 L 13.53125 9.304688 C 13.527344 8.570312 14.117188 7.976562 14.839844 7.980469 L 16.328125 7.996094 C 16.921875 8 17.445312 7.59375 17.59375 7.011719 L 17.964844 5.558594 C 18.144531 4.847656 18.867188 4.425781 19.566406 4.625 L 21 5.027344 C 21.570312 5.1875 22.179688 4.929688 22.472656 4.40625 L 23.203125 3.101562 C 23.5625 2.460938 24.367188 2.242188 24.992188 2.617188 L 26.273438 3.378906 C 26.785156 3.683594 27.4375 3.597656 27.855469 3.167969 L 28.894531 2.097656 C 29.40625 1.574219 30.238281 1.574219 30.746094 2.097656 " fill-opacity="1" fill-rule="nonzero"/></g><path fill="#ffffff" d="M 29.820312 7.675781 C 20.671875 7.675781 13.230469 15.199219 13.230469 24.445312 C 13.230469 33.695312 20.671875 41.21875 29.820312 41.21875 C 38.96875 41.21875 46.410156 33.695312 46.410156 24.445312 C 46.410156 15.199219 38.96875 7.675781 29.820312 7.675781 Z M 29.820312 41.707031 C 27.515625 41.707031 25.28125 41.25 23.175781 40.347656 C 21.144531 39.480469 19.316406 38.234375 17.75 36.648438 C 16.179688 35.066406 14.949219 33.21875 14.089844 31.164062 C 13.199219 29.035156 12.75 26.777344 12.75 24.445312 C 12.75 22.117188 13.199219 19.855469 14.089844 17.730469 C 14.949219 15.675781 16.179688 13.828125 17.75 12.242188 C 19.316406 10.660156 21.144531 9.414062 23.175781 8.546875 C 25.28125 7.644531 27.515625 7.1875 29.820312 7.1875 C 32.125 7.1875 34.363281 7.644531 36.46875 8.546875 C 38.5 9.414062 40.324219 10.660156 41.894531 12.242188 C 43.460938 13.828125 44.691406 15.675781 45.550781 17.730469 C 46.441406 19.855469 46.894531 22.117188 46.894531 24.445312 C 46.894531 26.777344 46.441406 29.035156 45.550781 31.164062 C 44.691406 33.21875 43.460938 35.066406 41.894531 36.648438 C 40.324219 38.234375 38.5 39.480469 36.46875 40.347656 C 34.363281 41.25 32.125 41.707031 29.820312 41.707031 " fill-opacity="1" fill-rule="nonzero"/><path fill="#ffffff" d="M 26.25 34.679688 L 18.152344 26.625 L 20.675781 24.03125 L 26.097656 29.425781 L 38.597656 15.457031 L 41.265625 17.898438 L 26.25 34.679688 " fill-opacity="1" fill-rule="nonzero"/></svg>