<svg xmlns="http://www.w3.org/2000/svg" xmlns:xlink="http://www.w3.org/1999/xlink" width="80" zoomAndPan="magnify" viewBox="0 0 60 60" height="80" preserveAspectRatio="xMidYMid meet" version="1.0"><defs><clipPath id="3ead59be21"><path d="M 25.027344 13.449219 L 46.328125 13.449219 L 46.328125 27.679688 L 25.027344 27.679688 Z M 25.027344 13.449219 " clip-rule="nonzero"/></clipPath><clipPath id="62196a6d66"><path d="M 45.757812 13.59375 L 25.574219 13.59375 C 25.28125 13.59375 25.039062 13.835938 25.039062 14.128906 L 25.039062 27.003906 C 25.039062 27.300781 25.28125 27.539062 25.574219 27.539062 L 45.757812 27.539062 C 46.054688 27.539062 46.292969 27.300781 46.292969 27.003906 L 46.292969 14.128906 C 46.292969 13.835938 46.054688 13.59375 45.757812 13.59375 Z M 45.757812 13.59375 " clip-rule="nonzero"/></clipPath><clipPath id="a9b4729b86"><path d="M 45.757812 13.59375 L 25.574219 13.59375 C 25.28125 13.59375 25.039062 13.835938 25.039062 14.128906 L 25.039062 27.003906 C 25.039062 27.300781 25.28125 27.539062 25.574219 27.539062 L 45.757812 27.539062 C 46.054688 27.539062 46.292969 27.300781 46.292969 27.003906 L 46.292969 14.128906 C 46.292969 13.835938 46.054688 13.59375 45.757812 13.59375 " clip-rule="nonzero"/></clipPath><clipPath id="60c01a9491"><path d="M 46.230469 12.425781 L 24.261719 13.636719 L 25.105469 28.710938 L 47.070312 27.496094 Z M 46.230469 12.425781 " clip-rule="nonzero"/></clipPath><linearGradient x1="-0.17906" gradientTransform="matrix(0.597385, 10.698514, -10.752348, 0.594394, 35.3564, 14.946379)" y1="0" x2="1.229792" gradientUnits="userSpaceOnUse" y2="0" id="3e7d8cf465"><stop stop-opacity="1" stop-color="rgb(10.198975%, 16.099548%, 28.999329%)" offset="0"/><stop stop-opacity="1" stop-color="rgb(10.198975%, 16.099548%, 28.999329%)" offset="0.125"/><stop stop-opacity="1" stop-color="rgb(10.198975%, 16.099548%, 28.999329%)" offset="0.15625"/><stop stop-opacity="1" stop-color="rgb(10.198975%, 16.099548%, 29.005432%)" offset="0.171875"/><stop stop-opacity="1" stop-color="rgb(10.198975%, 16.099548%, 29.205322%)" offset="0.1875"/><stop stop-opacity="1" stop-color="rgb(10.223389%, 16.099548%, 29.399109%)" offset="0.195312"/><stop stop-opacity="1" stop-color="rgb(10.423279%, 16.099548%, 29.417419%)" offset="0.203125"/><stop stop-opacity="1" stop-color="rgb(10.598755%, 16.113281%, 29.61731%)" offset="0.210937"/><stop stop-opacity="1" stop-color="rgb(10.598755%, 16.313171%, 29.803467%)" offset="0.21875"/><stop stop-opacity="1" stop-color="rgb(10.598755%, 16.499329%, 30.003357%)" offset="0.234375"/><stop stop-opacity="1" stop-color="rgb(10.598755%, 16.499329%, 30.213928%)" offset="0.25"/><stop stop-opacity="1" stop-color="rgb(10.598755%, 16.51001%, 30.415344%)" offset="0.257812"/><stop stop-opacity="1" stop-color="rgb(10.598755%, 16.7099%, 30.599976%)" offset="0.265625"/><stop stop-opacity="1" stop-color="rgb(10.598755%, 16.899109%, 30.621338%)" offset="0.28125"/><stop stop-opacity="1" stop-color="rgb(10.61554%, 16.899109%, 30.821228%)" offset="0.289062"/><stop stop-opacity="1" stop-color="rgb(10.81543%, 16.899109%, 30.999756%)" offset="0.296875"/><stop stop-opacity="1" stop-color="rgb(10.998535%, 16.899109%, 31.007385%)" offset="0.304688"/><stop stop-opacity="1" stop-color="rgb(10.998535%, 16.902161%, 31.207275%)" offset="0.3125"/><stop stop-opacity="1" stop-color="rgb(10.998535%, 17.102051%, 31.399536%)" offset="0.316406"/><stop stop-opacity="1" stop-color="rgb(10.998535%, 17.298889%, 31.399536%)" offset="0.320312"/><stop stop-opacity="1" stop-color="rgb(10.998535%, 17.298889%, 31.408691%)" offset="0.328125"/><stop stop-opacity="1" stop-color="rgb(10.998535%, 17.298889%, 31.608582%)" offset="0.34375"/><stop stop-opacity="1" stop-color="rgb(10.998535%, 17.298889%, 31.811523%)" offset="0.359375"/><stop stop-opacity="1" stop-color="rgb(11.006165%, 17.304993%, 32.011414%)" offset="0.375"/><stop stop-opacity="1" stop-color="rgb(11.207581%, 17.46521%, 32.348633%)" offset="0.40625"/><stop stop-opacity="1" stop-color="rgb(11.399841%, 17.810059%, 32.511902%)" offset="0.421875"/><stop stop-opacity="1" stop-color="rgb(11.399841%, 17.999268%, 32.714844%)" offset="0.4375"/><stop stop-opacity="1" stop-color="rgb(11.399841%, 17.999268%, 33.102417%)" offset="0.441406"/><stop stop-opacity="1" stop-color="rgb(11.399841%, 17.999268%, 33.299255%)" offset="0.445312"/><stop stop-opacity="1" stop-color="rgb(11.399841%, 17.999268%, 33.299255%)" offset="0.453125"/><stop stop-opacity="1" stop-color="rgb(11.408997%, 18.008423%, 33.299255%)" offset="0.46875"/><stop stop-opacity="1" stop-color="rgb(11.608887%, 18.208313%, 33.303833%)" offset="0.476562"/><stop stop-opacity="1" stop-color="rgb(11.799622%, 18.399048%, 33.503723%)" offset="0.484375"/><stop stop-opacity="1" stop-color="rgb(11.799622%, 18.406677%, 33.706665%)" offset="0.5"/><stop stop-opacity="1" stop-color="rgb(11.799622%, 18.606567%, 33.906555%)" offset="0.515625"/><stop stop-opacity="1" stop-color="rgb(11.799622%, 18.798828%, 34.124756%)" offset="0.523438"/><stop stop-opacity="1" stop-color="rgb(11.799622%, 18.798828%, 34.324646%)" offset="0.53125"/><stop stop-opacity="1" stop-color="rgb(11.799622%, 18.804932%, 34.498596%)" offset="0.546875"/><stop stop-opacity="1" stop-color="rgb(11.799622%, 19.004822%, 34.500122%)" offset="0.5625"/><stop stop-opacity="1" stop-color="rgb(11.799622%, 19.198608%, 34.605408%)" offset="0.570312"/><stop stop-opacity="1" stop-color="rgb(11.799622%, 19.198608%, 34.805298%)" offset="0.578125"/><stop stop-opacity="1" stop-color="rgb(11.799622%, 19.203186%, 34.90448%)" offset="0.59375"/><stop stop-opacity="1" stop-color="rgb(11.799622%, 19.404602%, 35.10437%)" offset="0.609375"/><stop stop-opacity="1" stop-color="rgb(11.799622%, 19.599915%, 35.319519%)" offset="0.617188"/><stop stop-opacity="1" stop-color="rgb(11.799622%, 19.599915%, 35.519409%)" offset="0.625"/><stop stop-opacity="1" stop-color="rgb(11.799622%, 19.60907%, 35.710144%)" offset="0.65625"/><stop stop-opacity="1" stop-color="rgb(11.799622%, 19.80896%, 35.913086%)" offset="0.6875"/><stop stop-opacity="1" stop-color="rgb(11.799622%, 20.021057%, 36.302185%)" offset="0.691406"/><stop stop-opacity="1" stop-color="rgb(11.799622%, 20.043945%, 36.499023%)" offset="0.695312"/><stop stop-opacity="1" stop-color="rgb(11.808777%, 20.220947%, 36.499023%)" offset="0.703125"/><stop stop-opacity="1" stop-color="rgb(12.008667%, 20.399475%, 36.506653%)" offset="0.71875"/><stop stop-opacity="1" stop-color="rgb(12.199402%, 20.399475%, 36.706543%)" offset="0.734375"/><stop stop-opacity="1" stop-color="rgb(12.199402%, 20.413208%, 36.914062%)" offset="0.75"/><stop stop-opacity="1" stop-color="rgb(12.199402%, 20.613098%, 37.115479%)" offset="0.765625"/><stop stop-opacity="1" stop-color="rgb(12.199402%, 20.799255%, 37.451172%)" offset="0.78125"/><stop stop-opacity="1" stop-color="rgb(12.199402%, 20.803833%, 37.599182%)" offset="0.796875"/><stop stop-opacity="1" stop-color="rgb(12.199402%, 21.003723%, 37.599182%)" offset="0.8125"/><stop stop-opacity="1" stop-color="rgb(12.199402%, 21.199036%, 37.704468%)" offset="0.820312"/><stop stop-opacity="1" stop-color="rgb(12.199402%, 21.199036%, 37.904358%)" offset="0.828125"/><stop stop-opacity="1" stop-color="rgb(12.199402%, 21.199036%, 37.998962%)" offset="0.84375"/><stop stop-opacity="1" stop-color="rgb(12.199402%, 21.199036%, 37.998962%)" offset="0.875"/><stop stop-opacity="1" stop-color="rgb(12.199402%, 21.199036%, 37.998962%)" offset="1"/></linearGradient><clipPath id="648b92dbc1"><path d="M 5.34375 30 L 55.59375 30 L 55.59375 33 L 5.34375 33 Z M 5.34375 30 " clip-rule="nonzero"/></clipPath><clipPath id="b577c2f248"><path d="M 5.34375 30 L 19 30 L 19 33 L 5.34375 33 Z M 5.34375 30 " clip-rule="nonzero"/></clipPath></defs><path fill="#39454d" d="M 23.097656 58.957031 L 22.273438 58.957031 L 17.53125 39.898438 L 18.316406 39.738281 L 23.097656 58.957031 " fill-opacity="1" fill-rule="nonzero"/><path fill="#39454d" d="M 8.28125 58.957031 L 9.105469 58.957031 L 13.851562 39.898438 L 13.066406 39.738281 L 8.28125 58.957031 " fill-opacity="1" fill-rule="nonzero"/><path fill="#100f0d" d="M 16.121094 40.167969 L 16.121094 58.957031 L 15.316406 58.957031 L 15.316406 40.167969 L 16.121094 40.167969 " fill-opacity="1" fill-rule="nonzero"/><path fill="#23272b" d="M 19.308594 40.484375 L 12.125 40.484375 L 12.125 39.273438 L 19.308594 39.273438 L 19.308594 40.484375 " fill-opacity="1" fill-rule="nonzero"/><path fill="#39454d" d="M 18.953125 45.007812 L 12.140625 45.007812 L 12.140625 44.304688 L 18.953125 44.304688 L 18.953125 45.007812 " fill-opacity="1" fill-rule="nonzero"/><path fill="#39454d" d="M 21.210938 53.597656 L 9.871094 53.597656 L 9.871094 52.890625 L 21.210938 52.890625 L 21.210938 53.597656 " fill-opacity="1" fill-rule="nonzero"/><path fill="#a2351f" d="M 21.125 37.300781 C 21.007812 37.078125 20.757812 36.941406 20.472656 36.941406 L 10.949219 36.941406 C 10.664062 36.941406 10.417969 37.078125 10.296875 37.300781 C 10.21875 37.449219 10.210938 37.613281 10.277344 37.769531 L 11.0625 39.644531 C 11.167969 39.886719 11.4375 40.050781 11.734375 40.050781 L 19.6875 40.050781 C 19.984375 40.050781 20.253906 39.886719 20.359375 39.644531 L 21.144531 37.769531 C 21.210938 37.613281 21.203125 37.449219 21.125 37.300781 " fill-opacity="1" fill-rule="nonzero"/><path fill="#cd4221" d="M 18.5 37.300781 C 18.4375 37.078125 18.308594 36.941406 18.164062 36.941406 L 13.257812 36.941406 C 13.113281 36.941406 12.984375 37.078125 12.925781 37.300781 C 12.882812 37.449219 12.878906 37.613281 12.914062 37.769531 L 13.320312 39.644531 C 13.371094 39.886719 13.511719 40.050781 13.664062 40.050781 L 17.757812 40.050781 C 17.914062 40.050781 18.050781 39.886719 18.105469 39.644531 L 18.507812 37.769531 C 18.542969 37.613281 18.539062 37.449219 18.5 37.300781 " fill-opacity="1" fill-rule="nonzero"/><path fill="#c95e24" d="M 26.800781 48.785156 L 24.621094 48.371094 C 24.621094 48.371094 24.128906 50.246094 24.214844 51.007812 C 24.296875 51.765625 24.242188 53.242188 24.242188 53.242188 C 24.242188 53.242188 23.976562 54.714844 23.933594 55.171875 C 23.894531 55.625 24.214844 55.722656 24.214844 55.722656 L 25.679688 55.382812 L 25.761719 54.945312 C 25.761719 54.945312 25.675781 53.917969 25.640625 53.414062 L 26.800781 48.785156 " fill-opacity="1" fill-rule="nonzero"/><path fill="#918071" d="M 24.835938 57.414062 L 24.882812 57.890625 C 24.882812 57.890625 25.589844 58.664062 27.382812 58.355469 C 27.382812 58.355469 27.695312 58.335938 28.0625 58.023438 C 28.0625 58.023438 28.101562 57.773438 27.957031 57.710938 C 27.816406 57.652344 24.835938 57.414062 24.835938 57.414062 " fill-opacity="1" fill-rule="nonzero"/><path fill="#918071" d="M 23.691406 56.644531 L 23.714844 57.203125 L 24.28125 57.511719 L 24.453125 56.960938 L 23.691406 56.644531 " fill-opacity="1" fill-rule="nonzero"/><path fill="#918071" d="M 24.816406 57.460938 L 24.28125 57.511719 L 24.453125 56.960938 L 24.703125 57.082031 L 24.816406 57.460938 " fill-opacity="1" fill-rule="nonzero"/><path fill="#cd9786" d="M 24.929688 55.097656 C 24.929688 55.097656 24.941406 54.597656 25.296875 54.554688 C 25.621094 54.515625 25.726562 54.777344 25.792969 54.859375 L 26.152344 56.164062 L 25.339844 56.292969 L 24.929688 55.097656 " fill-opacity="1" fill-rule="nonzero"/><path fill="#d7b3a8" d="M 23.738281 55.332031 C 23.738281 55.332031 23.511719 56.042969 23.691406 56.644531 C 23.691406 56.644531 23.964844 56.816406 24.375 56.984375 C 24.785156 57.15625 24.609375 57.625 25.378906 57.921875 C 26.148438 58.21875 27.863281 58.117188 28.019531 57.949219 C 28.019531 57.949219 28.121094 57.511719 27.824219 57.257812 C 27.523438 57.007812 26.671875 56.679688 26.488281 56.28125 C 26.300781 55.882812 26.058594 55.625 25.945312 55.335938 C 25.835938 55.046875 25.820312 54.585938 25.820312 54.585938 L 25.703125 54.597656 C 25.703125 54.597656 25.847656 55.601562 26.085938 56.105469 L 25.496094 56.226562 C 25.496094 56.226562 24.921875 54.835938 24.878906 54.675781 C 24.878906 54.675781 24.503906 54.75 24.355469 55 C 24.207031 55.25 23.738281 55.332031 23.738281 55.332031 " fill-opacity="1" fill-rule="nonzero"/><path fill="#e2c8b5" d="M 27.5 57.773438 C 27.308594 57.773438 27.160156 57.757812 27.160156 57.757812 C 27.15625 57.449219 26.851562 57.21875 26.851562 57.21875 L 27.292969 57.113281 C 27.292969 57.113281 27.5 57.132812 27.691406 57.261719 C 27.914062 57.417969 27.90625 57.746094 27.90625 57.746094 C 27.769531 57.765625 27.625 57.773438 27.5 57.773438 " fill-opacity="1" fill-rule="nonzero"/><path fill="#4c433c" d="M 24.894531 55.304688 L 24.867188 55.238281 C 24.894531 55.226562 25.5625 54.980469 25.894531 55.144531 L 25.863281 55.207031 C 25.558594 55.058594 24.898438 55.304688 24.894531 55.304688 " fill-opacity="1" fill-rule="nonzero"/><path fill="#4c433c" d="M 25.011719 55.601562 L 24.988281 55.53125 C 25.015625 55.519531 25.683594 55.273438 26.015625 55.4375 L 25.980469 55.5 C 25.679688 55.355469 25.019531 55.597656 25.011719 55.601562 " fill-opacity="1" fill-rule="nonzero"/><path fill="#4c433c" d="M 25.132812 55.894531 L 25.105469 55.824219 C 25.136719 55.816406 25.804688 55.566406 26.132812 55.730469 L 26.101562 55.796875 C 25.800781 55.648438 25.140625 55.890625 25.132812 55.894531 " fill-opacity="1" fill-rule="nonzero"/><path fill="#ebc1b1" d="M 26.699219 39.261719 C 26.535156 39.292969 26.363281 39.371094 26.199219 39.507812 C 26.199219 39.507812 24.578125 42.035156 24.433594 44.96875 C 24.378906 46.054688 24.296875 47.542969 24.214844 48.988281 C 24.332031 49.027344 24.484375 49.070312 24.664062 49.113281 C 25.214844 49.25 26.03125 49.375 26.925781 49.257812 C 26.925781 49.257812 28.417969 45.636719 28.484375 44.933594 C 28.554688 44.230469 28.761719 43.457031 28.945312 42.476562 C 29.125 41.496094 29.390625 39.507812 29.390625 39.507812 C 29.390625 39.507812 27.40625 39.121094 26.699219 39.261719 " fill-opacity="1" fill-rule="nonzero"/><path fill="#c95e24" d="M 22.480469 53.574219 C 22.480469 53.574219 22.605469 48.941406 22.636719 48.390625 C 22.664062 47.835938 20.363281 48.589844 20.363281 48.589844 C 20.363281 48.589844 21.160156 53.464844 21.191406 53.878906 L 21.328125 55.835938 L 22.886719 55.714844 L 22.480469 53.574219 " fill-opacity="1" fill-rule="nonzero"/><path fill="#cd9786" d="M 21.796875 55.734375 C 21.796875 55.734375 22 55.117188 22.386719 55.175781 C 22.773438 55.234375 22.90625 55.539062 22.914062 55.570312 C 22.917969 55.597656 22.996094 57.136719 22.996094 57.136719 L 22.148438 56.945312 L 21.796875 55.734375 " fill-opacity="1" fill-rule="nonzero"/><path fill="#918071" d="M 21.230469 57.910156 C 21.230469 57.910156 21.203125 58.519531 21.296875 58.640625 C 21.390625 58.757812 21.929688 59.230469 23.21875 59.308594 C 24.503906 59.382812 24.210938 58.378906 24.210938 58.378906 L 21.230469 57.910156 " fill-opacity="1" fill-rule="nonzero"/><path fill="#d7b3a8" d="M 21.191406 55.699219 C 21.191406 55.699219 21.648438 55.199219 21.867188 55.316406 L 22.230469 56.59375 L 22.808594 56.535156 L 22.808594 55.246094 C 22.808594 55.246094 23.042969 55.242188 23.085938 55.375 C 23.128906 55.511719 23.335938 56.648438 23.433594 56.804688 C 23.527344 56.957031 24.523438 57.875 24.136719 58.585938 C 23.75 59.296875 21.769531 58.761719 21.398438 58.238281 C 21.023438 57.71875 21.320312 57.4375 21.273438 57.085938 C 21.222656 56.722656 21.191406 55.699219 21.191406 55.699219 " fill-opacity="1" fill-rule="nonzero"/><path fill="#4c433c" d="M 21.878906 55.761719 L 21.84375 55.683594 C 21.867188 55.667969 22.484375 55.367188 22.925781 55.640625 L 22.886719 55.714844 C 22.480469 55.46875 21.882812 55.757812 21.878906 55.761719 " fill-opacity="1" fill-rule="nonzero"/><path fill="#4c433c" d="M 21.925781 56.125 L 21.890625 56.046875 C 21.914062 56.035156 22.53125 55.734375 22.972656 56.003906 L 22.933594 56.082031 C 22.527344 55.832031 21.929688 56.121094 21.925781 56.125 " fill-opacity="1" fill-rule="nonzero"/><path fill="#4c433c" d="M 21.972656 56.488281 L 21.9375 56.410156 C 21.960938 56.398438 22.578125 56.097656 23.019531 56.367188 L 22.976562 56.445312 C 22.574219 56.195312 21.976562 56.488281 21.972656 56.488281 " fill-opacity="1" fill-rule="nonzero"/><path fill="#ebc1b1" d="M 23.085938 38.875 L 21.246094 38.648438 L 21.066406 39.066406 C 21.066406 39.066406 20.199219 43.863281 20.300781 44.699219 L 20.851562 49.179688 C 21.371094 49.1875 22.097656 49.082031 22.855469 48.589844 C 22.855469 48.589844 23.214844 45.28125 23.242188 44.921875 C 23.269531 44.5625 23.085938 38.875 23.085938 38.875 " fill-opacity="1" fill-rule="nonzero"/><path fill="#f4936c" d="M 21.246094 38.648438 L 20.039062 38.601562 C 20.039062 38.601562 19.984375 39.054688 19.910156 39.707031 C 19.867188 40.101562 19.542969 42.898438 19.40625 43.175781 C 19.261719 43.472656 19.238281 43.789062 19.40625 44.300781 C 19.574219 44.808594 19.421875 46.101562 19.539062 46.390625 C 19.628906 46.617188 19.9375 48.136719 20.066406 48.789062 C 20.085938 48.886719 20.105469 48.984375 20.125 49.085938 C 20.214844 49.109375 20.476562 49.175781 20.851562 49.179688 L 20.300781 44.699219 C 20.199219 43.863281 21.066406 39.066406 21.066406 39.066406 L 21.246094 38.648438 " fill-opacity="1" fill-rule="nonzero"/><path fill="#e2c8b5" d="M 23.488281 58.742188 C 23.488281 58.742188 23.652344 58.015625 23.433594 57.789062 L 23.679688 57.425781 C 23.679688 57.425781 24.34375 57.914062 23.921875 58.609375 C 23.921875 58.609375 23.730469 58.734375 23.488281 58.742188 " fill-opacity="1" fill-rule="nonzero"/><path fill="#ebc1b1" d="M 29.347656 39.566406 C 29.347656 39.566406 27.304688 39.664062 26.585938 39.457031 L 26.761719 39.28125 C 25.367188 38.71875 18.109375 34.945312 18.109375 34.945312 L 17.675781 35.320312 C 17.652344 35.289062 17.636719 35.257812 17.621094 35.230469 C 17.101562 34.09375 20.300781 33.003906 20.300781 33.003906 C 20.300781 33.003906 25.5 36.273438 27.292969 36.996094 C 29.957031 38.074219 29.347656 39.566406 29.347656 39.566406 " fill-opacity="1" fill-rule="nonzero"/><path fill="#f4936c" d="M 26.761719 39.28125 L 26.445312 39.785156 C 26.175781 39.710938 25.921875 39.628906 25.742188 39.550781 C 25.632812 39.507812 25.347656 39.398438 24.949219 39.242188 C 24.667969 39.132812 24.265625 38.976562 23.890625 38.828125 C 23.636719 38.730469 23.242188 38.476562 22.964844 38.363281 C 20.691406 37.445312 18.214844 36.0625 17.675781 35.320312 L 18.109375 34.945312 C 18.109375 34.945312 25.367188 38.71875 26.761719 39.28125 " fill-opacity="1" fill-rule="nonzero"/><path fill="#ebc1b1" d="M 20.949219 39.691406 C 20.964844 39.625 20.925781 39.46875 20.824219 39.402344 C 20.683594 39.3125 13.625 36.402344 13.207031 35.738281 C 13.089844 35.550781 13.171875 34.5 13.132812 34.054688 C 14.144531 33.53125 15.980469 33.871094 16.640625 34.023438 C 17.222656 34.15625 22.488281 37.589844 23.03125 38.648438 C 23.402344 39.367188 21.921875 39.742188 20.949219 39.691406 " fill-opacity="1" fill-rule="nonzero"/><path fill="#f4936c" d="M 13.207031 35.738281 C 13.089844 35.550781 13.171875 34.5 13.132812 34.054688 C 12.765625 34.246094 12.089844 33.707031 12.128906 33.929688 C 12.128906 33.929688 11.789062 35.617188 12.101562 36.050781 C 12.414062 36.488281 12.90625 37.339844 13.476562 37.355469 C 14.046875 37.375 15.347656 38.082031 15.453125 38.125 C 15.53125 38.15625 18.039062 39.046875 19.191406 39.457031 C 19.335938 39.515625 19.453125 39.5625 19.542969 39.597656 C 19.617188 39.625 19.691406 39.644531 19.765625 39.660156 C 20.097656 39.730469 20.410156 39.660156 20.789062 39.679688 C 20.804688 39.613281 20.824219 39.519531 20.824219 39.425781 C 20.824219 39.257812 13.625 36.402344 13.207031 35.738281 " fill-opacity="1" fill-rule="nonzero"/><path fill="#f4936c" d="M 26.699219 39.261719 C 26.535156 39.292969 26.363281 39.371094 26.199219 39.507812 C 26.199219 39.507812 26.082031 39.675781 25.898438 39.972656 C 25.496094 40.605469 25.132812 41.460938 24.898438 41.890625 C 24.566406 42.511719 24.171875 44.292969 24.214844 44.75 C 24.253906 45.203125 24.027344 48.515625 24.027344 48.515625 L 24.214844 48.988281 C 24.332031 49.027344 24.484375 49.070312 24.664062 49.113281 C 24.757812 47.171875 24.875 45.179688 25 44.210938 C 25.285156 41.957031 26.726562 39.28125 26.726562 39.28125 L 26.699219 39.261719 " fill-opacity="1" fill-rule="nonzero"/><path fill="#f9a986" d="M 27.3125 48.804688 L 26.75 50.273438 C 26.035156 50.382812 25.550781 50.363281 25.035156 50.230469 C 24.46875 49.160156 25.496094 48.601562 25.496094 48.601562 C 26.976562 48.914062 27.3125 48.804688 27.3125 48.804688 " fill-opacity="1" fill-rule="nonzero"/><path fill="#d5896c" d="M 25.035156 50.230469 C 24.210938 50.015625 23.792969 49.707031 23.792969 49.707031 L 23.769531 48.152344 C 24.433594 48.355469 25.007812 48.5 25.496094 48.601562 C 25.496094 48.601562 24.46875 49.160156 25.035156 50.230469 " fill-opacity="1" fill-rule="nonzero"/><path fill="#f9a986" d="M 23.121094 47.925781 L 22.945312 49.566406 C 22.371094 49.90625 21.808594 50.042969 21.328125 50.082031 C 20.503906 49.253906 21.199219 48.398438 21.199219 48.398438 C 22.558594 48.214844 23.121094 47.925781 23.121094 47.925781 " fill-opacity="1" fill-rule="nonzero"/><path fill="#d5896c" d="M 21.328125 50.082031 C 20.558594 50.148438 20.011719 49.964844 20.011719 49.964844 L 19.585938 48.527344 C 20.21875 48.507812 20.753906 48.457031 21.199219 48.398438 C 21.199219 48.398438 20.503906 49.253906 21.328125 50.082031 " fill-opacity="1" fill-rule="nonzero"/><path fill="#f4936c" d="M 19.699219 38.558594 C 19.699219 38.558594 20.496094 38.722656 20.640625 38.679688 C 20.78125 38.640625 21.132812 38.617188 20.65625 39.921875 C 20.179688 41.226562 19.699219 38.558594 19.699219 38.558594 " fill-opacity="1" fill-rule="nonzero"/><path fill="#f4936c" d="M 26.144531 38.660156 C 26.144531 38.660156 26.585938 38.734375 26.691406 38.660156 C 26.796875 38.589844 26.847656 38.734375 26.734375 38.828125 C 26.617188 38.917969 26.90625 38.847656 26.910156 38.992188 C 26.914062 39.136719 26.226562 39.394531 26.144531 39.550781 C 26.058594 39.707031 26.144531 38.660156 26.144531 38.660156 " fill-opacity="1" fill-rule="nonzero"/><path fill="#c95e24" d="M 22.5 23.203125 L 23.480469 27.867188 L 21.628906 28.464844 L 21.285156 23.476562 L 22.5 23.203125 " fill-opacity="1" fill-rule="nonzero"/><path fill="#964e1d" d="M 21.285156 23.476562 L 21.628906 28.464844 L 20.984375 28.671875 L 19.570312 23.855469 L 21.285156 23.476562 " fill-opacity="1" fill-rule="nonzero"/><path fill="#c95e24" d="M 30.207031 28.988281 L 30.875 30.121094 L 30.289062 30.132812 C 29.863281 30.167969 22.5 30.46875 21.921875 30.316406 C 21.324219 30.15625 20.984375 28.671875 20.984375 28.671875 L 21.628906 28.464844 L 23.480469 27.867188 L 30.207031 28.988281 " fill-opacity="1" fill-rule="nonzero"/><path fill="#964e1d" d="M 30.289062 30.132812 C 29.863281 30.167969 22.5 30.46875 21.921875 30.316406 C 21.324219 30.15625 20.984375 28.671875 20.984375 28.671875 L 21.628906 28.464844 C 21.628906 28.464844 21.738281 29.328125 22.066406 29.835938 C 22.386719 30.328125 29.855469 30.160156 30.289062 30.132812 " fill-opacity="1" fill-rule="nonzero"/><path fill="#964e1d" d="M 33.3125 29.863281 L 33.101562 30.242188 L 33.308594 30.855469 L 34.003906 30.640625 L 33.609375 29.851562 L 33.3125 29.863281 " fill-opacity="1" fill-rule="nonzero"/><path fill="#c95e24" d="M 34.167969 28.832031 L 33.929688 29.191406 L 33.390625 30.011719 L 33.367188 30.019531 C 33.171875 30.105469 31.78125 30.699219 31.449219 30.707031 C 31.09375 30.714844 30.929688 30.265625 30.921875 30.226562 L 30.648438 30.125 L 30.246094 29.101562 L 30.207031 28.988281 C 30.207031 28.988281 30.5 28.96875 30.875 28.953125 C 31.363281 28.929688 31.519531 28.941406 31.804688 28.941406 C 32.089844 28.945312 33.214844 28.816406 33.839844 28.742188 C 33.859375 28.738281 34.019531 28.726562 34.140625 28.8125 L 34.167969 28.832031 " fill-opacity="1" fill-rule="nonzero"/><path fill="#c95e24" d="M 34.265625 28.992188 L 34.265625 29.378906 C 34.265625 29.378906 34.242188 30.664062 34.234375 30.894531 C 34.226562 31.121094 32.972656 31.058594 32.972656 31.058594 C 32.972656 31.058594 32.734375 30.347656 33.105469 30.160156 C 33.480469 29.972656 33.328125 30.738281 33.328125 30.738281 L 33.539062 30.527344 C 33.539062 30.527344 33.445312 30.257812 33.367188 30.019531 C 33.308594 29.855469 33.261719 29.703125 33.257812 29.6875 L 34.140625 28.8125 L 34.167969 28.832031 C 34.210938 28.871094 34.246094 28.921875 34.265625 28.992188 " fill-opacity="1" fill-rule="nonzero"/><path fill="#c95e24" d="M 31.628906 30.675781 C 31.628906 30.675781 33.839844 31.328125 34.277344 31.132812 C 34.710938 30.933594 34.339844 30.390625 34.003906 30.40625 C 33.667969 30.421875 32.503906 30.023438 32.503906 30.023438 L 31.628906 30.675781 " fill-opacity="1" fill-rule="nonzero"/><path fill="#4287cf" d="M 23.691406 27.484375 C 23.691406 27.484375 22.875 28.6875 22.203125 29.527344 C 21.230469 28.558594 20.199219 24.792969 19.425781 22.0625 C 18.78125 19.796875 19.539062 17.503906 19.984375 16.4375 C 20.917969 16.40625 21.863281 17.308594 21.992188 17.84375 C 22.207031 18.753906 23.257812 24.851562 23.257812 24.851562 L 23.691406 27.484375 " fill-opacity="1" fill-rule="nonzero"/><path fill="#4287cf" d="M 27.425781 27.90625 L 27.300781 29.832031 C 25.792969 29.855469 23.320312 29.875 22.589844 29.753906 C 22.367188 29.71875 22.136719 29.503906 21.910156 29.15625 C 22.449219 28.363281 23.183594 27.472656 23.183594 27.472656 L 23.691406 27.484375 L 27.425781 27.90625 " fill-opacity="1" fill-rule="nonzero"/><path fill="#387ec6" d="M 27.300781 29.832031 L 27.257812 30.480469 C 27.257812 30.480469 21.585938 30.671875 21.363281 30.3125 C 21.277344 30.167969 21.546875 29.683594 21.910156 29.15625 C 22.136719 29.503906 22.367188 29.71875 22.589844 29.753906 C 23.320312 29.875 25.792969 29.855469 27.300781 29.832031 " fill-opacity="1" fill-rule="nonzero"/><path fill="#387ec6" d="M 22.203125 29.527344 C 21.8125 30.015625 21.46875 30.378906 21.363281 30.3125 C 21.078125 30.128906 19.488281 25.847656 19.488281 25.847656 C 19.296875 25.882812 17.757812 20.3125 18.425781 17.921875 C 18.625 17.21875 19.003906 16.796875 19.449219 16.574219 C 19.625 16.488281 19.804688 16.445312 19.984375 16.4375 C 19.539062 17.503906 18.78125 19.796875 19.425781 22.0625 C 20.199219 24.792969 21.230469 28.558594 22.203125 29.527344 " fill-opacity="1" fill-rule="nonzero"/><path fill="#45a1dd" d="M 26.253906 27.1875 C 26.371094 27.414062 26.40625 27.8125 26.527344 27.601562 C 26.6875 27.316406 27.257812 27.308594 27.410156 27.425781 C 27.515625 27.507812 27.488281 28.574219 27.445312 29.425781 C 27.421875 29.824219 27.398438 30.175781 27.382812 30.355469 C 27.328125 30.910156 27.117188 30.773438 26.734375 30.847656 C 26.355469 30.925781 26.308594 30.324219 26.011719 30.730469 C 25.714844 31.136719 25.257812 30.953125 25.257812 30.953125 C 25.148438 30.75 25.074219 30.523438 25.023438 30.285156 C 24.734375 28.957031 25.21875 27.28125 25.417969 27.082031 C 25.65625 26.851562 26.140625 26.960938 26.253906 27.1875 " fill-opacity="1" fill-rule="nonzero"/><path fill="#2e7f91" d="M 26.363281 29.132812 C 26.457031 29.53125 26.964844 29.65625 27.445312 29.425781 C 27.421875 29.824219 27.398438 30.175781 27.382812 30.355469 C 27.328125 30.910156 27.117188 30.773438 26.734375 30.847656 C 26.355469 30.925781 26.308594 30.324219 26.011719 30.730469 C 25.714844 31.136719 25.257812 30.953125 25.257812 30.953125 C 25.148438 30.75 25.074219 30.523438 25.023438 30.285156 C 25.023438 30.285156 25.964844 30.636719 26.0625 29.992188 C 26.160156 29.347656 26.246094 28.652344 26.363281 29.132812 " fill-opacity="1" fill-rule="nonzero"/><path fill="#d5c9c4" d="M 52.3125 27.855469 C 51.539062 29.007812 49.832031 30.441406 46.140625 30.585938 C 44.445312 30.058594 43.292969 29.035156 43.292969 27.859375 C 43.292969 27.695312 43.3125 27.535156 43.355469 27.378906 C 44.734375 27.867188 46.640625 28.167969 48.746094 28.167969 C 50.035156 28.167969 51.25 28.054688 52.3125 27.855469 " fill-opacity="1" fill-rule="nonzero"/><path fill="#a5a099" d="M 54.203125 27.859375 C 54.203125 29.574219 51.761719 30.960938 48.746094 30.960938 C 47.804688 30.960938 46.917969 30.824219 46.140625 30.585938 C 49.832031 30.441406 51.539062 29.007812 52.3125 27.855469 C 52.988281 27.730469 53.625 27.660156 54.160156 27.46875 C 54.203125 27.625 54.203125 27.695312 54.203125 27.859375 " fill-opacity="1" fill-rule="nonzero"/><path fill="#dbad9c" d="M 54.160156 27.46875 C 54.160156 27.855469 51.742188 28.167969 48.757812 28.167969 C 45.773438 28.167969 43.351562 27.855469 43.351562 27.46875 C 43.351562 27.085938 45.773438 26.773438 48.757812 26.773438 C 51.742188 26.773438 54.160156 27.085938 54.160156 27.46875 " fill-opacity="1" fill-rule="nonzero"/><path fill="#e68159" d="M 48.734375 26.855469 C 47.867188 26.859375 43.992188 27.46875 43.992188 27.46875 C 43.992188 27.132812 46.117188 26.859375 48.734375 26.855469 " fill-opacity="1" fill-rule="nonzero"/><path fill="#e68159" d="M 53.519531 27.46875 C 53.519531 27.46875 49.578125 26.863281 48.757812 26.855469 C 51.386719 26.855469 53.519531 27.128906 53.519531 27.46875 " fill-opacity="1" fill-rule="nonzero"/><path fill="#b0421f" d="M 53.519531 27.46875 L 53.496094 27.535156 C 53.246094 27.84375 51.21875 28.082031 48.757812 28.082031 C 46.125 28.082031 43.992188 27.808594 43.992188 27.46875 C 43.992188 27.46875 47.867188 26.859375 48.734375 26.855469 L 48.757812 26.855469 C 49.578125 26.863281 53.519531 27.46875 53.519531 27.46875 " fill-opacity="1" fill-rule="nonzero"/><path fill="#346d2e" d="M 48.144531 26.90625 C 48.144531 26.90625 52.019531 23.359375 50.878906 18.074219 C 50.878906 18.074219 47.980469 20.976562 48.144531 26.90625 " fill-opacity="1" fill-rule="nonzero"/><path fill="#53b236" d="M 48.480469 27.378906 C 48.480469 27.378906 44.636719 23.886719 45.691406 18.734375 C 45.691406 18.734375 48.582031 21.609375 48.480469 27.378906 " fill-opacity="1" fill-rule="nonzero"/><path fill="#479436" d="M 48.480469 27.378906 C 48.480469 27.378906 46.15625 21.679688 48.292969 16.210938 C 48.292969 16.210938 50.367188 21.863281 48.480469 27.378906 " fill-opacity="1" fill-rule="nonzero"/><path fill="#62c331" d="M 48.480469 27.378906 C 48.480469 27.378906 45.234375 26.414062 44.160156 23.078125 C 44.160156 23.078125 46.671875 23.945312 48.480469 27.378906 " fill-opacity="1" fill-rule="nonzero"/><path fill="#53b236" d="M 48.480469 27.378906 C 48.480469 27.378906 52.851562 24.613281 52.871094 19.371094 C 52.871094 19.371094 49.566406 21.691406 48.480469 27.378906 " fill-opacity="1" fill-rule="nonzero"/><path fill="#62c331" d="M 48.480469 27.378906 C 48.480469 27.378906 51.746094 27.1875 53.714844 24.203125 C 53.714844 24.203125 51.195312 24.46875 48.480469 27.378906 " fill-opacity="1" fill-rule="nonzero"/><path fill="#4287cf" d="M 20.417969 33.027344 C 20.417969 33.027344 19.085938 34.804688 16.238281 34.921875 C 15.078125 34.972656 13.667969 34.746094 11.992188 34.007812 C 11.992188 34.007812 7.207031 24.714844 11.667969 16.214844 L 12.371094 15.828125 L 16.902344 14.210938 L 19.527344 15.132812 C 19.527344 15.132812 20.949219 16.832031 21.84375 17.453125 C 21.84375 17.453125 22.496094 19.734375 19.8125 23.15625 C 16.949219 26.808594 20.417969 33.027344 20.417969 33.027344 " fill-opacity="1" fill-rule="nonzero"/><path fill="#3377bc" d="M 16.539062 31.886719 C 16.519531 33.242188 16.398438 34.21875 16.238281 34.921875 C 15.078125 34.972656 13.667969 34.746094 11.992188 34.007812 C 11.992188 34.007812 7.207031 24.714844 11.667969 16.214844 L 12.371094 15.828125 C 11.785156 17.605469 11.128906 20.472656 12.101562 22.449219 C 13.597656 25.5 16.59375 27.839844 16.539062 31.886719 " fill-opacity="1" fill-rule="nonzero"/><path fill="#45a1dd" d="M 19.613281 33.777344 C 19.414062 33.925781 19.175781 34.078125 18.898438 34.226562 C 16.546875 29.886719 16.460938 25.21875 16.671875 22.0625 C 16.917969 18.386719 17.949219 15.574219 17.988281 15.464844 L 19.070312 15.597656 C 19.0625 15.621094 17.667969 18.496094 17.429688 22.09375 C 17.230469 25.15625 17.320312 29.59375 19.613281 33.777344 " fill-opacity="1" fill-rule="nonzero"/><path fill="#f89c87" d="M 17.8125 18.660156 C 17.777344 18.847656 17.632812 18.980469 17.488281 18.953125 C 17.347656 18.929688 17.257812 18.753906 17.292969 18.5625 C 17.328125 18.375 17.472656 18.242188 17.617188 18.265625 C 17.757812 18.292969 17.847656 18.46875 17.8125 18.660156 " fill-opacity="1" fill-rule="nonzero"/><path fill="#f89c87" d="M 17.359375 21.777344 C 17.34375 21.96875 17.214844 22.117188 17.070312 22.105469 C 16.925781 22.089844 16.820312 21.925781 16.835938 21.734375 C 16.855469 21.539062 16.984375 21.394531 17.128906 21.40625 C 17.277344 21.421875 17.378906 21.585938 17.359375 21.777344 " fill-opacity="1" fill-rule="nonzero"/><path fill="#f89c87" d="M 17.273438 24.902344 C 17.273438 25.09375 17.15625 25.25 17.011719 25.25 C 16.867188 25.25 16.75 25.09375 16.75 24.902344 C 16.75 24.710938 16.867188 24.554688 17.011719 24.554688 C 17.15625 24.554688 17.273438 24.710938 17.273438 24.902344 " fill-opacity="1" fill-rule="nonzero"/><path fill="#f89c87" d="M 17.613281 28.433594 C 17.621094 28.625 17.511719 28.785156 17.367188 28.792969 C 17.222656 28.800781 17.097656 28.648438 17.089844 28.457031 C 17.082031 28.261719 17.191406 28.101562 17.335938 28.09375 C 17.480469 28.089844 17.605469 28.238281 17.613281 28.433594 " fill-opacity="1" fill-rule="nonzero"/><path fill="#f89c87" d="M 18.316406 31.429688 C 18.359375 31.617188 18.28125 31.792969 18.140625 31.828125 C 18 31.859375 17.847656 31.738281 17.804688 31.546875 C 17.757812 31.359375 17.835938 31.179688 17.976562 31.148438 C 18.121094 31.113281 18.269531 31.238281 18.316406 31.429688 " fill-opacity="1" fill-rule="nonzero"/><path fill="#c95e24" d="M 20.527344 14.070312 L 20.144531 15.375 L 18.960938 15.617188 C 18.199219 15.339844 17.605469 14.796875 17.238281 14.378906 C 18.074219 14.121094 19.347656 13.84375 20.527344 14.070312 " fill-opacity="1" fill-rule="nonzero"/><path fill="#964e1d" d="M 20.871094 12.886719 L 20.527344 14.070312 C 19.347656 13.84375 18.074219 14.121094 17.238281 14.378906 C 16.964844 14.070312 16.816406 13.832031 16.816406 13.832031 L 17.867188 11.253906 L 20.871094 12.886719 " fill-opacity="1" fill-rule="nonzero"/><path fill="#87c4e3" d="M 15.839844 14.589844 L 15.976562 14.542969 L 15.839844 14.589844 M 16.128906 14.488281 L 16.121094 14.449219 L 16.621094 13.820312 C 16.671875 13.917969 16.75 14.058594 16.863281 14.226562 L 16.128906 14.488281 " fill-opacity="1" fill-rule="nonzero"/><path fill="#3c83cd" d="M 16.273438 17.113281 L 15.707031 14.726562 L 15.839844 14.589844 L 15.976562 14.542969 L 16.128906 14.488281 L 16.863281 14.226562 C 17.085938 14.558594 17.445312 15.007812 17.984375 15.464844 C 17.972656 15.5 17.859375 15.816406 17.699219 16.351562 L 16.273438 17.113281 " fill-opacity="1" fill-rule="nonzero"/><path fill="#3e90d1" d="M 17.699219 16.351562 C 17.859375 15.816406 17.972656 15.5 17.984375 15.464844 C 18.15625 15.609375 18.34375 15.753906 18.546875 15.894531 L 17.699219 16.351562 " fill-opacity="1" fill-rule="nonzero"/><path fill="#87c4e3" d="M 20.050781 15.734375 C 19.96875 15.644531 19.894531 15.558594 19.828125 15.484375 C 19.886719 15.457031 19.925781 15.445312 19.925781 15.445312 L 20.050781 15.734375 " fill-opacity="1" fill-rule="nonzero"/><path fill="#3c83cd" d="M 19.355469 17.636719 L 18.753906 16.339844 C 18.847656 16.097656 18.929688 15.910156 18.984375 15.78125 C 19.324219 15.679688 19.664062 15.546875 19.828125 15.484375 C 19.894531 15.558594 19.96875 15.644531 20.050781 15.734375 L 20.289062 16.273438 L 19.355469 17.636719 " fill-opacity="1" fill-rule="nonzero"/><path fill="#3e90d1" d="M 18.753906 16.339844 L 18.546875 15.898438 C 18.679688 15.871094 18.832031 15.828125 18.984375 15.78125 C 18.929688 15.910156 18.847656 16.097656 18.753906 16.339844 " fill-opacity="1" fill-rule="nonzero"/><path fill="#45a1dd" d="M 16.960938 13.394531 C 16.960938 13.394531 17.425781 14.558594 18.960938 15.617188 L 16.6875 16.832031 L 16.121094 14.449219 L 16.960938 13.394531 " fill-opacity="1" fill-rule="nonzero"/><path fill="#45a1dd" d="M 20.335938 15.164062 C 20.335938 15.164062 19.507812 15.507812 18.960938 15.621094 L 19.769531 17.359375 L 20.699219 15.996094 L 20.335938 15.164062 " fill-opacity="1" fill-rule="nonzero"/><path fill="#f89c87" d="M 13.804688 20.976562 L 14.859375 19.734375 L 15.648438 21.199219 Z M 13.804688 20.976562 " fill-opacity="1" fill-rule="nonzero"/><path fill="#45a1dd" d="M 13.308594 20.824219 L 16.007812 20.824219 L 15.835938 23.40625 L 14.507812 24.125 L 13.441406 23.320312 L 13.308594 20.824219 " fill-opacity="1" fill-rule="nonzero"/><path fill="#c95e24" d="M 25.078125 7.578125 C 24.984375 8.195312 24.621094 8.914062 24.625 9.488281 C 24.632812 10.070312 24.605469 10.472656 24.136719 10.988281 C 23.667969 11.503906 23.648438 12.921875 23.503906 13.199219 C 23.359375 13.476562 23.027344 13.769531 23.015625 14.191406 C 23 14.613281 22.832031 14.941406 22.472656 15.160156 C 22.113281 15.375 21.4375 15.164062 20.65625 15.039062 C 19.875 14.910156 16.875 12.566406 16.425781 11.902344 C 15.976562 11.234375 16.285156 9.566406 16.285156 9.566406 C 16.285156 9.566406 16.179688 9.441406 16.019531 9.21875 L 16.019531 9.214844 C 15.773438 5.515625 16.390625 4.617188 17.222656 3.324219 C 21.769531 1.007812 24.796875 4.15625 24.796875 4.15625 C 25.375 4.738281 25.167969 6.960938 25.078125 7.578125 " fill-opacity="1" fill-rule="nonzero"/><path fill="#100f0d" d="M 23.503906 13.199219 C 23.359375 13.476562 23.027344 13.769531 23.015625 14.191406 C 23 14.613281 22.832031 14.941406 22.472656 15.160156 C 22.113281 15.375 21.4375 15.164062 20.65625 15.039062 C 19.875 14.910156 16.875 12.566406 16.425781 11.902344 C 15.976562 11.234375 16.285156 9.566406 16.285156 9.566406 C 16.285156 9.566406 16.179688 9.441406 16.019531 9.214844 C 16.472656 8.695312 16.824219 8.285156 16.824219 8.285156 L 17.410156 8.355469 C 17.410156 8.355469 17.335938 9.136719 17.550781 9.347656 C 17.769531 9.558594 20.191406 13.160156 20.457031 13.410156 C 20.726562 13.664062 21.277344 13.855469 21.402344 13.722656 C 21.53125 13.59375 21.566406 13.5625 21.25 13.332031 L 21.320312 13.011719 C 21.320312 13.011719 21.859375 13.375 22.730469 13.144531 C 22.730469 13.144531 22.761719 13.4375 22.648438 13.507812 C 22.648438 13.507812 22.253906 13.566406 22.550781 13.796875 C 22.847656 14.023438 23.304688 12.90625 23.304688 12.90625 C 23.304688 12.90625 23.800781 11.390625 23.921875 11.34375 C 23.9375 11.335938 23.882812 11.378906 23.90625 11.386719 C 23.652344 12.023438 23.617188 12.976562 23.503906 13.199219 " fill-opacity="1" fill-rule="nonzero"/><path fill="#100f0d" d="M 23.597656 7.476562 C 23.597656 7.476562 23.328125 7.960938 23.597656 7.972656 C 24.058594 7.992188 24.542969 8.046875 24.8125 8.226562 C 24.890625 8.28125 25 8.269531 25.054688 8.191406 C 25.089844 8.140625 25.117188 8.074219 25.101562 8.011719 C 25.0625 7.851562 24.257812 7.410156 23.597656 7.476562 " fill-opacity="1" fill-rule="nonzero"/><path fill="#ffffff" d="M 22.148438 8.765625 C 20.972656 9.335938 20.476562 8.421875 20.476562 8.421875 L 20.480469 8.417969 C 20.542969 8.253906 20.796875 8.164062 20.996094 8.117188 C 21.179688 8.074219 21.378906 8.074219 21.558594 8.132812 C 22.058594 8.308594 22.148438 8.765625 22.148438 8.765625 " fill-opacity="1" fill-rule="nonzero"/><path fill="#481715" d="M 21.730469 8.914062 C 21.46875 8.976562 21.253906 8.957031 21.082031 8.898438 C 21.011719 8.828125 20.960938 8.738281 20.941406 8.632812 C 20.9375 8.609375 20.9375 8.589844 20.9375 8.570312 C 20.933594 8.484375 20.949219 8.40625 20.980469 8.335938 C 21.03125 8.222656 21.121094 8.132812 21.230469 8.089844 C 21.28125 8.070312 21.332031 8.054688 21.386719 8.054688 C 21.550781 8.042969 21.703125 8.125 21.792969 8.253906 C 21.847656 8.328125 21.882812 8.421875 21.886719 8.523438 C 21.894531 8.679688 21.832031 8.820312 21.730469 8.914062 " fill-opacity="1" fill-rule="nonzero"/><path fill="#100f0d" d="M 21.167969 8.578125 C 21.175781 8.710938 21.285156 8.8125 21.414062 8.804688 C 21.542969 8.800781 21.640625 8.6875 21.632812 8.554688 C 21.628906 8.421875 21.519531 8.320312 21.390625 8.324219 C 21.261719 8.332031 21.164062 8.445312 21.167969 8.578125 " fill-opacity="1" fill-rule="nonzero"/><path fill="#b4b5b3" d="M 20.941406 8.632812 C 20.90625 8.601562 20.878906 8.554688 20.875 8.5 C 20.871094 8.425781 20.917969 8.359375 20.980469 8.332031 C 20.980469 8.335938 20.980469 8.335938 20.980469 8.335938 C 20.949219 8.40625 20.933594 8.484375 20.9375 8.570312 C 20.9375 8.589844 20.9375 8.609375 20.941406 8.632812 " fill-opacity="1" fill-rule="nonzero"/><path fill="#968e8d" d="M 21.042969 8.664062 C 21.003906 8.664062 20.972656 8.652344 20.941406 8.632812 C 20.9375 8.609375 20.9375 8.589844 20.9375 8.570312 C 20.933594 8.484375 20.949219 8.40625 20.980469 8.335938 C 20.980469 8.335938 20.980469 8.335938 20.980469 8.332031 C 20.996094 8.328125 21.015625 8.324219 21.03125 8.320312 C 21.035156 8.320312 21.039062 8.320312 21.039062 8.320312 C 21.117188 8.320312 21.179688 8.375 21.199219 8.445312 C 21.179688 8.484375 21.167969 8.53125 21.167969 8.578125 C 21.171875 8.585938 21.171875 8.59375 21.171875 8.597656 C 21.144531 8.636719 21.101562 8.664062 21.050781 8.664062 C 21.046875 8.664062 21.042969 8.664062 21.042969 8.664062 " fill-opacity="1" fill-rule="nonzero"/><path fill="#8a8e8e" d="M 21.171875 8.597656 C 21.171875 8.59375 21.171875 8.585938 21.167969 8.578125 C 21.167969 8.53125 21.179688 8.484375 21.199219 8.445312 C 21.203125 8.457031 21.207031 8.472656 21.207031 8.484375 C 21.207031 8.527344 21.195312 8.570312 21.171875 8.597656 " fill-opacity="1" fill-rule="nonzero"/><path fill="#ab3f1f" d="M 22.148438 8.765625 C 22.148438 8.765625 22.058594 8.308594 21.558594 8.132812 C 21.378906 8.074219 21.179688 8.074219 20.996094 8.117188 C 20.796875 8.164062 20.542969 8.253906 20.480469 8.417969 C 20.488281 8.355469 20.566406 7.878906 21.140625 7.8125 C 21.757812 7.746094 22.15625 8.148438 22.148438 8.765625 " fill-opacity="1" fill-rule="nonzero"/><path fill="#ffffff" d="M 24.578125 9.074219 L 24.578125 9.078125 C 24.578125 9.078125 24.453125 9.210938 24.25 9.28125 C 24.082031 9.335938 23.867188 9.347656 23.628906 9.207031 C 23.5 9.132812 23.367188 9.011719 23.230469 8.828125 C 23.230469 8.828125 23.445312 8.429688 23.871094 8.441406 C 23.9375 8.441406 24.003906 8.457031 24.066406 8.480469 C 24.125 8.503906 24.179688 8.535156 24.230469 8.570312 L 24.230469 8.574219 C 24.253906 8.585938 24.273438 8.601562 24.292969 8.617188 C 24.425781 8.730469 24.582031 8.898438 24.578125 9.074219 " fill-opacity="1" fill-rule="nonzero"/><path fill="#481715" d="M 24.320312 9.148438 C 24.3125 9.167969 24.304688 9.1875 24.296875 9.207031 C 24.28125 9.230469 24.265625 9.257812 24.25 9.28125 C 24.082031 9.335938 23.867188 9.347656 23.628906 9.207031 L 23.621094 9.203125 C 23.601562 9.144531 23.589844 9.085938 23.589844 9.019531 C 23.585938 8.941406 23.601562 8.859375 23.628906 8.78125 C 23.636719 8.757812 23.648438 8.738281 23.65625 8.722656 C 23.691406 8.65625 23.734375 8.601562 23.785156 8.558594 C 23.871094 8.492188 23.972656 8.460938 24.066406 8.480469 C 24.09375 8.488281 24.125 8.5 24.152344 8.511719 C 24.179688 8.527344 24.207031 8.546875 24.230469 8.570312 L 24.230469 8.574219 L 24.253906 8.597656 C 24.324219 8.679688 24.359375 8.792969 24.363281 8.914062 C 24.363281 8.992188 24.351562 9.070312 24.320312 9.148438 " fill-opacity="1" fill-rule="nonzero"/><path fill="#100f0d" d="M 24.144531 9.078125 C 24.097656 9.199219 23.984375 9.257812 23.890625 9.207031 C 23.796875 9.15625 23.761719 9.019531 23.808594 8.898438 C 23.855469 8.773438 23.96875 8.714844 24.0625 8.765625 C 24.15625 8.816406 24.191406 8.953125 24.144531 9.078125 " fill-opacity="1" fill-rule="nonzero"/><path fill="#b4b5b3" d="M 23.589844 9.027344 C 23.53125 8.984375 23.507812 8.890625 23.539062 8.8125 C 23.5625 8.75 23.609375 8.710938 23.664062 8.710938 C 23.664062 8.714844 23.660156 8.71875 23.65625 8.722656 C 23.648438 8.738281 23.636719 8.757812 23.628906 8.78125 C 23.601562 8.859375 23.585938 8.941406 23.589844 9.019531 C 23.589844 9.023438 23.589844 9.023438 23.589844 9.027344 " fill-opacity="1" fill-rule="nonzero"/><path fill="#968e8d" d="M 23.664062 9.054688 C 23.644531 9.054688 23.625 9.050781 23.609375 9.039062 C 23.601562 9.035156 23.59375 9.03125 23.589844 9.027344 C 23.589844 9.023438 23.589844 9.023438 23.589844 9.019531 C 23.585938 8.941406 23.601562 8.859375 23.628906 8.78125 C 23.636719 8.757812 23.648438 8.738281 23.65625 8.722656 C 23.660156 8.71875 23.664062 8.714844 23.664062 8.710938 C 23.667969 8.710938 23.667969 8.707031 23.671875 8.707031 C 23.691406 8.707031 23.710938 8.714844 23.726562 8.722656 C 23.78125 8.753906 23.816406 8.820312 23.8125 8.886719 C 23.808594 8.890625 23.808594 8.894531 23.808594 8.898438 C 23.796875 8.921875 23.792969 8.945312 23.789062 8.96875 C 23.761719 9.023438 23.714844 9.054688 23.664062 9.054688 " fill-opacity="1" fill-rule="nonzero"/><path fill="#8a8e8e" d="M 23.789062 8.96875 C 23.792969 8.945312 23.796875 8.921875 23.808594 8.898438 C 23.808594 8.894531 23.808594 8.890625 23.8125 8.886719 C 23.808594 8.910156 23.804688 8.929688 23.796875 8.949219 C 23.796875 8.957031 23.792969 8.964844 23.789062 8.96875 " fill-opacity="1" fill-rule="nonzero"/><path fill="#ab3f1f" d="M 23.230469 8.828125 C 23.230469 8.828125 23.441406 8.464844 23.867188 8.472656 C 24.019531 8.476562 24.167969 8.515625 24.292969 8.617188 C 24.425781 8.730469 24.582031 8.898438 24.578125 9.074219 C 24.59375 9.015625 24.6875 8.539062 24.28125 8.285156 C 23.847656 8.007812 23.421875 8.25 23.230469 8.828125 " fill-opacity="1" fill-rule="nonzero"/><path fill="#c95e24" d="M 22.925781 8.078125 L 23.257812 8.222656 L 23.503906 9.640625 L 22.636719 9.769531 L 22.925781 8.078125 " fill-opacity="1" fill-rule="nonzero"/><path fill="#100f0d" d="M 22.613281 11.65625 C 22.613281 11.65625 22.472656 11.953125 22.152344 11.859375 C 21.828125 11.765625 20.71875 11.414062 19.855469 12.605469 L 19.699219 12.511719 C 19.699219 12.511719 19.925781 11.183594 20.636719 11.171875 C 21.347656 11.15625 22.269531 11.417969 22.660156 11.242188 L 22.613281 11.65625 " fill-opacity="1" fill-rule="nonzero"/><path fill="#100f0d" d="M 23.46875 12.558594 C 23.46875 12.558594 23.472656 12.207031 23.289062 12.113281 C 23.105469 12.019531 22.960938 11.972656 22.757812 11.921875 C 22.550781 11.871094 22.59375 11.496094 22.59375 11.496094 L 22.660156 11.242188 C 22.660156 11.242188 23.105469 11.558594 23.5 11.625 C 23.753906 11.667969 23.601562 12.335938 23.601562 12.335938 L 23.46875 12.558594 " fill-opacity="1" fill-rule="nonzero"/><path fill="#2d2c2e" d="M 19.234375 4.40625 L 18.46875 6.558594 C 18.46875 6.558594 17.671875 7.179688 17.410156 8.355469 L 15.976562 8.367188 C 15.976562 8.367188 15.402344 5.121094 17.222656 3.324219 L 19.234375 4.40625 " fill-opacity="1" fill-rule="nonzero"/><path fill="#100f0d" d="M 25.523438 4.507812 C 25.035156 4.851562 23.976562 5.316406 22.054688 4.972656 C 22.054688 4.972656 24.390625 3.882812 23.222656 2.234375 C 22.414062 1.09375 20.308594 1.433594 19.039062 1.765625 C 20.792969 0.785156 22.644531 1.242188 24.230469 1.933594 C 26.089844 2.746094 25.222656 3.863281 25.523438 4.507812 " fill-opacity="1" fill-rule="nonzero"/><path fill="#2d2c2e" d="M 22.054688 4.972656 C 22.054688 4.972656 21.441406 4.476562 19.820312 3.898438 C 18.195312 3.320312 16.210938 4.722656 15.347656 4.503906 C 14.484375 4.285156 14.847656 3.511719 14.847656 3.511719 C 14.726562 4.039062 15.894531 4.59375 17.945312 2.597656 C 18.300781 2.25 18.667969 1.976562 19.039062 1.765625 C 20.308594 1.433594 22.414062 1.09375 23.222656 2.234375 C 24.390625 3.882812 22.054688 4.972656 22.054688 4.972656 " fill-opacity="1" fill-rule="nonzero"/><path fill="#100f0d" d="M 22.054688 4.972656 C 22.054688 4.972656 18.078125 3.203125 14.761719 6.230469 C 14.761719 6.230469 18.253906 1.207031 22.054688 4.972656 " fill-opacity="1" fill-rule="nonzero"/><path fill="#2d2c2e" d="M 25.148438 5.53125 C 23.792969 5.625 22.054688 4.972656 22.054688 4.972656 C 23.976562 5.316406 25.035156 4.851562 25.523438 4.507812 C 25.535156 4.53125 25.542969 4.550781 25.558594 4.574219 C 25.949219 5.207031 25.148438 5.53125 25.148438 5.53125 " fill-opacity="1" fill-rule="nonzero"/><path fill="#c95e24" d="M 16.808594 8.082031 C 16.808594 8.082031 16.65625 6.757812 15.609375 6.671875 C 14.566406 6.582031 14.378906 8.507812 15.136719 9.273438 C 15.898438 10.035156 16.476562 9.710938 16.476562 9.710938 C 16.476562 9.710938 17.039062 9.433594 16.808594 8.082031 " fill-opacity="1" fill-rule="nonzero"/><path fill="#8e341c" d="M 15.957031 8.71875 C 16.039062 8.433594 16.402344 7.953125 16.359375 7.710938 C 16.320312 7.472656 15.980469 7.074219 15.445312 7.214844 C 15.445312 7.214844 16.355469 7.21875 16.183594 7.875 C 15.8125 7.566406 15.523438 7.785156 15.523438 7.785156 C 15.871094 7.785156 16.0625 7.878906 16.160156 7.960938 C 15.96875 8.582031 15.753906 8.726562 15.9375 8.914062 C 16.125 9.109375 16.296875 9.039062 16.296875 9.039062 C 16.296875 9.039062 15.875 9 15.957031 8.71875 " fill-opacity="1" fill-rule="nonzero"/><path fill="#100f0d" d="M 22.75 7.25 C 22.585938 7.164062 21.222656 6.789062 20.121094 7.109375 C 20.113281 7.191406 20.121094 7.289062 20.15625 7.394531 C 20.488281 7.332031 20.890625 7.292969 21.203125 7.347656 C 21.859375 7.464844 22.273438 7.859375 22.574219 7.753906 C 22.878906 7.644531 22.945312 7.355469 22.75 7.25 " fill-opacity="1" fill-rule="nonzero"/><path fill="#cc4820" d="M 21.980469 10.238281 C 21.980469 10.238281 22.425781 10.007812 22.476562 10.304688 C 22.527344 10.601562 23.488281 10.757812 23.621094 10.542969 C 23.621094 10.542969 23.765625 10.828125 23.675781 10.953125 C 23.585938 11.078125 23.390625 11.25 23.390625 11.25 L 23.203125 11.273438 L 22.980469 11.109375 L 22.789062 10.945312 L 22.542969 10.910156 L 22.171875 10.902344 L 21.914062 10.867188 L 21.742188 10.769531 L 21.6875 10.636719 L 21.765625 10.449219 L 21.980469 10.238281 " fill-opacity="1" fill-rule="nonzero"/><path fill="#91231d" d="M 21.980469 10.238281 C 21.980469 10.238281 21.625 10.429688 21.652344 10.664062 C 21.679688 10.898438 22.050781 10.957031 22.507812 10.953125 C 22.734375 10.949219 22.851562 11.042969 22.953125 11.136719 C 23.058594 11.234375 23.140625 11.332031 23.296875 11.320312 C 23.605469 11.296875 23.773438 11.046875 23.777344 10.914062 C 23.777344 10.78125 23.226562 8.292969 23.296875 8.054688 C 23.296875 8.054688 23.214844 8.15625 23.277344 8.472656 C 23.335938 8.792969 23.667969 10.644531 23.644531 10.851562 C 23.621094 11.058594 23.316406 11.285156 23.183594 11.21875 C 23.046875 11.152344 22.863281 10.847656 22.667969 10.863281 C 22.46875 10.875 21.972656 10.90625 21.835938 10.777344 C 21.695312 10.652344 21.699219 10.617188 21.980469 10.238281 " fill-opacity="1" fill-rule="nonzero"/><path fill="#b87d55" d="M 23.292969 10.640625 C 23.203125 10.640625 23.105469 10.632812 23.007812 10.613281 C 23.007812 10.609375 23.007812 10.605469 23.007812 10.601562 C 23.011719 10.515625 23.136719 10.445312 23.292969 10.445312 C 23.292969 10.445312 23.296875 10.445312 23.300781 10.445312 C 23.441406 10.449219 23.558594 10.507812 23.578125 10.582031 C 23.519531 10.625 23.414062 10.640625 23.292969 10.640625 " fill-opacity="1" fill-rule="nonzero"/><path fill="#b96e40" d="M 23.296875 10.765625 C 23.296875 10.765625 23.292969 10.765625 23.292969 10.765625 C 23.140625 10.761719 23.019531 10.695312 23.007812 10.613281 C 23.105469 10.632812 23.203125 10.640625 23.292969 10.640625 C 23.414062 10.640625 23.519531 10.625 23.578125 10.582031 C 23.582031 10.589844 23.582031 10.601562 23.582031 10.609375 C 23.578125 10.695312 23.453125 10.765625 23.296875 10.765625 " fill-opacity="1" fill-rule="nonzero"/><path fill="#7c2222" d="M 22.839844 12.738281 C 22.757812 12.902344 22.59375 13.015625 22.507812 13.035156 C 22.425781 13.058594 21.707031 12.945312 21.585938 12.898438 C 21.46875 12.851562 21.160156 12.492188 21.136719 12.460938 C 21.15625 12.480469 21.476562 12.777344 21.621094 12.808594 C 21.765625 12.84375 22.40625 12.996094 22.535156 12.945312 C 22.660156 12.898438 22.839844 12.738281 22.839844 12.738281 " fill-opacity="1" fill-rule="nonzero"/><path fill="#7c2222" d="M 23.144531 12.328125 L 23.140625 12.367188 C 23.140625 12.367188 22.402344 12.421875 22.308594 12.414062 C 21.941406 12.386719 20.90625 11.980469 20.90625 11.980469 L 20.910156 11.929688 L 20.921875 11.933594 C 21.089844 12.007812 21.921875 12.277344 22.316406 12.316406 C 22.773438 12.359375 23.042969 12.335938 23.125 12.332031 L 23.144531 12.328125 " fill-opacity="1" fill-rule="nonzero"/><path fill="#7c2222" d="M 20.75 12.078125 C 20.75 12.078125 20.921875 11.945312 21.03125 11.921875 C 21.144531 11.898438 20.917969 11.824219 20.808594 11.902344 C 20.695312 11.980469 20.75 12.078125 20.75 12.078125 " fill-opacity="1" fill-rule="nonzero"/><path fill="#7c2222" d="M 23.097656 12.269531 C 23.097656 12.269531 23.144531 12.363281 23.128906 12.449219 C 23.113281 12.53125 23.226562 12.496094 23.234375 12.410156 C 23.246094 12.324219 23.171875 12.214844 23.144531 12.226562 C 23.113281 12.234375 23.097656 12.269531 23.097656 12.269531 " fill-opacity="1" fill-rule="nonzero"/><path fill="#131d2f" d="M 45.132812 13.59375 L 24.953125 13.59375 C 24.65625 13.59375 24.414062 13.835938 24.414062 14.128906 L 24.414062 27.003906 C 24.414062 27.300781 24.65625 27.539062 24.953125 27.539062 L 45.132812 27.539062 C 45.429688 27.539062 45.671875 27.300781 45.671875 27.003906 L 45.671875 14.128906 C 45.671875 13.835938 45.429688 13.59375 45.132812 13.59375 " fill-opacity="1" fill-rule="nonzero"/><g clip-path="url(#3ead59be21)"><g clip-path="url(#62196a6d66)"><g clip-path="url(#a9b4729b86)"><g clip-path="url(#60c01a9491)"><path fill="url(#3e7d8cf465)" d="M 46.230469 12.421875 L 24.261719 13.636719 L 25.105469 28.710938 L 47.070312 27.496094 Z M 46.230469 12.421875 " fill-rule="nonzero"/></g></g></g></g><path fill="#2951ab" d="M 38.828125 27.996094 L 33.980469 27.996094 L 33.980469 18.703125 L 38.828125 18.703125 L 38.828125 27.996094 " fill-opacity="1" fill-rule="nonzero"/><path fill="#141822" d="M 33.496094 27.996094 L 33.980469 27.996094 L 33.980469 18.703125 L 33.496094 18.703125 L 33.496094 27.996094 " fill-opacity="1" fill-rule="nonzero"/><path fill="#1a294a" d="M 39.0625 30.003906 L 37.34375 30.003906 L 35.546875 24.488281 L 37.269531 24.488281 L 39.0625 30.003906 " fill-opacity="1" fill-rule="nonzero"/><path fill="#131d2f" d="M 35.546875 24.488281 L 35.546875 25.277344 L 36.40625 30.003906 L 37.34375 30.003906 L 35.546875 24.488281 " fill-opacity="1" fill-rule="nonzero"/><path fill="#1a294a" d="M 42.523438 30.53125 L 34.132812 30.53125 L 34.132812 29.769531 L 42.523438 29.769531 L 42.523438 30.53125 " fill-opacity="1" fill-rule="nonzero"/><path fill="#131d2f" d="M 34.132812 29.769531 L 29.542969 30.152344 L 29.542969 30.53125 L 34.132812 30.53125 L 34.132812 29.769531 " fill-opacity="1" fill-rule="nonzero"/><path fill="#191a19" d="M 52.984375 32.679688 L 42.609375 32.679688 L 42.609375 59.3125 L 52.984375 59.3125 Z M 41.953125 31.953125 L 53.640625 31.953125 L 53.640625 60.039062 L 41.953125 60.039062 L 41.953125 31.953125 " fill-opacity="1" fill-rule="nonzero"/><path fill="#191a19" d="M 42.175781 41.703125 L 53.25 41.703125 L 53.25 40.976562 L 42.175781 40.976562 L 42.175781 41.703125 " fill-opacity="1" fill-rule="nonzero"/><path fill="#191a19" d="M 42.261719 51.675781 L 53.335938 51.675781 L 53.335938 50.949219 L 42.261719 50.949219 L 42.261719 51.675781 " fill-opacity="1" fill-rule="nonzero"/><path fill="#303839" d="M 52.328125 32.679688 L 41.953125 32.679688 L 41.953125 59.3125 L 52.328125 59.3125 Z M 41.296875 31.953125 L 52.984375 31.953125 L 52.984375 60.039062 L 41.296875 60.039062 L 41.296875 31.953125 " fill-opacity="1" fill-rule="nonzero"/><path fill="#303839" d="M 41.519531 41.703125 L 52.59375 41.703125 L 52.59375 40.976562 L 41.519531 40.976562 L 41.519531 41.703125 " fill-opacity="1" fill-rule="nonzero"/><path fill="#303839" d="M 41.605469 51.675781 L 52.679688 51.675781 L 52.679688 50.949219 L 41.605469 50.949219 L 41.605469 51.675781 " fill-opacity="1" fill-rule="nonzero"/><path fill="#f25331" d="M 45.601562 39.664062 L 52.59375 39.664062 L 52.59375 40.976562 L 45.601562 40.976562 L 45.601562 39.664062 " fill-opacity="1" fill-rule="nonzero"/><path fill="#f25331" d="M 45.601562 49.636719 L 52.59375 49.636719 L 52.59375 50.949219 L 45.601562 50.949219 L 45.601562 49.636719 " fill-opacity="1" fill-rule="nonzero"/><path fill="#191a19" d="M 45.601562 32.679688 L 35.226562 32.679688 L 35.226562 59.3125 L 45.601562 59.3125 Z M 34.570312 31.953125 L 46.257812 31.953125 L 46.257812 60.039062 L 34.570312 60.039062 L 34.570312 31.953125 " fill-opacity="1" fill-rule="nonzero"/><path fill="#191a19" d="M 34.789062 41.703125 L 45.867188 41.703125 L 45.867188 40.976562 L 34.789062 40.976562 L 34.789062 41.703125 " fill-opacity="1" fill-rule="nonzero"/><path fill="#191a19" d="M 34.875 51.675781 L 45.953125 51.675781 L 45.953125 50.949219 L 34.875 50.949219 L 34.875 51.675781 " fill-opacity="1" fill-rule="nonzero"/><path fill="#303839" d="M 44.945312 32.679688 L 34.570312 32.679688 L 34.570312 59.3125 L 44.945312 59.3125 Z M 33.914062 31.953125 L 45.601562 31.953125 L 45.601562 60.039062 L 33.914062 60.039062 L 33.914062 31.953125 " fill-opacity="1" fill-rule="nonzero"/><path fill="#303839" d="M 34.132812 41.703125 L 45.210938 41.703125 L 45.210938 40.976562 L 34.132812 40.976562 L 34.132812 41.703125 " fill-opacity="1" fill-rule="nonzero"/><path fill="#303839" d="M 34.222656 51.675781 L 45.296875 51.675781 L 45.296875 50.949219 L 34.222656 50.949219 L 34.222656 51.675781 " fill-opacity="1" fill-rule="nonzero"/><path fill="#191a19" d="M 18.804688 32.679688 L 8.429688 32.679688 L 8.429688 59.3125 L 18.804688 59.3125 Z M 7.773438 31.953125 L 19.460938 31.953125 L 19.460938 60.039062 L 7.773438 60.039062 L 7.773438 31.953125 " fill-opacity="1" fill-rule="nonzero"/><path fill="#303839" d="M 18.148438 32.679688 L 7.773438 32.679688 L 7.773438 59.3125 L 18.148438 59.3125 Z M 7.117188 31.953125 L 18.804688 31.953125 L 18.804688 60.039062 L 7.117188 60.039062 L 7.117188 31.953125 " fill-opacity="1" fill-rule="nonzero"/><path fill="#e53122" d="M 34.894531 49.636719 L 44.945312 49.636719 L 44.945312 50.949219 L 34.894531 50.949219 L 34.894531 49.636719 " fill-opacity="1" fill-rule="nonzero"/><path fill="#e53122" d="M 34.894531 39.664062 L 44.945312 39.664062 L 44.945312 40.976562 L 34.894531 40.976562 L 34.894531 39.664062 " fill-opacity="1" fill-rule="nonzero"/><g clip-path="url(#648b92dbc1)"><path fill="#e53122" d="M 5.613281 32.621094 L 55.542969 32.621094 L 55.542969 30.519531 L 5.613281 30.519531 L 5.613281 32.621094 " fill-opacity="1" fill-rule="nonzero"/></g><g clip-path="url(#b577c2f248)"><path fill="#f25331" d="M 5.394531 32.679688 L 18.320312 32.679688 L 18.320312 30.578125 L 5.394531 30.578125 L 5.394531 32.679688 " fill-opacity="1" fill-rule="nonzero"/></g><path fill="#212730" d="M 23.730469 30.449219 C 23.730469 30.472656 23.730469 30.5 23.726562 30.523438 L 19.585938 30.523438 C 19.574219 30.46875 19.570312 30.410156 19.570312 30.351562 C 19.582031 29.589844 20.523438 28.992188 21.671875 29.019531 C 22.820312 29.042969 23.742188 29.683594 23.730469 30.449219 " fill-opacity="1" fill-rule="nonzero"/><path fill="#c95e24" d="M 23.03125 28.414062 L 22.71875 28.644531 L 22.695312 28.660156 L 22.558594 28.761719 L 22.550781 28.769531 L 22.535156 28.78125 L 22.515625 28.792969 L 22.5 28.808594 L 22.40625 28.878906 L 22.386719 28.894531 L 22.324219 28.941406 L 22.3125 28.949219 L 22.160156 29.066406 L 21.964844 29.210938 L 21.902344 29.257812 L 21.898438 29.261719 L 21.882812 29.273438 L 21.816406 29.324219 L 21.808594 29.332031 L 21.699219 29.410156 L 21.601562 29.484375 L 21.597656 29.488281 L 21.554688 29.519531 L 21.542969 29.53125 L 21.496094 29.566406 C 21.496094 29.566406 21.488281 29.570312 21.472656 29.578125 L 21.464844 29.582031 C 21.449219 29.589844 21.429688 29.597656 21.40625 29.609375 C 21.328125 29.523438 21.226562 29.464844 21.152344 29.429688 C 21.101562 29.445312 21.050781 29.460938 21.003906 29.472656 C 20.472656 29.621094 20.101562 29.664062 19.839844 29.652344 C 19.800781 29.648438 19.761719 29.648438 19.726562 29.644531 L 19.699219 29.640625 C 19.539062 29.617188 19.4375 29.578125 19.375 29.535156 C 19.339844 29.511719 19.3125 29.488281 19.300781 29.472656 L 19.285156 29.449219 C 19.28125 29.410156 19.289062 29.359375 19.3125 29.304688 L 19.324219 29.28125 C 19.414062 29.101562 19.648438 28.871094 20.035156 28.671875 C 20.074219 28.652344 20.113281 28.632812 20.152344 28.613281 L 20.15625 28.613281 C 20.269531 28.5625 20.398438 28.511719 20.539062 28.46875 C 22.222656 27.929688 23.03125 28.414062 23.03125 28.414062 " fill-opacity="1" fill-rule="nonzero"/><path fill="#964e1d" d="M 23.824219 30.296875 C 23.792969 30.351562 23.746094 30.382812 23.667969 30.375 C 23.152344 30.332031 23.121094 29.125 23.121094 29.125 C 22.605469 28.941406 22.261719 28.511719 22.261719 28.511719 L 22.796875 28.445312 L 22.300781 28.550781 C 22.300781 28.550781 22.671875 28.957031 23.195312 29.089844 C 23.195312 29.089844 23.3125 30.289062 23.824219 30.296875 " fill-opacity="1" fill-rule="nonzero"/><path fill="#c95e24" d="M 23.816406 30.296875 C 23.304688 30.289062 23.191406 29.089844 23.191406 29.089844 C 22.660156 28.957031 22.242188 28.476562 22.242188 28.476562 L 22.789062 28.445312 L 23.03125 28.414062 L 23.378906 28.621094 C 23.46875 28.671875 23.539062 28.761719 23.574219 28.863281 C 23.699219 29.21875 23.964844 30.039062 23.816406 30.296875 " fill-opacity="1" fill-rule="nonzero"/><path fill="#964e1d" d="M 23.347656 30.632812 L 23.324219 30.652344 C 23.101562 30.789062 22.730469 30.523438 22.738281 29.730469 C 22.738281 29.730469 22.609375 29.308594 22.453125 29.011719 C 22.640625 29.292969 22.8125 29.722656 22.8125 29.722656 C 22.859375 30.386719 23.136719 30.652344 23.347656 30.632812 " fill-opacity="1" fill-rule="nonzero"/><path fill="#c95e24" d="M 23.347656 30.632812 C 23.136719 30.652344 22.859375 30.386719 22.8125 29.722656 C 22.8125 29.722656 22.640625 29.292969 22.453125 29.011719 C 22.386719 28.886719 22.316406 28.78125 22.25 28.738281 C 22.171875 28.691406 22.164062 28.628906 22.1875 28.566406 C 22.207031 28.515625 22.246094 28.46875 22.285156 28.429688 C 22.300781 28.410156 22.320312 28.394531 22.332031 28.382812 C 22.347656 28.367188 22.363281 28.355469 22.378906 28.34375 C 22.402344 28.328125 22.417969 28.316406 22.417969 28.316406 C 22.441406 28.339844 22.613281 28.519531 22.789062 28.722656 C 22.960938 28.917969 23.128906 29.132812 23.171875 29.25 C 23.257812 29.480469 23.523438 30.433594 23.347656 30.632812 " fill-opacity="1" fill-rule="nonzero"/><path fill="#964e1d" d="M 22.785156 30.5625 C 22.753906 30.597656 22.714844 30.617188 22.660156 30.613281 C 22.34375 30.585938 22.21875 30.121094 22.292969 29.816406 C 22.339844 29.632812 22.082031 29.398438 21.875 29.242188 C 22.097656 29.375 22.371094 29.578125 22.355469 29.773438 C 22.335938 30.082031 22.511719 30.515625 22.785156 30.5625 " fill-opacity="1" fill-rule="nonzero"/><path fill="#c95e24" d="M 22.816406 29.503906 C 22.855469 29.753906 22.941406 30.375 22.785156 30.5625 C 22.511719 30.515625 22.335938 30.082031 22.355469 29.773438 C 22.371094 29.578125 22.097656 29.375 21.875 29.242188 L 21.871094 29.242188 C 21.746094 29.148438 21.640625 29.085938 21.640625 29.085938 L 22.007812 28.601562 L 22.015625 28.59375 C 22.015625 28.59375 22.046875 28.617188 22.09375 28.660156 L 22.179688 28.652344 C 22.378906 28.828125 22.777344 29.269531 22.816406 29.503906 " fill-opacity="1" fill-rule="nonzero"/><path fill="#964e1d" d="M 22.242188 30.554688 C 22.226562 30.566406 22.210938 30.574219 22.191406 30.570312 C 22.136719 30.566406 22.082031 30.550781 22.03125 30.519531 L 22.015625 30.511719 C 21.847656 30.417969 21.707031 30.214844 21.710938 29.953125 C 21.710938 29.933594 21.710938 29.917969 21.714844 29.898438 C 21.726562 29.765625 21.675781 29.65625 21.609375 29.574219 C 21.535156 29.488281 21.441406 29.429688 21.375 29.390625 C 21.320312 29.363281 21.285156 29.351562 21.285156 29.351562 C 21.285156 29.351562 21.335938 29.355469 21.40625 29.382812 C 21.449219 29.398438 21.492188 29.417969 21.539062 29.441406 L 21.550781 29.449219 C 21.59375 29.476562 21.628906 29.503906 21.664062 29.542969 C 21.71875 29.605469 21.761719 29.683594 21.773438 29.785156 C 21.777344 29.800781 21.777344 29.820312 21.777344 29.839844 L 21.777344 29.84375 C 21.777344 29.855469 21.777344 29.871094 21.773438 29.882812 C 21.761719 30.054688 21.804688 30.203125 21.882812 30.316406 C 21.914062 30.367188 21.957031 30.410156 22.003906 30.449219 C 22.03125 30.472656 22.0625 30.492188 22.097656 30.511719 C 22.144531 30.535156 22.195312 30.550781 22.242188 30.554688 " fill-opacity="1" fill-rule="nonzero"/><path fill="#c95e24" d="M 22.265625 29.453125 C 22.285156 29.539062 22.410156 30.429688 22.242188 30.554688 C 22.003906 30.527344 21.738281 30.257812 21.773438 29.882812 C 21.8125 29.503906 21.34375 29.335938 21.34375 29.335938 L 21.53125 28.933594 C 21.695312 29.035156 22.242188 29.371094 22.265625 29.453125 " fill-opacity="1" fill-rule="nonzero"/><path fill="#f57b77" d="M 22.019531 30.523438 C 22.019531 30.523438 21.917969 30.121094 22.132812 30.125 C 22.277344 30.128906 22.3125 30.472656 22.3125 30.472656 L 22.019531 30.523438 " fill-opacity="1" fill-rule="nonzero"/><path fill="#f57b77" d="M 22.539062 30.519531 C 22.539062 30.519531 22.460938 30.082031 22.691406 30.101562 C 22.847656 30.117188 22.863281 30.488281 22.863281 30.488281 L 22.539062 30.519531 " fill-opacity="1" fill-rule="nonzero"/><path fill="#f57b77" d="M 23.089844 30.546875 C 23.089844 30.546875 23.011719 30.113281 23.238281 30.132812 C 23.398438 30.144531 23.410156 30.515625 23.410156 30.515625 L 23.089844 30.546875 " fill-opacity="1" fill-rule="nonzero"/><path fill="#f57b77" d="M 23.558594 30.246094 C 23.558594 30.246094 23.445312 29.816406 23.675781 29.8125 C 23.832031 29.8125 23.875 30.183594 23.875 30.183594 L 23.558594 30.246094 " fill-opacity="1" fill-rule="nonzero"/><path fill="#964e1d" d="M 21.40625 29.609375 C 21.167969 29.722656 20.117188 29.945312 19.570312 29.707031 C 19.246094 29.566406 19.3125 29.429688 19.285156 29.214844 C 19.316406 29.285156 19.652344 29.878906 21.152344 29.429688 C 21.226562 29.46875 21.328125 29.523438 21.40625 29.609375 " fill-opacity="1" fill-rule="nonzero"/><path fill="#c95e24" d="M 20.195312 29.367188 L 20.191406 29.367188 C 20.128906 29.433594 20.058594 29.488281 19.976562 29.519531 C 19.917969 29.542969 19.855469 29.554688 19.789062 29.550781 L 19.777344 29.550781 C 19.71875 29.546875 19.644531 29.542969 19.554688 29.542969 L 19.539062 29.542969 C 19.488281 29.539062 19.433594 29.539062 19.375 29.535156 C 19.339844 29.511719 19.3125 29.488281 19.300781 29.472656 C 18.277344 29.453125 12.386719 29.324219 11.71875 28.9375 C 10.984375 28.507812 12.136719 27.265625 12.136719 27.265625 C 12.273438 27.195312 12.410156 27.136719 12.527344 27.09375 C 12.652344 27.050781 12.757812 27.027344 12.832031 27.039062 C 13.28125 27.097656 18.597656 28.742188 19.941406 28.605469 C 20.023438 28.597656 20.09375 28.601562 20.152344 28.613281 C 20.5 28.695312 20.429688 29.117188 20.195312 29.367188 " fill-opacity="1" fill-rule="nonzero"/><path fill="#964e1d" d="M 21.152344 29.429688 L 21.285156 29.351562 L 21.546875 29.472656 L 21.554688 29.519531 C 21.554688 29.519531 21.46875 29.582031 21.40625 29.609375 C 21.347656 29.636719 21.152344 29.429688 21.152344 29.429688 " fill-opacity="1" fill-rule="nonzero"/><path fill="#c95e24" d="M 20.152344 28.613281 C 20.128906 28.644531 20.09375 28.660156 20.035156 28.671875 C 19.851562 28.710938 19.472656 28.671875 18.8125 28.722656 C 17.953125 28.785156 12.527344 27.09375 12.527344 27.09375 C 12.652344 27.050781 12.757812 27.027344 12.832031 27.039062 C 13.28125 27.097656 18.597656 28.742188 19.941406 28.605469 C 20.023438 28.597656 20.09375 28.601562 20.152344 28.613281 " fill-opacity="1" fill-rule="nonzero"/><path fill="#964e1d" d="M 19.375 29.535156 C 17.484375 29.492188 11.335938 29.515625 10.941406 29.109375 C 10.511719 28.664062 10.835938 28.050781 10.835938 28.050781 C 10.835938 28.050781 11.539062 27.566406 12.136719 27.265625 C 12.136719 27.265625 10.984375 28.507812 11.71875 28.9375 C 12.386719 29.324219 18.277344 29.453125 19.300781 29.472656 C 19.3125 29.488281 19.339844 29.511719 19.375 29.535156 " fill-opacity="1" fill-rule="nonzero"/><path fill="#4287cf" d="M 16.945312 27.878906 C 16.945312 27.878906 16.878906 28.476562 16.671875 28.984375 L 11.117188 28.730469 C 11.796875 28.019531 13.117188 26.808594 13.964844 27.046875 L 16.945312 27.878906 " fill-opacity="1" fill-rule="nonzero"/><path fill="#387ec6" d="M 16.671875 28.984375 C 16.550781 29.277344 16.386719 29.542969 16.160156 29.652344 C 15.546875 29.949219 10.675781 29.214844 10.675781 29.214844 C 10.675781 29.214844 10.847656 29.011719 11.117188 28.730469 L 16.671875 28.984375 " fill-opacity="1" fill-rule="nonzero"/><path fill="#45a1dd" d="M 16.160156 27.125 C 16.210938 27.34375 16.144531 27.691406 16.308594 27.535156 C 16.527344 27.332031 17.050781 27.457031 17.164062 27.59375 C 17.242188 27.683594 16.957031 28.585938 16.710938 29.292969 C 16.597656 29.628906 16.488281 29.921875 16.429688 30.070312 C 16.25 30.527344 16.085938 30.363281 15.71875 30.339844 C 15.351562 30.316406 15.453125 29.796875 15.082031 30.074219 C 14.710938 30.351562 14.335938 30.09375 14.335938 30.09375 C 14.285156 29.894531 14.269531 29.683594 14.28125 29.46875 C 14.335938 28.277344 15.183594 26.96875 15.414062 26.84375 C 15.691406 26.699219 16.105469 26.90625 16.160156 27.125 " fill-opacity="1" fill-rule="nonzero"/><path fill="#2e7f91" d="M 15.789062 28.800781 C 15.78125 29.15625 16.214844 29.382812 16.710938 29.292969 C 16.597656 29.628906 16.488281 29.921875 16.429688 30.070312 C 16.25 30.527344 16.085938 30.363281 15.71875 30.339844 C 15.351562 30.316406 15.453125 29.796875 15.082031 30.074219 C 14.710938 30.351562 14.335938 30.09375 14.335938 30.09375 C 14.285156 29.894531 14.269531 29.683594 14.28125 29.46875 C 14.28125 29.46875 15.058594 29.984375 15.304688 29.460938 C 15.550781 28.933594 15.800781 28.367188 15.789062 28.800781 " fill-opacity="1" fill-rule="nonzero"/><path fill="#4287cf" d="M 13.84375 20.890625 C 12.863281 25.191406 13.800781 27.859375 13.800781 27.859375 C 13.765625 28.097656 13.628906 28.265625 13.367188 28.425781 C 12.988281 28.660156 12.59375 28.820312 12.226562 28.921875 C 12.226562 28.921875 11.734375 28.507812 11.730469 28.125 C 11.726562 27.742188 10.964844 17.757812 11.800781 16.15625 C 12.84375 15.753906 14.042969 16.859375 14.03125 17.738281 C 14.015625 18.988281 14.03125 20.070312 13.84375 20.890625 " fill-opacity="1" fill-rule="nonzero"/><path fill="#387ec6" d="M 11.730469 28.125 C 11.734375 28.507812 12.226562 28.921875 12.226562 28.921875 C 11.375 29.167969 10.675781 29.128906 10.675781 29.128906 C 10.675781 29.128906 10.671875 21.542969 10.695312 17.753906 C 10.699219 16.90625 11.171875 16.398438 11.800781 16.15625 C 10.964844 17.757812 11.726562 27.742188 11.730469 28.125 " fill-opacity="1" fill-rule="nonzero"/></svg>