<svg xmlns="http://www.w3.org/2000/svg" xmlns:xlink="http://www.w3.org/1999/xlink" width="80" zoomAndPan="magnify" viewBox="0 0 60 60" height="80" preserveAspectRatio="xMidYMid meet" version="1.0"><defs><clipPath id="feeb832365"><path d="M 2.144531 16 L 57.644531 16 L 57.644531 57.992188 L 2.144531 57.992188 Z M 2.144531 16 " clip-rule="nonzero"/></clipPath><clipPath id="5423d75782"><path d="M 17 1.742188 L 42 1.742188 L 42 26 L 17 26 Z M 17 1.742188 " clip-rule="nonzero"/></clipPath></defs><g clip-path="url(#feeb832365)"><path fill="#333333" d="M 7.558594 16.058594 L 15.652344 16.058594 C 15.566406 16.425781 15.523438 16.808594 15.523438 17.195312 L 15.523438 18.386719 L 7.558594 18.386719 C 7.3125 18.386719 7.097656 18.597656 7.097656 18.84375 L 7.097656 48.667969 C 7.097656 48.914062 7.3125 49.125 7.558594 49.125 L 52.226562 49.125 C 52.472656 49.125 52.6875 48.914062 52.6875 48.667969 L 52.6875 18.84375 C 52.6875 18.597656 52.472656 18.386719 52.226562 18.386719 L 43.722656 18.386719 L 43.722656 17.195312 C 43.722656 16.808594 43.679688 16.425781 43.589844 16.058594 L 52.226562 16.058594 C 53.765625 16.058594 55.015625 17.308594 55.015625 18.84375 L 55.015625 48.667969 C 55.015625 50.203125 53.765625 51.457031 52.226562 51.457031 L 7.558594 51.457031 C 6.019531 51.457031 4.761719 50.203125 4.761719 48.667969 L 4.761719 18.84375 C 4.761719 17.308594 6.019531 16.058594 7.558594 16.058594 Z M 2.148438 52.777344 L 22.777344 52.777344 L 22.777344 53.765625 L 37.007812 53.765625 L 37.007812 52.777344 L 57.636719 52.777344 L 57.636719 55.386719 C 57.636719 56.824219 56.40625 57.992188 54.898438 57.992188 L 4.886719 57.992188 C 3.378906 57.992188 2.148438 56.824219 2.148438 55.386719 Z M 2.148438 52.777344 " fill-opacity="1" fill-rule="evenodd"/></g><path fill="#04599c" d="M 33.796875 25.140625 L 33.796875 26.039062 C 33.796875 26.460938 33.617188 26.820312 33.289062 27.070312 L 29.574219 29.917969 L 25.859375 27.070312 C 25.527344 26.820312 25.351562 26.460938 25.351562 26.039062 L 25.351562 23.6875 L 25.058594 23.382812 C 24.519531 22.820312 24.238281 22.167969 24.183594 21.394531 L 24.101562 20.070312 L 24.078125 20.0625 C 23.816406 19.988281 23.597656 19.894531 23.433594 19.757812 C 23.269531 19.628906 23.152344 19.445312 23.027344 19.097656 C 22.902344 18.746094 22.765625 18.21875 22.660156 17.746094 C 22.5625 17.277344 22.503906 16.863281 22.476562 16.5 C 22.449219 16.132812 22.453125 15.828125 22.535156 15.585938 C 22.621094 15.347656 22.851562 15.15625 23.011719 15.105469 C 23.171875 15.050781 23.257812 15.085938 23.328125 15.070312 C 23.398438 15.046875 23.289062 15.007812 23.289062 14.976562 L 23.285156 14.925781 C 23.269531 14.90625 23.253906 14.886719 23.242188 14.867188 C 22.640625 14.085938 22.191406 12.546875 22.066406 11.171875 C 21.9375 9.800781 22.140625 8.589844 22.34375 7.378906 C 22.714844 7.613281 23.09375 7.84375 23.773438 7.480469 C 24.457031 7.117188 25.449219 6.152344 26.582031 5.488281 C 27.722656 4.820312 28.992188 4.449219 30.304688 4.507812 C 31.617188 4.570312 32.96875 5.066406 33.738281 5.722656 C 34.503906 6.378906 34.691406 7.191406 34.875 8.007812 C 35.476562 7.988281 36.074219 7.980469 36.507812 8.671875 C 36.9375 9.371094 37.199219 10.789062 37.101562 12.023438 C 37 13.257812 36.535156 14.324219 36.0625 14.878906 C 36.019531 14.925781 35.980469 14.976562 35.9375 15.015625 L 35.933594 15.050781 C 36.050781 15.0625 36.160156 15.085938 36.269531 15.128906 C 36.496094 15.214844 36.707031 15.363281 36.800781 15.652344 C 36.898438 15.9375 36.890625 16.359375 36.851562 16.773438 C 36.816406 17.1875 36.753906 17.605469 36.652344 18.027344 C 36.554688 18.445312 36.414062 18.867188 36.289062 19.167969 C 36.160156 19.46875 36.050781 19.644531 35.886719 19.78125 C 35.722656 19.910156 35.5 20.003906 35.238281 20.082031 C 35.1875 20.097656 35.140625 20.113281 35.089844 20.125 L 35.003906 21.398438 C 34.957031 22.128906 34.699219 22.753906 34.21875 23.292969 L 32.398438 23.617188 C 32.101562 23.316406 31.699219 23.148438 31.265625 23.148438 C 30.390625 23.148438 29.679688 23.859375 29.679688 24.730469 C 29.679688 25.613281 30.390625 26.324219 31.265625 26.324219 C 31.921875 26.324219 32.503906 25.925781 32.742188 25.332031 Z M 24.21875 26.535156 C 24.53125 28.0625 24.839844 29.585938 25.03125 30.898438 C 25.214844 32.210938 25.285156 33.308594 25.351562 34.402344 C 25.664062 33.75 25.972656 33.101562 26.316406 32.613281 C 26.660156 32.121094 27.039062 31.800781 27.414062 31.472656 C 27.890625 32.226562 28.371094 32.980469 28.507812 33.433594 C 28.640625 33.886719 28.425781 34.046875 28.167969 35.730469 C 27.914062 37.417969 27.613281 40.644531 27.3125 43.867188 C 22.507812 43.867188 16.15625 43.867188 11.355469 43.867188 C 11.730469 40.574219 12.109375 37.28125 12.722656 35.046875 C 13.328125 32.8125 14.171875 31.625 15.488281 30.71875 C 16.8125 29.808594 20.15625 29.175781 21.4375 28.527344 C 22.710938 27.875 23.464844 27.203125 24.21875 26.535156 Z M 35.566406 26.535156 C 35.253906 28.0625 34.949219 29.585938 34.757812 30.898438 C 34.570312 32.210938 34.5 33.308594 34.433594 34.402344 C 34.121094 33.75 33.816406 33.101562 33.46875 32.613281 C 33.125 32.121094 32.75 31.800781 32.371094 31.472656 C 31.894531 32.226562 31.414062 32.980469 31.277344 33.433594 C 31.144531 33.886719 31.359375 34.046875 31.617188 35.730469 C 31.875 37.417969 32.175781 40.644531 32.476562 43.867188 C 37.277344 43.867188 43.628906 43.867188 48.429688 43.867188 C 48.054688 40.574219 47.675781 37.28125 47.0625 35.046875 C 46.457031 32.8125 45.613281 31.625 44.296875 30.71875 C 42.972656 29.808594 39.628906 29.175781 38.351562 28.527344 C 37.074219 27.875 36.320312 27.203125 35.566406 26.535156 Z M 35.566406 26.535156 " fill-opacity="1" fill-rule="evenodd"/><g clip-path="url(#5423d75782)"><path fill="#333333" d="M 19.019531 14.128906 C 18.5625 8.792969 20.78125 5.175781 23.9375 3.285156 C 25.640625 2.257812 27.628906 1.742188 29.609375 1.742188 C 31.589844 1.742188 33.574219 2.257812 35.285156 3.285156 C 38.441406 5.175781 40.652344 8.792969 40.199219 14.128906 C 39.992188 14.039062 39.765625 13.996094 39.535156 13.996094 L 39.171875 13.996094 C 39.5625 9.144531 37.582031 5.871094 34.757812 4.175781 C 33.207031 3.246094 31.414062 2.785156 29.609375 2.785156 C 27.808594 2.785156 26.007812 3.246094 24.464844 4.175781 C 21.636719 5.871094 19.652344 9.144531 20.050781 13.996094 L 19.683594 13.996094 C 19.449219 13.996094 19.226562 14.039062 19.019531 14.128906 Z M 31.265625 23.503906 C 31.675781 23.503906 32.039062 23.699219 32.261719 24.003906 L 37.035156 23.148438 C 37.035156 23.148438 37.03125 23.148438 37.035156 23.140625 L 37.972656 21.621094 L 37.589844 21.621094 L 37.589844 14.75 L 39.535156 14.75 C 40.609375 14.75 41.484375 15.75 41.484375 16.96875 L 41.484375 19.402344 C 41.484375 20.621094 40.609375 21.621094 39.535156 21.621094 L 39.191406 21.621094 L 37.921875 23.6875 C 37.847656 23.8125 37.742188 23.921875 37.621094 24.003906 C 37.5 24.085938 37.371094 24.140625 37.21875 24.167969 L 32.46875 25.023438 C 32.339844 25.5625 31.851562 25.96875 31.265625 25.96875 C 30.582031 25.96875 30.03125 25.414062 30.03125 24.730469 C 30.03125 24.054688 30.582031 23.503906 31.265625 23.503906 Z M 19.683594 14.75 L 21.632812 14.75 L 21.632812 21.621094 L 19.683594 21.621094 C 18.613281 21.621094 17.738281 20.621094 17.738281 19.402344 L 17.738281 16.96875 C 17.738281 15.75 18.613281 14.75 19.683594 14.75 Z M 19.683594 14.75 " fill-opacity="1" fill-rule="nonzero"/></g></svg>